<svg width="847" height="306" viewBox="0 0 847 306" fill="none" xmlns="http://www.w3.org/2000/svg">
<path fill-rule="evenodd" clip-rule="evenodd" d="M846.184 306V14.7583H846.154C815.245 26.1042 781.026 21.5537 748.993 14.1516C716.861 6.729 687.06 0.00952148 659.099 0C659.06 0 659.021 0 658.981 0C621.278 0.0126953 586.919 12.2461 554.701 51.4358C539.177 70.3171 526.506 91.3865 513.843 112.443C499.832 135.74 485.831 159.021 467.985 179.306C419.586 234.338 355.004 259.669 283.348 248.717C268.52 246.454 253.773 243.336 239.035 240.219C209.713 234.019 180.426 227.826 150.602 228.392C92.2864 229.494 37.0249 260.297 0 306H846.184Z" fill="white" fill-opacity="0.02"/>
</svg>
