<svg width="14" height="16" viewBox="0 0 14 16" fill="none" xmlns="http://www.w3.org/2000/svg">
<path d="M10.5 13.6H10.36C9.18384 13.6 8.59579 13.6 8.14657 13.3711C7.75143 13.1698 7.43017 12.8485 7.22884 12.4534C6.99995 12.0042 6.99995 11.4161 6.99995 10.24V5.76C6.99995 4.58389 6.99995 3.99583 7.22884 3.54662C7.43017 3.15148 7.75143 2.83022 8.14657 2.62889C8.59579 2.4 9.18384 2.4 10.36 2.4H10.5M10.5 13.6C10.5 14.3732 11.1268 15 11.9 15C12.6731 15 13.3 14.3732 13.3 13.6C13.3 12.8268 12.6731 12.2 11.9 12.2C11.1268 12.2 10.5 12.8268 10.5 13.6ZM10.5 2.4C10.5 3.1732 11.1268 3.8 11.9 3.8C12.6731 3.8 13.3 3.1732 13.3 2.4C13.3 1.6268 12.6731 1 11.9 1C11.1268 1 10.5 1.6268 10.5 2.4ZM3.49995 8L10.5 8M3.49995 8C3.49995 8.7732 2.87315 9.4 2.09995 9.4C1.32675 9.4 0.699951 8.7732 0.699951 8C0.699951 7.2268 1.32675 6.6 2.09995 6.6C2.87315 6.6 3.49995 7.2268 3.49995 8ZM10.5 8C10.5 8.7732 11.1268 9.4 11.9 9.4C12.6731 9.4 13.3 8.7732 13.3 8C13.3 7.2268 12.6731 6.6 11.9 6.6C11.1268 6.6 10.5 7.2268 10.5 8Z" stroke="#008582" stroke-linecap="round" stroke-linejoin="round"/>
</svg>
