<svg width="65" height="51" viewBox="0 0 65 51" fill="none" xmlns="http://www.w3.org/2000/svg">
<path fill-rule="evenodd" clip-rule="evenodd" d="M46.7945 20.4019C45.6476 25.5638 39.8428 29.4909 32.8522 29.4909C25.0397 29.4909 18.7044 24.5827 18.7044 18.5276C18.7044 12.4725 25.0397 7.5643 32.8522 7.5643C39.8403 7.5643 45.645 11.4914 46.7945 16.6534H61.0801L32.5063 0.289939C32.1656 0.0957834 31.7105 0 31.232 0C30.6546 0 30.0434 0.139792 29.5701 0.409021L1.21739 16.6456C0.351359 17.14 0.255133 17.8985 1.00673 18.3283L33.2007 36.7627C33.5414 36.9568 33.9965 37.0526 34.475 37.0526C35.0524 37.0526 35.6635 36.9128 36.1369 36.641L64.4896 20.4044L64.5 20.3993H46.7945V20.4019ZM32.8548 13.7695C35.3905 13.7695 37.5672 14.9577 38.5113 16.6534H41.8766C40.8051 13.5702 37.1719 11.3024 32.8574 11.3024C27.6976 11.3024 23.5157 14.5435 23.5157 18.5406C23.5157 22.5376 27.6976 25.7787 32.8574 25.7787C37.1849 25.7787 40.8259 23.498 41.8844 20.4019H38.5243C37.5881 22.1104 35.4035 23.309 32.8548 23.309C29.4557 23.309 26.699 21.1733 26.699 18.538C26.699 15.9026 29.4557 13.7669 32.8548 13.7669V13.7695Z" fill="#213056"/>
<path opacity="0.2" fill-rule="evenodd" clip-rule="evenodd" d="M63.9981 32.4296L59.8182 30.0956L35.7467 43.533C35.2785 43.7951 34.674 43.9299 34.1004 43.9299C33.6271 43.9299 33.1744 43.8376 32.8374 43.6503L5.18013 28.2109L1.20851 30.4276C0.351936 30.9069 0.259333 31.6358 1.00015 32.0502L32.8425 49.8261C33.1795 50.0133 33.6322 50.1057 34.1055 50.1057C34.6766 50.1057 35.2811 49.9709 35.7492 49.7088L63.7924 34.0522C64.6464 33.5729 64.7415 32.844 64.0007 32.4296H63.9981Z" fill="#213056"/>
<path opacity="0.5" fill-rule="evenodd" clip-rule="evenodd" d="M63.9998 25.9048L59.8198 23.5708L35.7476 37.0082C35.2794 37.2703 34.6749 37.4051 34.1039 37.4051C33.6306 37.4051 33.1778 37.3127 32.8434 37.1255L5.18025 21.6836L1.20853 23.9003C0.351932 24.3796 0.259327 25.1085 1.00017 25.5228L32.8434 43.2987C33.1804 43.486 33.6306 43.5783 34.1039 43.5783C34.6749 43.5783 35.2794 43.4435 35.7476 43.1814L63.7915 27.5249C64.6481 27.0456 64.7407 26.3167 63.9998 25.9023V25.9048Z" fill="#213056"/>
</svg>
