<svg width="63" height="48" viewBox="0 0 63 48" fill="none" xmlns="http://www.w3.org/2000/svg">
<path fill-rule="evenodd" clip-rule="evenodd" d="M45.1938 19.5445C44.0951 24.4896 38.5343 28.2516 31.8374 28.2516C24.3532 28.2516 18.2841 23.5497 18.2841 17.749C18.2841 11.9484 24.3532 7.24643 31.8374 7.24643C38.5318 7.24643 44.0926 11.0085 45.1938 15.9536H58.8791L31.506 0.277755C31.1796 0.0917583 30.7437 0 30.2852 0C29.7321 0 29.1467 0.133918 28.6932 0.391833L1.53194 15.9461C0.702301 16.4198 0.610119 17.1464 1.33014 17.5581L32.1712 35.2178C32.4976 35.4038 32.9336 35.4956 33.392 35.4956C33.9451 35.4956 34.5306 35.3617 34.984 35.1013L62.1453 19.547L62.1553 19.542H45.1938V19.5445ZM31.8399 13.1909C34.269 13.1909 36.3543 14.3292 37.2587 15.9536H40.4826C39.4561 12.9999 35.9756 10.8275 31.8424 10.8275C26.8994 10.8275 22.8932 13.9324 22.8932 17.7614C22.8932 21.5905 26.8994 24.6954 31.8424 24.6954C35.9881 24.6954 39.476 22.5106 40.49 19.5445H37.2711C36.3742 21.1813 34.2814 22.3295 31.8399 22.3295C28.5836 22.3295 25.9427 20.2836 25.9427 17.759C25.9427 15.2344 28.5836 13.1884 31.8399 13.1884V13.1909Z" fill="#213056"/>
<path opacity="0.2" fill-rule="evenodd" clip-rule="evenodd" d="M61.6745 31.0667L57.6702 28.8307L34.6102 41.7035C34.1617 41.9546 33.5827 42.0837 33.0331 42.0837C32.5797 42.0837 32.146 41.9952 31.8232 41.8159L5.32815 27.0253L1.52343 29.1488C0.702854 29.6079 0.614143 30.3062 1.32383 30.7032L31.8281 47.7321C32.151 47.9115 32.5847 47.9999 33.0381 47.9999C33.5851 47.9999 34.1642 47.8708 34.6127 47.6197L61.4774 32.6211C62.2955 32.1619 62.3867 31.4636 61.677 31.0667H61.6745Z" fill="#213056"/>
<path opacity="0.5" fill-rule="evenodd" clip-rule="evenodd" d="M61.6761 24.8168L57.6717 22.5809L34.6111 35.4536C34.1626 35.7047 33.5835 35.8338 33.0365 35.8338C32.583 35.8338 32.1493 35.7453 31.829 35.566L5.32827 20.773L1.52345 22.8965C0.70285 23.3557 0.614137 24.0539 1.32384 24.4509L31.829 41.4798C32.1518 41.6592 32.583 41.7477 33.0365 41.7477C33.5835 41.7477 34.1626 41.6185 34.6111 41.3674L61.4765 26.3688C62.2971 25.9096 62.3858 25.2114 61.6761 24.8144V24.8168Z" fill="#213056"/>
</svg>
