<svg xmlns="http://www.w3.org/2000/svg" width="12" height="12" viewBox="0 0 12 12">
  <g fill="none" fill-rule="evenodd">
    <rect width="12" height="12" fill="#EBF2F7"/>
    <path fill="#065393" d="M7.28884522,6 L10.9046443,9.61579905 C11.2605491,9.97170384 11.2605491,10.5487395 10.9046443,10.9046443 C10.5487395,11.2605491 9.97170382,11.2605491 9.61579903,10.9046443 L5.99999998,7.28884524 L2.38420093,10.9046443 C2.02829614,11.2605491 1.45126048,11.2605491 1.09535569,10.9046443 C0.739450905,10.5487395 0.739450905,9.97170384 1.09535569,9.61579905 L4.71115474,6 L1.09535569,2.38420095 C0.739450905,2.02829616 0.739450905,1.4512605 1.09535569,1.09535571 C1.45126048,0.739450929 2.02829614,0.739450929 2.38420093,1.09535571 L5.99999998,4.71115476 L9.61579903,1.09535571 C9.97170382,0.739450929 10.5487395,0.739450929 10.9046443,1.09535571 C11.2605491,1.4512605 11.2605491,2.02829616 10.9046443,2.38420095 L7.28884522,6 Z" transform="rotate(90 6 6)"/>
  </g>
</svg>
