<svg width="14" height="16" viewBox="0 0 14 16" fill="none" xmlns="http://www.w3.org/2000/svg">
<path d="M12.25 8.35V4.36C12.25 3.18389 12.25 2.59583 12.0212 2.14662C11.8198 1.75148 11.4986 1.43022 11.1034 1.22889C10.6542 1 10.0662 1 8.89005 1H4.41005C3.23394 1 2.64588 1 2.19667 1.22889C1.80153 1.43022 1.48027 1.75148 1.27894 2.14662C1.05005 2.59583 1.05005 3.18389 1.05005 4.36V11.64C1.05005 12.8161 1.05005 13.4042 1.27894 13.8534C1.48027 14.2485 1.80153 14.5698 2.19667 14.7711C2.64588 15 3.23394 15 4.41005 15H6.65005M8.05005 7.3H3.85005M5.25005 10.1H3.85005M9.45005 4.5H3.85005M8.40005 12.9L9.80005 14.3L12.95 11.15" stroke="#008582" stroke-linecap="round" stroke-linejoin="round"/>
</svg>
