<svg width="15" height="16" viewBox="0 0 15 16" fill="none" xmlns="http://www.w3.org/2000/svg">
<mask id="path-1-inside-1_2709_4117" fill="white">
<path d="M14.7629 0.0746751C14.9103 0.165778 15 0.326712 15 0.500001V15.5C15 15.7761 14.7761 16 14.5 16H11.5C11.2239 16 11 15.7761 11 15.5V14H10V15.5C10 15.7761 9.77614 16 9.5 16H0.5C0.223858 16 0 15.7761 0 15.5V10C0 9.78479 0.137715 9.59372 0.341886 9.52566L6 7.63962V4.5C6 4.31061 6.107 4.13748 6.27639 4.05279L14.2764 0.0527869C14.4314 -0.0247102 14.6155 -0.0164282 14.7629 0.0746751ZM6 8.69371L1 10.3604V15H6V8.69371ZM7 15H9V13.5C9 13.2239 9.22386 13 9.5 13H11.5C11.7761 13 12 13.2239 12 13.5V15H14V1.30902L7 4.80902V15Z"/>
<path d="M2 11H3V12H2V11Z"/>
<path d="M4 11H5V12H4V11Z"/>
<path d="M2 13H3V14H2V13Z"/>
<path d="M4 13H5V14H4V13Z"/>
<path d="M8 9H9V10H8V9Z"/>
<path d="M10 9H11V10H10V9Z"/>
<path d="M8 11H9V12H8V11Z"/>
<path d="M10 11H11V12H10V11Z"/>
<path d="M12 9H13V10H12V9Z"/>
<path d="M12 11H13V12H12V11Z"/>
<path d="M8 7H9V8H8V7Z"/>
<path d="M10 7H11V8H10V7Z"/>
<path d="M12 7H13V8H12V7Z"/>
<path d="M8 5H9V6H8V5Z"/>
<path d="M10 5H11V6H10V5Z"/>
<path d="M12 5H13V6H12V5Z"/>
<path d="M12 3H13V4H12V3Z"/>
</mask>
<path d="M14.7629 0.0746751C14.9103 0.165778 15 0.326712 15 0.500001V15.5C15 15.7761 14.7761 16 14.5 16H11.5C11.2239 16 11 15.7761 11 15.5V14H10V15.5C10 15.7761 9.77614 16 9.5 16H0.5C0.223858 16 0 15.7761 0 15.5V10C0 9.78479 0.137715 9.59372 0.341886 9.52566L6 7.63962V4.5C6 4.31061 6.107 4.13748 6.27639 4.05279L14.2764 0.0527869C14.4314 -0.0247102 14.6155 -0.0164282 14.7629 0.0746751ZM6 8.69371L1 10.3604V15H6V8.69371ZM7 15H9V13.5C9 13.2239 9.22386 13 9.5 13H11.5C11.7761 13 12 13.2239 12 13.5V15H14V1.30902L7 4.80902V15Z" fill="black"/>
<path d="M2 11H3V12H2V11Z" fill="black"/>
<path d="M4 11H5V12H4V11Z" fill="black"/>
<path d="M2 13H3V14H2V13Z" fill="black"/>
<path d="M4 13H5V14H4V13Z" fill="black"/>
<path d="M8 9H9V10H8V9Z" fill="black"/>
<path d="M10 9H11V10H10V9Z" fill="black"/>
<path d="M8 11H9V12H8V11Z" fill="black"/>
<path d="M10 11H11V12H10V11Z" fill="black"/>
<path d="M12 9H13V10H12V9Z" fill="black"/>
<path d="M12 11H13V12H12V11Z" fill="black"/>
<path d="M8 7H9V8H8V7Z" fill="black"/>
<path d="M10 7H11V8H10V7Z" fill="black"/>
<path d="M12 7H13V8H12V7Z" fill="black"/>
<path d="M8 5H9V6H8V5Z" fill="black"/>
<path d="M10 5H11V6H10V5Z" fill="black"/>
<path d="M12 5H13V6H12V5Z" fill="black"/>
<path d="M12 3H13V4H12V3Z" fill="black"/>
<path d="M14.7629 0.0746751L15.2886 -0.775975L15.2886 -0.775976L14.7629 0.0746751ZM11 14H12C12 13.4477 11.5523 13 11 13V14ZM10 14V13C9.44771 13 9 13.4477 9 14H10ZM0.341886 9.52566L0.0256582 8.57698H0.0256582L0.341886 9.52566ZM6 7.63962L6.31623 8.5883C6.72457 8.45219 7 8.07005 7 7.63962H6ZM6.27639 4.05279L6.72361 4.94721L6.27639 4.05279ZM14.2764 0.0527869L14.7236 0.947214L14.7236 0.947214L14.2764 0.0527869ZM1 10.3604L0.683772 9.4117C0.27543 9.54781 0 9.92995 0 10.3604H1ZM6 8.69371H7C7 8.37227 6.84548 8.07042 6.58471 7.88247C6.32394 7.69452 5.98872 7.64338 5.68377 7.74503L6 8.69371ZM1 15H0C0 15.5523 0.447715 16 1 16V15ZM6 15V16C6.55228 16 7 15.5523 7 15H6ZM9 15V16C9.55229 16 10 15.5523 10 15H9ZM7 15H6C6 15.5523 6.44772 16 7 16V15ZM12 15H11C11 15.5523 11.4477 16 12 16V15ZM14 15V16C14.5523 16 15 15.5523 15 15H14ZM14 1.30902H15C15 0.96244 14.8205 0.640574 14.5257 0.458367C14.2309 0.27616 13.8628 0.259596 13.5528 0.41459L14 1.30902ZM7 4.80902L6.55279 3.91459C6.214 4.08398 6 4.43025 6 4.80902H7ZM2 11V10H1V11H2ZM3 11H4V10H3V11ZM3 12V13H4V12H3ZM2 12H1V13H2V12ZM4 11V10H3V11H4ZM5 11H6V10H5V11ZM5 12V13H6V12H5ZM4 12H3V13H4V12ZM2 13V12H1V13H2ZM3 13H4V12H3V13ZM3 14V15H4V14H3ZM2 14H1V15H2V14ZM4 13V12H3V13H4ZM5 13H6V12H5V13ZM5 14V15H6V14H5ZM4 14H3V15H4V14ZM8 9V8H7V9H8ZM9 9H10V8H9V9ZM9 10V11H10V10H9ZM8 10H7V11H8V10ZM10 9V8H9V9H10ZM11 9H12V8H11V9ZM11 10V11H12V10H11ZM10 10H9V11H10V10ZM8 11V10H7V11H8ZM9 11H10V10H9V11ZM9 12V13H10V12H9ZM8 12H7V13H8V12ZM10 11V10H9V11H10ZM11 11H12V10H11V11ZM11 12V13H12V12H11ZM10 12H9V13H10V12ZM12 9V8H11V9H12ZM13 9H14V8H13V9ZM13 10V11H14V10H13ZM12 10H11V11H12V10ZM12 11V10H11V11H12ZM13 11H14V10H13V11ZM13 12V13H14V12H13ZM12 12H11V13H12V12ZM8 7V6H7V7H8ZM9 7H10V6H9V7ZM9 8V9H10V8H9ZM8 8H7V9H8V8ZM10 7V6H9V7H10ZM11 7H12V6H11V7ZM11 8V9H12V8H11ZM10 8H9V9H10V8ZM12 7V6H11V7H12ZM13 7H14V6H13V7ZM13 8V9H14V8H13ZM12 8H11V9H12V8ZM8 5V4H7V5H8ZM9 5H10V4H9V5ZM9 6V7H10V6H9ZM8 6H7V7H8V6ZM10 5V4H9V5H10ZM11 5H12V4H11V5ZM11 6V7H12V6H11ZM10 6H9V7H10V6ZM12 5V4H11V5H12ZM13 5H14V4H13V5ZM13 6V7H14V6H13ZM12 6H11V7H12V6ZM12 3V2H11V3H12ZM13 3H14V2H13V3ZM13 4V5H14V4H13ZM12 4H11V5H12V4ZM16 0.500001C16 -0.0198664 15.7308 -0.502665 15.2886 -0.775975L14.2371 0.925325C14.0897 0.834222 14 0.67329 14 0.500001H16ZM16 15.5V0.500001H14V15.5H16ZM14.5 17C15.3284 17 16 16.3284 16 15.5H14C14 15.2239 14.2239 15 14.5 15V17ZM11.5 17H14.5V15H11.5V17ZM10 15.5C10 16.3284 10.6716 17 11.5 17V15C11.7761 15 12 15.2239 12 15.5H10ZM10 14V15.5H12V14H10ZM10 15H11V13H10V15ZM11 15.5V14H9V15.5H11ZM9.5 17C10.3284 17 11 16.3284 11 15.5H9C9 15.2239 9.22386 15 9.5 15V17ZM-1 15.5C-1 16.3284 -0.328425 17 0.5 17V15C0.77614 15 1 15.2239 1 15.5H-1ZM-1 10V15.5H1V10H-1ZM0.0256582 8.57698C-0.586855 8.78115 -1 9.35436 -1 10H1C1 10.2152 0.862285 10.4063 0.658114 10.4743L0.0256582 8.57698ZM5.68377 6.69094L0.0256582 8.57698L0.658114 10.4743L6.31623 8.5883L5.68377 6.69094ZM5 4.5V7.63962H7V4.5H5ZM5.82918 3.15836C5.321 3.41245 5 3.93184 5 4.5H7C7 4.68939 6.893 4.86252 6.72361 4.94721L5.82918 3.15836ZM13.8292 -0.84164L5.82918 3.15836L6.72361 4.94721L14.7236 0.947214L13.8292 -0.84164ZM15.2886 -0.775976C14.8464 -1.04929 14.2942 -1.07413 13.8292 -0.84164L14.7236 0.947214C14.5686 1.02471 14.3845 1.01643 14.2371 0.925326L15.2886 -0.775976ZM1.31623 11.3091L6.31623 9.6424L5.68377 7.74503L0.683772 9.4117L1.31623 11.3091ZM2 15V10.3604H0V15H2ZM6 14H1V16H6V14ZM5 8.69371V15H7V8.69371H5ZM9 14H7V16H9V14ZM8 13.5V15H10V13.5H8ZM9.5 12C8.67157 12 8 12.6716 8 13.5H10C10 13.7761 9.77614 14 9.5 14V12ZM11.5 12H9.5V14H11.5V12ZM13 13.5C13 12.6716 12.3284 12 11.5 12V14C11.2239 14 11 13.7761 11 13.5H13ZM13 15V13.5H11V15H13ZM14 14H12V16H14V14ZM13 1.30902V15H15V1.30902H13ZM7.44721 5.70344L14.4472 2.20344L13.5528 0.41459L6.55279 3.91459L7.44721 5.70344ZM0.5 17H9.5V15H0.5V17ZM8 15V4.80902H6V15H8ZM2 12H3V10H2V12ZM2 11V12H4V11H2ZM3 11H2V13H3V11ZM3 12V11H1V12H3ZM4 12H5V10H4V12ZM4 11V12H6V11H4ZM5 11H4V13H5V11ZM5 12V11H3V12H5ZM2 14H3V12H2V14ZM2 13V14H4V13H2ZM3 13H2V15H3V13ZM3 14V13H1V14H3ZM4 14H5V12H4V14ZM4 13V14H6V13H4ZM5 13H4V15H5V13ZM5 14V13H3V14H5ZM8 10H9V8H8V10ZM8 9V10H10V9H8ZM9 9H8V11H9V9ZM9 10V9H7V10H9ZM10 10H11V8H10V10ZM10 9V10H12V9H10ZM11 9H10V11H11V9ZM11 10V9H9V10H11ZM8 12H9V10H8V12ZM8 11V12H10V11H8ZM9 11H8V13H9V11ZM9 12V11H7V12H9ZM10 12H11V10H10V12ZM10 11V12H12V11H10ZM11 11H10V13H11V11ZM11 12V11H9V12H11ZM12 10H13V8H12V10ZM12 9V10H14V9H12ZM13 9H12V11H13V9ZM13 10V9H11V10H13ZM12 12H13V10H12V12ZM12 11V12H14V11H12ZM13 11H12V13H13V11ZM13 12V11H11V12H13ZM8 8H9V6H8V8ZM8 7V8H10V7H8ZM9 7H8V9H9V7ZM9 8V7H7V8H9ZM10 8H11V6H10V8ZM10 7V8H12V7H10ZM11 7H10V9H11V7ZM11 8V7H9V8H11ZM12 8H13V6H12V8ZM12 7V8H14V7H12ZM13 7H12V9H13V7ZM13 8V7H11V8H13ZM8 6H9V4H8V6ZM8 5V6H10V5H8ZM9 5H8V7H9V5ZM9 6V5H7V6H9ZM10 6H11V4H10V6ZM10 5V6H12V5H10ZM11 5H10V7H11V5ZM11 6V5H9V6H11ZM12 6H13V4H12V6ZM12 5V6H14V5H12ZM13 5H12V7H13V5ZM13 6V5H11V6H13ZM12 4H13V2H12V4ZM12 3V4H14V3H12ZM13 3H12V5H13V3ZM13 4V3H11V4H13Z" fill="#00A9A6" mask="url(#path-1-inside-1_2709_4117)"/>
</svg>
