<svg width="16" height="13" viewBox="0 0 16 13" fill="none" xmlns="http://www.w3.org/2000/svg">
<path d="M14.6666 5.33301V3.46634C14.6666 2.7196 14.6666 2.34624 14.5213 2.06102C14.3934 1.81014 14.1895 1.60616 13.9386 1.47833C13.6534 1.33301 13.28 1.33301 12.5333 1.33301H3.46659C2.71985 1.33301 2.34648 1.33301 2.06126 1.47833C1.81038 1.60616 1.60641 1.81014 1.47858 2.06102C1.33325 2.34624 1.33325 2.7196 1.33325 3.46634V5.86634C1.33325 6.61308 1.33325 6.98645 1.47858 7.27166C1.60641 7.52255 1.81038 7.72652 2.06126 7.85435C2.34648 7.99967 2.71985 7.99967 3.46659 7.99967H7.33325M7.99992 4.66634H8.00325M11.3333 4.66634H11.3366M4.66659 4.66634H4.66992M12.8333 9.33301V8.16634C12.8333 7.52201 12.3109 6.99967 11.6666 6.99967C11.0223 6.99967 10.4999 7.52201 10.4999 8.16634V9.33301M8.16659 4.66634C8.16659 4.75839 8.09197 4.83301 7.99992 4.83301C7.90787 4.83301 7.83325 4.75839 7.83325 4.66634C7.83325 4.57429 7.90787 4.49967 7.99992 4.49967C8.09197 4.49967 8.16659 4.57429 8.16659 4.66634ZM11.4999 4.66634C11.4999 4.75839 11.4253 4.83301 11.3333 4.83301C11.2412 4.83301 11.1666 4.75839 11.1666 4.66634C11.1666 4.57429 11.2412 4.49967 11.3333 4.49967C11.4253 4.49967 11.4999 4.57429 11.4999 4.66634ZM4.83325 4.66634C4.83325 4.75839 4.75863 4.83301 4.66659 4.83301C4.57454 4.83301 4.49992 4.75839 4.49992 4.66634C4.49992 4.57429 4.57454 4.49967 4.66659 4.49967C4.75863 4.49967 4.83325 4.57429 4.83325 4.66634ZM10.3999 11.9997H12.9333C13.3066 11.9997 13.4933 11.9997 13.6359 11.927C13.7614 11.8631 13.8633 11.7611 13.9273 11.6357C13.9999 11.4931 13.9999 11.3064 13.9999 10.933V10.3997C13.9999 10.0263 13.9999 9.83962 13.9273 9.69701C13.8633 9.57157 13.7614 9.46959 13.6359 9.40567C13.4933 9.33301 13.3066 9.33301 12.9333 9.33301H10.3999C10.0266 9.33301 9.83987 9.33301 9.69726 9.40567C9.57182 9.46959 9.46983 9.57157 9.40591 9.69701C9.33325 9.83962 9.33325 10.0263 9.33325 10.3997V10.933C9.33325 11.3064 9.33325 11.4931 9.40591 11.6357C9.46983 11.7611 9.57182 11.8631 9.69726 11.927C9.83987 11.9997 10.0266 11.9997 10.3999 11.9997Z" stroke="#008582" stroke-linecap="round" stroke-linejoin="round"/>
</svg>
