<svg width="122" height="122" viewBox="0 0 122 122" fill="none" xmlns="http://www.w3.org/2000/svg">
<mask id="mask0_4528_111371" style="mask-type:luminance" maskUnits="userSpaceOnUse" x="0" y="0" width="122" height="122">
<path d="M122 0H0V122H122V0Z" fill="white"/>
</mask>
<g mask="url(#mask0_4528_111371)">
<path d="M61 109.393C87.9498 109.393 109.8 87.5428 109.8 60.593C109.8 33.6432 87.9498 11.793 61 11.793C34.0502 11.793 12.2 33.6432 12.2 60.593C12.2 87.5428 34.0502 109.393 61 109.393Z" fill="#ECEFF4"/>
<path d="M80.3327 25.8477H42.6998C39.1062 25.8477 36.1931 28.7608 36.1931 32.3543V82.3865C36.1931 85.9801 39.1062 88.8932 42.6998 88.8932H80.3327C83.9263 88.8932 86.8394 85.9801 86.8394 82.3865V32.3543C86.8394 28.7608 83.9263 25.8477 80.3327 25.8477Z" fill="white"/>
<path d="M59.0072 33.9805H42.6592C41.5587 33.9805 40.6665 34.8726 40.6665 35.9731C40.6665 37.0737 41.5587 37.9658 42.6592 37.9658H59.0072C60.1077 37.9658 60.9998 37.0737 60.9998 35.9731C60.9998 34.8726 60.1077 33.9805 59.0072 33.9805Z" fill="#95A7C1"/>
<path d="M79.3405 45.2852H42.6592C41.5587 45.2852 40.6665 46.1773 40.6665 47.2778C40.6665 48.3783 41.5587 49.2705 42.6592 49.2705H79.3405C80.441 49.2705 81.3332 48.3783 81.3332 47.2778C81.3332 46.1773 80.441 45.2852 79.3405 45.2852Z" fill="#BCC7D7"/>
<path d="M79.3405 56.5898H42.6592C41.5587 56.5898 40.6665 57.482 40.6665 58.5825C40.6665 59.683 41.5587 60.5752 42.6592 60.5752H79.3405C80.441 60.5752 81.3332 59.683 81.3332 58.5825C81.3332 57.482 80.441 56.5898 79.3405 56.5898Z" fill="#BCC7D7"/>
<path d="M79.3405 67.8984H42.6592C41.5587 67.8984 40.6665 68.7906 40.6665 69.8911C40.6665 70.9916 41.5587 71.8838 42.6592 71.8838H79.3405C80.441 71.8838 81.3332 70.9916 81.3332 69.8911C81.3332 68.7906 80.441 67.8984 79.3405 67.8984Z" fill="#BCC7D7"/>
<path d="M42.6592 79.2031H79.3405C80.4426 79.2031 81.3332 80.0937 81.3332 81.1958C81.3332 82.2979 80.4426 83.1885 79.3405 83.1885H42.6592C41.5571 83.1885 40.6665 82.2979 40.6665 81.1958C40.6665 80.0937 41.5571 79.2031 42.6592 79.2031Z" fill="#BCC7D7"/>
<path fill-rule="evenodd" clip-rule="evenodd" d="M22.8993 37.0758C22.8912 36.4942 22.818 35.9127 22.6756 35.323C22.1632 33.2572 19.89 31.9314 17.4662 31.6183C15.0425 31.3052 12.5252 32.0168 11.5533 33.8143C10.9962 34.8432 10.923 35.7297 11.1466 36.4739C11.3744 37.2181 11.9071 37.8322 12.635 38.312C14.6643 39.65 18.2145 39.9224 19.8371 39.3612C20.5854 39.101 21.3174 38.7919 22.0331 38.434C21.6264 40.7724 20.1055 42.9846 18.0803 44.9773C13.672 49.3124 6.83597 52.6023 3.1109 53.8142C2.91163 53.8792 2.79777 54.0988 2.86283 54.3103C2.92383 54.5177 3.13937 54.6356 3.33863 54.5706C7.1369 53.3384 14.1072 49.9752 18.6008 45.5548C20.9229 43.2693 22.578 40.6992 22.8586 37.9989C28.1046 35.0709 32.4153 29.7558 36.0997 25.2865C36.238 25.1238 36.2176 24.8717 36.059 24.7294C35.9004 24.587 35.6605 24.6033 35.5222 24.77C31.9883 29.0604 27.885 34.16 22.8993 37.0758ZM22.1348 37.4987C22.1632 36.848 22.1022 36.1852 21.9355 35.5182C21.4922 33.7289 19.467 32.6716 17.3686 32.4032C16.0836 32.2364 14.7619 32.3747 13.7249 32.8586C13.0742 33.1636 12.5374 33.6028 12.2121 34.2047C11.7892 34.9896 11.6956 35.6646 11.8705 36.234C12.0454 36.8074 12.4764 37.271 13.0417 37.641C14.892 38.861 18.125 39.1172 19.6012 38.6089C20.4715 38.308 21.3174 37.9338 22.1388 37.4987H22.1348Z" fill="#1F2835"/>
<path d="M115.9 77.2667C117.247 77.2667 118.34 76.1743 118.34 74.8267C118.34 73.4791 117.247 72.3867 115.9 72.3867C114.552 72.3867 113.46 73.4791 113.46 74.8267C113.46 76.1743 114.552 77.2667 115.9 77.2667Z" fill="#5E79A0"/>
<path fill-rule="evenodd" clip-rule="evenodd" d="M23.7411 91.6582C24.1762 91.4956 24.6357 91.28 24.9895 90.9628C25.4084 90.5887 25.5792 90.1088 25.6931 89.6046C25.8395 88.9539 25.9005 88.2626 26.0794 87.6119C26.1445 87.3679 26.2705 87.2784 26.3275 87.2378C26.4657 87.1361 26.604 87.1076 26.7341 87.1198C26.8887 87.132 27.1042 87.193 27.2425 87.4696C27.2628 87.5102 27.2872 87.5672 27.3075 87.6526C27.3197 87.7136 27.3279 87.9006 27.3441 87.9779C27.3767 88.169 27.4051 88.3602 27.4336 88.5513C27.5231 89.1898 27.5719 89.7306 27.8525 90.3162C28.2307 91.1133 28.6089 91.5972 29.1253 91.8128C29.6215 92.0202 30.2193 91.9836 30.9797 91.8168C31.0529 91.7965 31.1221 91.7843 31.1953 91.768C31.5287 91.707 31.85 91.9388 31.9151 92.2886C31.9801 92.6383 31.7687 92.9799 31.4352 93.0572C31.3661 93.0734 31.2969 93.0897 31.2319 93.1019C30.203 93.3703 29.0155 94.326 28.3242 95.1596C28.1127 95.4158 27.7996 96.1397 27.4824 96.5992C27.2465 96.9368 26.9822 97.1604 26.7626 97.2418C26.6121 97.2946 26.4901 97.2865 26.3844 97.258C26.2339 97.2174 26.1079 97.132 26.0143 96.9978C25.9615 96.9246 25.9127 96.8229 25.8923 96.6968C25.8801 96.6358 25.8801 96.4813 25.8801 96.4081C25.8151 96.1722 25.7378 95.9445 25.6768 95.7086C25.5385 95.1434 25.2701 94.7855 24.9489 94.3138C24.6479 93.8705 24.3267 93.594 23.8509 93.3703C23.7899 93.354 23.2937 93.228 23.1189 93.1548C22.8627 93.049 22.7407 92.866 22.6959 92.7684C22.6187 92.6058 22.6146 92.4594 22.6268 92.3414C22.6471 92.1625 22.7244 92.012 22.8586 91.89C22.9399 91.8128 23.066 91.7396 23.2327 91.703C23.3629 91.6745 23.7004 91.6582 23.7492 91.6582H23.7411ZM26.6569 90.7392C26.6813 90.792 26.7057 90.849 26.7301 90.9018C27.2831 92.069 27.9053 92.7196 28.6577 93.0328L28.6821 93.045C28.1778 93.4394 27.7223 93.8786 27.3726 94.3016C27.2303 94.4764 27.0391 94.8384 26.8317 95.2084C26.6447 94.57 26.3397 94.1186 25.9574 93.5533C25.6646 93.1222 25.3555 92.7969 24.9773 92.5326C25.2701 92.374 25.5507 92.1869 25.7947 91.9714C26.2014 91.6094 26.4698 91.1946 26.6528 90.7392H26.6569Z" fill="#37475D"/>
</g>
</svg>
