<svg width="261" height="50" viewBox="0 0 261 50" fill="none" xmlns="http://www.w3.org/2000/svg">
<path fill-rule="evenodd" clip-rule="evenodd" d="M46.3564 20.5234C45.2079 25.7161 39.3954 29.6667 32.3954 29.6667C24.5725 29.6667 18.2288 24.7292 18.2288 18.638C18.2288 12.5469 24.5725 7.60937 32.3954 7.60937C39.3928 7.60937 45.2053 11.5599 46.3564 16.7526H60.661L32.0491 0.291667C31.7079 0.0963542 31.2522 0 30.773 0C30.1949 0 29.5829 0.140625 29.109 0.411458L0.718347 16.7448C-0.14884 17.2422 -0.245194 18.0052 0.50741 18.4375L32.7444 36.9818C33.0855 37.1771 33.5413 37.2734 34.0204 37.2734C34.5986 37.2734 35.2105 37.1328 35.6845 36.8594L64.0751 20.526L64.0855 20.5208H46.3564V20.5234ZM32.398 13.8516C34.9371 13.8516 37.1168 15.0469 38.0621 16.7526H41.4319C40.359 13.651 36.721 11.3698 32.4006 11.3698C27.234 11.3698 23.0465 14.6302 23.0465 18.651C23.0465 22.6719 27.234 25.9323 32.4006 25.9323C36.734 25.9323 40.3798 23.638 41.4397 20.5234H38.0751C37.1376 22.2422 34.9501 23.4479 32.398 23.4479C28.9944 23.4479 26.234 21.2995 26.234 18.6484C26.234 15.9974 28.9944 13.849 32.398 13.849V13.8516Z" fill="#1D3159"/>
<path opacity="0.2" fill-rule="evenodd" clip-rule="evenodd" d="M64.286 31.56L60.0542 29.1251L35.6844 43.1433C35.2105 43.4167 34.5985 43.5574 34.0177 43.5574C33.5386 43.5574 33.0802 43.461 32.7391 43.2657L4.7391 27.1589L0.718265 29.4714C-0.148923 29.9714 -0.242672 30.7319 0.507328 31.1641L32.7443 49.7084C33.0854 49.9037 33.5438 50.0001 34.0229 50.0001C34.6011 50.0001 35.2131 49.8595 35.687 49.586L64.0776 33.2527C64.9422 32.7527 65.0386 31.9923 64.2886 31.56H64.286Z" fill="#1D3159"/>
<path opacity="0.5" fill-rule="evenodd" clip-rule="evenodd" d="M64.286 25.1876L60.0542 22.7527L35.6844 36.7709C35.2105 37.0444 34.5985 37.185 34.0204 37.185C33.5412 37.185 33.0828 37.0886 32.7443 36.8933L4.7391 20.7839L0.718265 23.0964C-0.148923 23.5964 -0.242672 24.3569 0.507328 24.7891L32.7443 43.3334C33.0854 43.5287 33.5412 43.6251 34.0204 43.6251C34.5985 43.6251 35.2105 43.4845 35.6844 43.211L64.075 26.8777C64.9422 26.3777 65.036 25.6173 64.286 25.185V25.1876Z" fill="#1D3159"/>
<path d="M88.1323 23.5522C85.1948 23.5522 83.2026 22.7397 82.1558 21.1147C81.1089 19.4897 80.5854 16.8178 80.5854 13.099C80.5854 9.38029 81.1141 6.73185 82.1714 5.15633C83.2287 3.58081 85.2157 2.79175 88.1323 2.79175C89.8745 2.79175 91.7938 3.03654 93.8875 3.52612L93.7703 6.16935C92.0073 5.85685 90.2469 5.7006 88.4839 5.7006C86.7209 5.7006 85.5282 6.22404 84.9006 7.27091C84.273 8.31779 83.9605 10.2865 83.9605 13.172C83.9605 16.0574 84.2625 18.0261 84.8719 19.073C85.4787 20.1199 86.6636 20.6433 88.424 20.6433C90.1844 20.6433 91.9657 20.4975 93.7677 20.2032L93.8563 22.9037C91.8407 23.3334 89.9318 23.5496 88.1297 23.5496L88.1323 23.5522Z" fill="#1D3159"/>
<path d="M110.786 21.0833C109.583 22.7266 107.463 23.5495 104.429 23.5495C101.395 23.5495 99.2704 22.724 98.0569 21.0677C96.8433 19.4141 96.2366 16.8151 96.2366 13.2708C96.2366 9.72656 96.8486 7.09375 98.0725 5.3724C99.2965 3.65104 101.414 2.78906 104.429 2.78906C107.445 2.78906 109.557 3.64583 110.773 5.35937C111.987 7.07292 112.593 9.71094 112.593 13.2734C112.593 16.8359 111.992 19.4401 110.789 21.0833H110.786ZM100.612 18.9687C101.276 20.125 102.549 20.7005 104.429 20.7005C106.309 20.7005 107.575 20.1328 108.231 18.9974C108.888 17.862 109.216 15.9583 109.216 13.2865C109.216 10.6146 108.877 8.67187 108.203 7.45833C107.528 6.24479 106.27 5.63802 104.429 5.63802C102.588 5.63802 101.325 6.24479 100.64 7.45833C99.9553 8.67187 99.6116 10.6042 99.6116 13.2578C99.6116 15.9115 99.9449 17.8151 100.609 18.9687H100.612Z" fill="#1D3159"/>
<path d="M119.638 16.0624V23.2265H116.377V3.1145H124.013C128.554 3.1145 130.825 5.24732 130.825 9.51554C130.825 12.3749 129.729 14.3124 127.536 15.3306L130.854 23.2291H127.27L124.364 16.065H119.638V16.0624ZM127.479 9.54419C127.479 7.13534 126.323 5.93221 124.013 5.93221H119.638V13.2447H124.073C125.247 13.2447 126.109 12.9062 126.656 12.2317C127.203 11.5572 127.479 10.6614 127.479 9.54419Z" fill="#1D3159"/>
<path d="M141.895 16.9739H137.783V23.2291H134.523V3.1145H141.893C146.453 3.1145 148.734 5.36711 148.734 9.86711C148.734 12.177 148.161 13.94 147.015 15.1536C145.869 16.3671 144.161 16.9739 141.89 16.9739H141.895ZM137.783 14.1562H141.864C144.213 14.1562 145.388 12.7265 145.388 9.86971C145.388 8.49992 145.104 7.50252 144.536 6.87492C143.968 6.24992 143.078 5.93481 141.864 5.93481H137.783V14.1562Z" fill="#1D3159"/>
<path d="M165.546 21.0833C164.343 22.7266 162.223 23.5495 159.19 23.5495C156.156 23.5495 154.031 22.724 152.817 21.0677C151.604 19.4141 150.997 16.8151 150.997 13.2708C150.997 9.72656 151.609 7.09375 152.833 5.3724C154.057 3.65104 156.177 2.78906 159.19 2.78906C162.203 2.78906 164.317 3.64583 165.533 5.35937C166.747 7.07292 167.354 9.71094 167.354 13.2734C167.354 16.8359 166.752 19.4401 165.549 21.0833H165.546ZM155.372 18.9687C156.036 20.125 157.309 20.7005 159.19 20.7005C161.07 20.7005 162.335 20.1328 162.992 18.9974C163.648 17.862 163.976 15.9583 163.976 13.2865C163.976 10.6146 163.637 8.67187 162.963 7.45833C162.288 6.24479 161.031 5.63802 159.19 5.63802C157.348 5.63802 156.085 6.24479 155.4 7.45833C154.716 8.67187 154.372 10.6042 154.372 13.2578C154.372 15.9115 154.705 17.8151 155.369 18.9687H155.372Z" fill="#1D3159"/>
<path d="M177.044 5.63794C174.557 5.63794 173.315 6.51033 173.315 8.25252C173.315 9.15356 173.609 9.79419 174.195 10.177C174.783 10.5598 176.078 11.0286 178.085 11.5859C180.091 12.1431 181.507 12.8098 182.328 13.5833C183.151 14.3567 183.562 15.5754 183.562 17.2395C183.562 19.3541 182.96 20.9348 181.757 21.9817C180.554 23.0286 178.914 23.552 176.838 23.552C175.174 23.552 173.333 23.3567 171.317 22.9635L170.26 22.7577L170.583 20.1431C173.226 20.4947 175.242 20.6718 176.632 20.6718C179.059 20.6718 180.273 19.5963 180.273 17.4426C180.273 16.6015 180 15.9791 179.45 15.578C178.901 15.177 177.669 14.7369 175.75 14.2577C173.83 13.7786 172.403 13.1171 171.463 12.276C170.523 11.4348 170.054 10.1041 170.054 8.28377C170.054 6.46346 170.645 5.08846 171.83 4.15877C173.015 3.22909 174.653 2.76294 176.75 2.76294C178.257 2.76294 180.039 2.94002 182.093 3.29159L183.122 3.46867L182.859 6.1119C180.119 5.7994 178.179 5.64315 177.044 5.64315V5.63794Z" fill="#1D3159"/>
<path d="M187.085 23.2265V3.1145H190.346V23.2265H187.085Z" fill="#1D3159"/>
<path d="M193.046 6.02075V3.1145H207.729V6.02075H202.062V23.2265H198.773V6.02075H193.046Z" fill="#1D3159"/>
<path d="M223.747 21.0833C222.544 22.7266 220.424 23.5495 217.39 23.5495C214.356 23.5495 212.231 22.724 211.018 21.0677C209.804 19.4141 209.198 16.8151 209.198 13.2708C209.198 9.72656 209.809 7.09375 211.033 5.3724C212.257 3.65104 214.377 2.78906 217.39 2.78906C220.403 2.78906 222.518 3.64583 223.734 5.35937C224.948 7.07292 225.554 9.71094 225.554 13.2734C225.554 16.8359 224.953 19.4401 223.75 21.0833H223.747ZM213.573 18.9687C214.237 20.125 215.51 20.7005 217.39 20.7005C219.27 20.7005 220.536 20.1328 221.192 18.9974C221.849 17.862 222.177 15.9583 222.177 13.2865C222.177 10.6146 221.838 8.67187 221.164 7.45833C220.489 6.24479 219.231 5.63802 217.39 5.63802C215.549 5.63802 214.286 6.24479 213.601 7.45833C212.916 8.67187 212.573 10.6042 212.573 13.2578C212.573 15.9115 212.906 17.8151 213.57 18.9687H213.573Z" fill="#1D3159"/>
<path d="M232.599 16.0624V23.2265H229.338V3.1145H236.974C241.515 3.1145 243.786 5.24732 243.786 9.51554C243.786 12.3749 242.69 14.3124 240.497 15.3306L243.815 23.2291H240.231L237.325 16.065H232.599V16.0624ZM240.44 9.54419C240.44 7.13534 239.283 5.93221 236.974 5.93221H232.599V13.2447H237.033C238.208 13.2447 239.07 12.9062 239.617 12.2317C240.164 11.5572 240.44 10.6614 240.44 9.54419Z" fill="#1D3159"/>
<path d="M254.239 23.2266H250.95V14.9454L244.638 3.11206H248.307L252.565 11.7449L256.851 3.11206H260.492L254.237 14.9454V23.2266H254.239Z" fill="#1D3159"/>
<path d="M114.979 43.4974L118.88 33.2266H120.372L124.257 43.4974H122.802L121.804 40.8906H117.445L116.447 43.4974H114.976H114.979ZM117.927 39.6406H121.325L119.63 35.0781L117.927 39.6406Z" fill="#1D3159"/>
<path d="M127.307 33.2292H128.966L131.893 37.3855L134.856 33.2292H136.523L132.586 38.7761V43.5001H131.203V38.7761L127.309 33.2292H127.307Z" fill="#1D3159"/>
<path d="M136.442 40.5651V36.5391H137.796V40.4687C137.796 41.0521 137.932 41.5052 138.2 41.8307C138.471 42.1563 138.843 42.3177 139.32 42.3177C139.578 42.3177 139.82 42.2813 140.046 42.2083C140.273 42.1354 140.481 42.0234 140.669 41.8698C140.856 41.7161 141.01 41.5052 141.122 41.237C141.234 40.9688 141.289 40.6536 141.289 40.2943V36.5391H142.643V43.4974H141.289V42.4557C141.093 42.8438 140.791 43.138 140.377 43.3411C139.963 43.5417 139.546 43.6432 139.122 43.6432C138.255 43.6432 137.588 43.375 137.125 42.8385C136.661 42.3021 136.432 41.5443 136.442 40.5651V40.5651Z" fill="#1D3159"/>
<path d="M144.906 43.4973V32.7473H146.26V37.5806C146.484 37.1978 146.815 36.9036 147.257 36.6952C147.7 36.4895 148.182 36.3853 148.705 36.3853C149.351 36.3853 149.937 36.5312 150.466 36.8228C150.994 37.1145 151.419 37.539 151.739 38.0963C152.059 38.6536 152.218 39.2916 152.218 40.0103C152.218 40.7291 152.057 41.3593 151.731 41.9218C151.406 42.4817 150.976 42.9088 150.442 43.203C149.908 43.4973 149.325 43.6431 148.687 43.6431C148.182 43.6431 147.708 43.5364 147.26 43.3228C146.812 43.1093 146.479 42.8098 146.255 42.427V43.4973H144.901H144.906ZM146.273 39.9973C146.273 40.7109 146.497 41.276 146.948 41.6926C147.395 42.1093 147.942 42.3176 148.588 42.3176C149.234 42.3176 149.757 42.0989 150.19 41.6614C150.622 41.2239 150.838 40.6692 150.838 39.9947C150.838 39.3202 150.625 38.7655 150.195 38.3437C149.765 37.9218 149.231 37.7109 148.591 37.7109C148.304 37.7109 148.026 37.7603 147.755 37.8593C147.484 37.9583 147.237 38.1015 147.015 38.289C146.794 38.4765 146.617 38.7161 146.481 39.0129C146.346 39.3098 146.278 39.6353 146.278 39.9947L146.273 39.9973Z" fill="#1D3159"/>
<path d="M154.031 34.6015C153.848 34.4348 153.757 34.2239 153.757 33.9713C153.757 33.7187 153.848 33.5077 154.031 33.3411C154.213 33.1744 154.432 33.0911 154.687 33.0911C154.942 33.0911 155.174 33.1744 155.359 33.3411C155.541 33.5077 155.635 33.7187 155.635 33.9713C155.635 34.2239 155.544 34.4322 155.359 34.6015C155.177 34.7681 154.953 34.8515 154.687 34.8515C154.421 34.8515 154.213 34.7681 154.031 34.6015ZM154.01 43.4999V36.5416H155.364V43.4999H154.01Z" fill="#1D3159"/>
<path d="M161.093 38.388C161.093 37.4271 161.322 36.5443 161.781 35.7344C162.239 34.9271 162.867 34.2865 163.666 33.8151C164.463 33.3438 165.338 33.1094 166.291 33.1094C167.067 33.1094 167.788 33.263 168.455 33.5677C169.122 33.8724 169.69 34.2969 170.156 34.8359L169.109 35.7057C168.744 35.3125 168.322 35 167.838 34.7734C167.356 34.5469 166.841 34.4349 166.291 34.4349C165.588 34.4349 164.942 34.612 164.359 34.9635C163.773 35.3177 163.315 35.7943 162.979 36.3984C162.643 37.0026 162.476 37.6641 162.476 38.3854C162.476 39.1068 162.643 39.7604 162.979 40.3646C163.315 40.9687 163.773 41.4453 164.359 41.7917C164.945 42.1406 165.588 42.3151 166.291 42.3151C166.859 42.3151 167.387 42.2005 167.877 41.9688C168.367 41.737 168.786 41.4141 169.135 41L170.182 41.8828C169.721 42.4323 169.153 42.862 168.479 43.1719C167.804 43.4818 167.075 43.638 166.288 43.638C165.575 43.638 164.898 43.5 164.255 43.224C163.611 42.9479 163.059 42.5729 162.596 42.1042C162.132 41.6328 161.768 41.0729 161.497 40.4271C161.226 39.7786 161.091 39.099 161.091 38.3854L161.093 38.388Z" fill="#1D3159"/>
<path d="M171.71 41.9036C171.377 41.3385 171.21 40.7004 171.21 39.9895C171.21 39.2786 171.377 38.6458 171.71 38.0911C172.044 37.5364 172.486 37.1145 173.039 36.8228C173.591 36.5312 174.197 36.3879 174.861 36.3879C175.526 36.3879 176.132 36.5338 176.679 36.8228C177.229 37.1145 177.669 37.5364 178.002 38.0911C178.335 38.6458 178.502 39.2786 178.502 39.9895C178.502 40.7004 178.335 41.3385 178.002 41.9036C177.669 42.4687 177.226 42.901 176.674 43.1978C176.122 43.4947 175.518 43.6431 174.859 43.6431C174.2 43.6431 173.593 43.4947 173.041 43.1978C172.489 42.901 172.044 42.4687 171.71 41.9036ZM172.562 39.9895C172.562 40.6822 172.783 41.2421 173.226 41.6718C173.669 42.1015 174.213 42.3176 174.856 42.3176C175.5 42.3176 176.036 42.1015 176.481 41.6718C176.927 41.2421 177.145 40.6796 177.145 39.9895C177.145 39.2994 176.924 38.7577 176.484 38.3385C176.044 37.9192 175.5 37.7109 174.856 37.7109C174.213 37.7109 173.669 37.9192 173.226 38.3385C172.783 38.7577 172.562 39.3072 172.562 39.9895Z" fill="#1D3159"/>
<path d="M180.299 43.4973V36.539H181.653V37.5806C181.823 37.2317 182.099 36.9556 182.484 36.7551C182.867 36.5546 183.231 36.44 183.575 36.4166C183.846 36.401 184.101 36.4166 184.338 36.4609C185.216 36.5911 185.823 37.0468 186.158 37.8228C186.653 36.8671 187.455 36.3879 188.567 36.3879C189.434 36.3879 190.101 36.6562 190.562 37.1952C191.023 37.7343 191.255 38.4921 191.255 39.4739V43.4999H189.901V39.5624C189.901 38.9843 189.757 38.5312 189.474 38.2057C189.19 37.8775 188.799 37.7135 188.299 37.7135C187.737 37.7083 187.289 37.8958 186.953 38.2786C186.617 38.6614 186.45 39.1484 186.45 39.7447V43.4999H185.096V39.5468C185.096 38.9791 184.961 38.5312 184.69 38.203C184.419 37.8749 184.052 37.7109 183.591 37.7109C183.052 37.7109 182.596 37.8801 182.218 38.2161C181.841 38.552 181.653 39.0624 181.653 39.7421V43.4973H180.299V43.4973Z" fill="#1D3159"/>
<path d="M193.429 46.8827V36.5416H194.783V37.6249C195.007 37.2421 195.343 36.94 195.791 36.7187C196.239 36.4973 196.713 36.3879 197.213 36.3879C198.184 36.3879 199.005 36.7265 199.677 37.4062C200.348 38.0859 200.684 38.9635 200.684 40.0416C200.684 40.7551 200.526 41.3879 200.21 41.9452C199.895 42.5025 199.473 42.9218 198.953 43.2109C198.432 43.4999 197.851 43.6431 197.213 43.6431C196.697 43.6431 196.221 43.5416 195.776 43.3411C195.33 43.1405 195 42.8437 194.783 42.4556V46.8801H193.429V46.8827ZM194.796 40.0546C194.796 40.7577 195.026 41.3124 195.481 41.7135C195.937 42.1171 196.468 42.3176 197.075 42.3176C197.716 42.3176 198.252 42.1093 198.684 41.6926C199.117 41.276 199.333 40.7291 199.333 40.0546C199.333 39.3801 199.117 38.8098 198.682 38.3697C198.247 37.9296 197.713 37.7109 197.078 37.7109C196.442 37.7109 195.903 37.9244 195.463 38.3489C195.02 38.7734 194.802 39.3411 194.802 40.0546H194.796Z" fill="#1D3159"/>
<path d="M202.039 40.0105C202.039 39.2917 202.2 38.6537 202.526 38.0964C202.851 37.5391 203.278 37.1147 203.812 36.823C204.346 36.5313 204.932 36.3855 205.572 36.3855C206.083 36.3855 206.562 36.4897 207.013 36.6954C207.463 36.9011 207.796 37.1954 208.015 37.5808V36.5391H209.369V43.4975H208.015V42.4272C207.791 42.81 207.455 43.1095 207.005 43.323C206.554 43.5365 206.078 43.6433 205.572 43.6433C204.593 43.6433 203.76 43.3074 203.072 42.6329C202.385 41.9584 202.041 41.086 202.041 40.0131L202.039 40.0105ZM203.421 39.9949C203.421 40.6694 203.64 41.224 204.078 41.6615C204.515 42.099 205.052 42.3178 205.69 42.3178C206.328 42.3178 206.882 42.1095 207.33 41.6928C207.778 41.2761 208.002 40.711 208.002 39.9975C208.002 39.5209 207.885 39.1069 207.653 38.7501C207.421 38.3933 207.132 38.1303 206.789 37.9636C206.445 37.797 206.08 37.7136 205.692 37.7136C205.052 37.7136 204.513 37.9246 204.078 38.3464C203.643 38.7683 203.424 39.3204 203.424 39.9975L203.421 39.9949Z" fill="#1D3159"/>
<path d="M211.625 43.4973V36.539H212.979V37.5806C213.171 37.1926 213.479 36.8958 213.895 36.6926C214.312 36.4895 214.731 36.3879 215.153 36.3879C216.015 36.3879 216.677 36.6562 217.138 37.1952C217.598 37.7343 217.83 38.4921 217.83 39.4739V43.4999H216.476V39.5624C216.476 38.9791 216.341 38.526 216.07 38.2004C215.799 37.8749 215.421 37.7135 214.942 37.7135C214.684 37.7135 214.445 37.7499 214.218 37.8254C213.992 37.901 213.786 38.0155 213.596 38.1718C213.406 38.328 213.257 38.539 213.145 38.8098C213.033 39.078 212.979 39.3905 212.979 39.7447V43.4999H211.625V43.4973Z" fill="#1D3159"/>
<path d="M219.033 36.539H220.481L222.562 41.5754L224.651 36.539H226.099L221.776 46.8801H220.356L221.82 43.2838L219.033 36.5364V36.539Z" fill="#1D3159"/>
<path d="M109.164 39.2839H93.9266C93.7986 39.2839 93.6948 39.3877 93.6948 39.5157V40.1173C93.6948 40.2453 93.7986 40.349 93.9266 40.349H109.164C109.292 40.349 109.395 40.2453 109.395 40.1173V39.5157C109.395 39.3877 109.292 39.2839 109.164 39.2839Z" fill="#B3BCCD"/>
<path d="M247.153 39.2839H231.916C231.788 39.2839 231.685 39.3877 231.685 39.5157V40.1173C231.685 40.2453 231.788 40.349 231.916 40.349H247.153C247.281 40.349 247.385 40.2453 247.385 40.1173V39.5157C247.385 39.3877 247.281 39.2839 247.153 39.2839Z" fill="#B3BCCD"/>
</svg>
