<svg width="167" height="32" viewBox="0 0 167 32" fill="none" xmlns="http://www.w3.org/2000/svg">
<path fill-rule="evenodd" clip-rule="evenodd" d="M29.6681 13.1348C28.9331 16.4581 25.2131 18.9865 20.7331 18.9865C15.7264 18.9865 11.6664 15.8265 11.6664 11.9281C11.6664 8.02979 15.7264 4.86979 20.7331 4.86979C25.2114 4.86979 28.9314 7.39812 29.6681 10.7215H38.8231L20.5114 0.186453C20.2931 0.061453 20.0014 -0.000213623 19.6947 -0.000213623C19.3247 -0.000213623 18.9331 0.0897864 18.6297 0.26312L0.459742 10.7165C-0.0952576 11.0348 -0.156924 11.5231 0.324743 11.7998L20.9564 23.6681C21.1747 23.7931 21.4664 23.8548 21.7731 23.8548C22.1431 23.8548 22.5347 23.7648 22.8381 23.5898L41.0081 13.1365L41.0147 13.1331H29.6681V13.1348ZM20.7347 8.86479C22.3597 8.86479 23.7547 9.62979 24.3597 10.7215H26.5164C25.8297 8.73645 23.5014 7.27645 20.7364 7.27645C17.4297 7.27645 14.7497 9.36312 14.7497 11.9365C14.7497 14.5098 17.4297 16.5965 20.7364 16.5965C23.5097 16.5965 25.8431 15.1281 26.5214 13.1348H24.3681C23.7681 14.2348 22.3681 15.0065 20.7347 15.0065C18.5564 15.0065 16.7897 13.6315 16.7897 11.9348C16.7897 10.2381 18.5564 8.86312 20.7347 8.86312V8.86479Z" fill="white"/>
<path opacity="0.2" fill-rule="evenodd" clip-rule="evenodd" d="M41.1429 20.1985L38.4346 18.6402L22.8379 27.6119C22.5346 27.7869 22.1429 27.8769 21.7712 27.8769C21.4646 27.8769 21.1712 27.8152 20.9529 27.6902L3.03289 17.3819L0.459553 18.8619C-0.0954471 19.1819 -0.155447 19.6685 0.324553 19.9452L20.9562 31.8135C21.1746 31.9385 21.4679 32.0002 21.7746 32.0002C22.1446 32.0002 22.5362 31.9102 22.8396 31.7352L41.0096 21.2819C41.5629 20.9619 41.6246 20.4752 41.1446 20.1985H41.1429Z" fill="white"/>
<path opacity="0.5" fill-rule="evenodd" clip-rule="evenodd" d="M41.1429 16.1201L38.4346 14.5618L22.8379 23.5335C22.5346 23.7085 22.1429 23.7985 21.7729 23.7985C21.4662 23.7985 21.1729 23.7368 20.9562 23.6118L3.03289 13.3018L0.459553 14.7818C-0.0954471 15.1018 -0.155447 15.5885 0.324553 15.8651L20.9562 27.7335C21.1746 27.8585 21.4662 27.9201 21.7729 27.9201C22.1429 27.9201 22.5346 27.8301 22.8379 27.6551L41.0079 17.2018C41.5629 16.8818 41.6229 16.3951 41.1429 16.1185V16.1201Z" fill="white"/>
<path d="M56.4047 15.0736C54.5247 15.0736 53.2497 14.5536 52.5797 13.5136C51.9097 12.4736 51.5747 10.7636 51.5747 8.38356C51.5747 6.00356 51.913 4.30856 52.5897 3.30023C53.2664 2.2919 54.538 1.7869 56.4047 1.7869C57.5197 1.7869 58.748 1.94356 60.088 2.2569L60.013 3.94856C58.8847 3.74856 57.758 3.64856 56.6297 3.64856C55.5014 3.64856 54.738 3.98356 54.3364 4.65356C53.9347 5.32356 53.7347 6.58356 53.7347 8.43023C53.7347 10.2769 53.928 11.5369 54.318 12.2069C54.7064 12.8769 55.4647 13.2119 56.5914 13.2119C57.718 13.2119 58.858 13.1186 60.0114 12.9302L60.068 14.6586C58.778 14.9336 57.5564 15.0719 56.403 15.0719L56.4047 15.0736Z" fill="white"/>
<path d="M70.903 13.4938C70.133 14.5454 68.7763 15.0721 66.8346 15.0721C64.893 15.0721 63.533 14.5438 62.7563 13.4838C61.9796 12.4254 61.5913 10.7621 61.5913 8.49376C61.5913 6.22543 61.983 4.54043 62.7663 3.43876C63.5496 2.3371 64.9046 1.78543 66.8346 1.78543C68.7646 1.78543 70.1163 2.33376 70.8946 3.43043C71.6713 4.5271 72.0596 6.21543 72.0596 8.49543C72.0596 10.7754 71.6746 12.4421 70.9046 13.4938H70.903ZM64.3913 12.1404C64.8163 12.8804 65.6313 13.2488 66.8346 13.2488C68.038 13.2488 68.848 12.8854 69.268 12.1588C69.688 11.4321 69.898 10.2138 69.898 8.50376C69.898 6.79376 69.6813 5.55043 69.2496 4.77376C68.818 3.9971 68.013 3.60876 66.8346 3.60876C65.6563 3.60876 64.848 3.9971 64.4096 4.77376C63.9713 5.55043 63.7513 6.7871 63.7513 8.48543C63.7513 10.1838 63.9646 11.4021 64.3896 12.1404H64.3913Z" fill="white"/>
<path d="M76.5681 10.2801V14.8651H74.4814V1.99344H79.3681C82.2748 1.99344 83.7281 3.35844 83.7281 6.09011C83.7281 7.92011 83.0264 9.16011 81.6231 9.81177L83.7464 14.8668H81.4531L79.5931 10.2818H76.5681V10.2801ZM81.5864 6.10844C81.5864 4.56677 80.8464 3.79677 79.3681 3.79677H76.5681V8.47677H79.4064C80.1581 8.47677 80.7098 8.26011 81.0598 7.82844C81.4098 7.39677 81.5864 6.82344 81.5864 6.10844Z" fill="white"/>
<path d="M90.8131 10.8634H88.1814V14.8668H86.0947V1.99344H90.8114C93.7297 1.99344 95.1897 3.43511 95.1897 6.31511C95.1897 7.79344 94.8231 8.92177 94.0897 9.69844C93.3564 10.4751 92.2631 10.8634 90.8097 10.8634H90.8131ZM88.1814 9.06011H90.7931C92.2964 9.06011 93.0481 8.14511 93.0481 6.31677C93.0481 5.44011 92.8664 4.80177 92.5031 4.40011C92.1397 4.00011 91.5697 3.79844 90.7931 3.79844H88.1814V9.06011Z" fill="white"/>
<path d="M105.95 13.4938C105.18 14.5454 103.823 15.0721 101.882 15.0721C99.9399 15.0721 98.5798 14.5438 97.8032 13.4838C97.0265 12.4254 96.6382 10.7621 96.6382 8.49376C96.6382 6.22543 97.0298 4.54043 97.8132 3.43876C98.5965 2.3371 99.9532 1.78543 101.882 1.78543C103.81 1.78543 105.163 2.33376 105.942 3.43043C106.718 4.5271 107.107 6.21543 107.107 8.49543C107.107 10.7754 106.722 12.4421 105.952 13.4938H105.95ZM99.4382 12.1404C99.8632 12.8804 100.678 13.2488 101.882 13.2488C103.085 13.2488 103.895 12.8854 104.315 12.1588C104.735 11.4321 104.945 10.2138 104.945 8.50376C104.945 6.79376 104.728 5.55043 104.297 4.77376C103.865 3.9971 103.06 3.60876 101.882 3.60876C100.703 3.60876 99.8949 3.9971 99.4565 4.77376C99.0182 5.55043 98.7982 6.7871 98.7982 8.48543C98.7982 10.1838 99.0115 11.4021 99.4365 12.1404H99.4382Z" fill="white"/>
<path d="M113.308 3.60883C111.717 3.60883 110.922 4.16716 110.922 5.28216C110.922 5.85883 111.11 6.26883 111.485 6.51383C111.862 6.75883 112.69 7.05883 113.975 7.4155C115.258 7.77216 116.165 8.19883 116.69 8.69383C117.217 9.18883 117.48 9.96883 117.48 11.0338C117.48 12.3872 117.095 13.3988 116.325 14.0688C115.555 14.7388 114.505 15.0738 113.177 15.0738C112.112 15.0738 110.933 14.9488 109.643 14.6972L108.967 14.5655L109.173 12.8922C110.865 13.1172 112.155 13.2305 113.045 13.2305C114.598 13.2305 115.375 12.5422 115.375 11.1638C115.375 10.6255 115.2 10.2272 114.848 9.9705C114.497 9.71383 113.708 9.43216 112.48 9.1255C111.252 8.81883 110.338 8.3955 109.737 7.85716C109.135 7.31883 108.835 6.46716 108.835 5.30216C108.835 4.13716 109.213 3.25716 109.972 2.66216C110.73 2.06716 111.778 1.76883 113.12 1.76883C114.085 1.76883 115.225 1.88216 116.54 2.10716L117.198 2.2205L117.03 3.91216C115.277 3.71216 114.035 3.61216 113.308 3.61216V3.60883Z" fill="white"/>
<path d="M119.735 14.8651V1.99344H121.822V14.8651H119.735Z" fill="white"/>
<path d="M123.55 3.85344V1.99344H132.946V3.85344H129.32V14.8651H127.215V3.85344H123.55Z" fill="white"/>
<path d="M143.198 13.4938C142.428 14.5454 141.071 15.0721 139.13 15.0721C137.188 15.0721 135.828 14.5438 135.051 13.4838C134.275 12.4254 133.886 10.7621 133.886 8.49376C133.886 6.22543 134.278 4.54043 135.061 3.43876C135.845 2.3371 137.201 1.78543 139.13 1.78543C141.058 1.78543 142.411 2.33376 143.19 3.43043C143.966 4.5271 144.355 6.21543 144.355 8.49543C144.355 10.7754 143.97 12.4421 143.2 13.4938H143.198ZM136.686 12.1404C137.111 12.8804 137.926 13.2488 139.13 13.2488C140.333 13.2488 141.143 12.8854 141.563 12.1588C141.983 11.4321 142.193 10.2138 142.193 8.50376C142.193 6.79376 141.976 5.55043 141.545 4.77376C141.113 3.9971 140.308 3.60876 139.13 3.60876C137.951 3.60876 137.143 3.9971 136.705 4.77376C136.266 5.55043 136.046 6.7871 136.046 8.48543C136.046 10.1838 136.26 11.4021 136.685 12.1404H136.686Z" fill="white"/>
<path d="M148.863 10.2801V14.8651H146.776V1.99344H151.663C154.57 1.99344 156.023 3.35844 156.023 6.09011C156.023 7.92011 155.321 9.16011 153.918 9.81177L156.041 14.8668H153.748L151.888 10.2818H148.863V10.2801ZM153.881 6.10844C153.881 4.56677 153.141 3.79677 151.663 3.79677H148.863V8.47677H151.701C152.453 8.47677 153.005 8.26011 153.355 7.82844C153.705 7.39677 153.881 6.82344 153.881 6.10844Z" fill="white"/>
<path d="M162.713 14.8653H160.608V9.56531L156.568 1.99197H158.916L161.641 7.51697L164.385 1.99197H166.715L162.711 9.56531V14.8653H162.713Z" fill="white"/>
<path d="M73.5866 27.839L76.0833 21.2657H77.0383L79.525 27.839H78.5933L77.955 26.1707H75.165L74.5266 27.839H73.585H73.5866ZM75.4733 25.3707H77.6483L76.5633 22.4507L75.4733 25.3707Z" fill="white"/>
<path d="M81.4766 21.2671H82.5382L84.4116 23.9271L86.3082 21.2671H87.3749L84.8549 24.8171V27.8405H83.9699V24.8171L81.4782 21.2671H81.4766Z" fill="white"/>
<path d="M87.323 25.962V23.3853H88.1896V25.9003C88.1896 26.2736 88.2763 26.5636 88.448 26.772C88.6213 26.9803 88.8596 27.0836 89.1646 27.0836C89.3296 27.0836 89.4846 27.0603 89.6296 27.0136C89.7746 26.967 89.908 26.8953 90.028 26.797C90.148 26.6986 90.2463 26.5636 90.318 26.392C90.3896 26.2203 90.4246 26.0186 90.4246 25.7886V23.3853H91.2913V27.8386H90.4246V27.172C90.2996 27.4203 90.1063 27.6086 89.8413 27.7386C89.5763 27.867 89.3096 27.932 89.038 27.932C88.483 27.932 88.0563 27.7603 87.7596 27.417C87.463 27.0736 87.3163 26.5886 87.323 25.962Z" fill="white"/>
<path d="M92.7397 27.839V20.959H93.6063V24.0523C93.7497 23.8073 93.9613 23.619 94.2447 23.4857C94.528 23.354 94.8363 23.2873 95.1713 23.2873C95.5847 23.2873 95.9597 23.3807 96.298 23.5673C96.6363 23.754 96.908 24.0257 97.113 24.3823C97.318 24.739 97.4197 25.1473 97.4197 25.6073C97.4197 26.0673 97.3163 26.4707 97.108 26.8307C96.8997 27.189 96.6247 27.4623 96.283 27.6507C95.9413 27.839 95.568 27.9323 95.1597 27.9323C94.8363 27.9323 94.533 27.864 94.2463 27.7273C93.9597 27.5907 93.7463 27.399 93.603 27.154V27.839H92.7363H92.7397ZM93.6147 25.599C93.6147 26.0557 93.758 26.4173 94.0463 26.684C94.333 26.9507 94.683 27.084 95.0963 27.084C95.5097 27.084 95.8447 26.944 96.1213 26.664C96.398 26.384 96.5363 26.029 96.5363 25.5973C96.5363 25.1657 96.3997 24.8107 96.1247 24.5407C95.8497 24.2707 95.508 24.1357 95.098 24.1357C94.9147 24.1357 94.7363 24.1673 94.563 24.2307C94.3897 24.294 94.2313 24.3857 94.0897 24.5057C93.948 24.6257 93.8347 24.779 93.748 24.969C93.6613 25.159 93.618 25.3673 93.618 25.5973L93.6147 25.599Z" fill="white"/>
<path d="M98.5798 22.1454C98.4631 22.0387 98.4048 21.9037 98.4048 21.7421C98.4048 21.5804 98.4631 21.4454 98.5798 21.3387C98.6964 21.2321 98.8364 21.1787 98.9998 21.1787C99.1631 21.1787 99.3114 21.2321 99.4298 21.3387C99.5464 21.4454 99.6064 21.5804 99.6064 21.7421C99.6064 21.9037 99.5481 22.0371 99.4298 22.1454C99.3131 22.2521 99.1698 22.3054 98.9998 22.3054C98.8298 22.3054 98.6964 22.2521 98.5798 22.1454ZM98.5664 27.8404V23.3871H99.4331V27.8404H98.5664Z" fill="white"/>
<path d="M103.1 24.5688C103.1 23.9538 103.246 23.3888 103.54 22.8705C103.833 22.3538 104.235 21.9438 104.746 21.6421C105.256 21.3405 105.816 21.1905 106.426 21.1905C106.923 21.1905 107.385 21.2888 107.811 21.4838C108.238 21.6788 108.601 21.9505 108.9 22.2955L108.23 22.8521C107.996 22.6005 107.726 22.4005 107.416 22.2555C107.108 22.1105 106.778 22.0388 106.426 22.0388C105.976 22.0388 105.563 22.1521 105.19 22.3771C104.815 22.6038 104.521 22.9088 104.306 23.2955C104.091 23.6821 103.985 24.1055 103.985 24.5671C103.985 25.0288 104.091 25.4471 104.306 25.8338C104.521 26.2205 104.815 26.5255 105.19 26.7471C105.565 26.9705 105.976 27.0821 106.426 27.0821C106.79 27.0821 107.128 27.0088 107.441 26.8605C107.755 26.7121 108.023 26.5055 108.246 26.2405L108.916 26.8055C108.621 27.1571 108.258 27.4321 107.826 27.6305C107.395 27.8288 106.928 27.9288 106.425 27.9288C105.968 27.9288 105.535 27.8405 105.123 27.6638C104.711 27.4871 104.358 27.2471 104.061 26.9471C103.765 26.6455 103.531 26.2871 103.358 25.8738C103.185 25.4588 103.098 25.0238 103.098 24.5671L103.1 24.5688Z" fill="white"/>
<path d="M109.895 26.8186C109.681 26.4569 109.575 26.0486 109.575 25.5936C109.575 25.1386 109.681 24.7336 109.895 24.3786C110.108 24.0236 110.391 23.7536 110.745 23.5669C111.098 23.3803 111.486 23.2886 111.911 23.2886C112.336 23.2886 112.725 23.3819 113.075 23.5669C113.426 23.7536 113.708 24.0236 113.921 24.3786C114.135 24.7336 114.241 25.1386 114.241 25.5936C114.241 26.0486 114.135 26.4569 113.921 26.8186C113.708 27.1803 113.425 27.4569 113.071 27.6469C112.718 27.8369 112.331 27.9319 111.91 27.9319C111.488 27.9319 111.1 27.8369 110.746 27.6469C110.393 27.4569 110.108 27.1803 109.895 26.8186ZM110.44 25.5936C110.44 26.0369 110.581 26.3953 110.865 26.6703C111.148 26.9453 111.496 27.0836 111.908 27.0836C112.32 27.0836 112.663 26.9453 112.948 26.6703C113.233 26.3953 113.373 26.0353 113.373 25.5936C113.373 25.1519 113.231 24.8053 112.95 24.5369C112.668 24.2686 112.32 24.1353 111.908 24.1353C111.496 24.1353 111.148 24.2686 110.865 24.5369C110.581 24.8053 110.44 25.1569 110.44 25.5936Z" fill="white"/>
<path d="M115.392 27.8386V23.3853H116.258V24.0519C116.367 23.8286 116.543 23.6519 116.79 23.5236C117.035 23.3953 117.268 23.3219 117.488 23.3069C117.662 23.2969 117.825 23.3069 117.977 23.3353C118.538 23.4186 118.927 23.7103 119.142 24.2069C119.458 23.5953 119.972 23.2886 120.683 23.2886C121.238 23.2886 121.665 23.4603 121.96 23.8053C122.255 24.1503 122.403 24.6353 122.403 25.2636V27.8403H121.537V25.3203C121.537 24.9503 121.445 24.6603 121.263 24.4519C121.082 24.2419 120.832 24.1369 120.512 24.1369C120.152 24.1336 119.865 24.2536 119.65 24.4986C119.435 24.7436 119.328 25.0553 119.328 25.4369V27.8403H118.462V25.3103C118.462 24.9469 118.375 24.6603 118.202 24.4503C118.028 24.2403 117.793 24.1353 117.498 24.1353C117.153 24.1353 116.862 24.2436 116.62 24.4586C116.378 24.6736 116.258 25.0003 116.258 25.4353V27.8386H115.392Z" fill="white"/>
<path d="M123.795 30.0053V23.3869H124.662V24.0803C124.805 23.8353 125.02 23.6419 125.307 23.5003C125.593 23.3586 125.897 23.2886 126.217 23.2886C126.838 23.2886 127.363 23.5053 127.793 23.9403C128.223 24.3753 128.438 24.9369 128.438 25.6269C128.438 26.0836 128.337 26.4886 128.135 26.8453C127.933 27.2019 127.663 27.4703 127.33 27.6553C126.997 27.8403 126.625 27.9319 126.217 27.9319C125.887 27.9319 125.582 27.8669 125.297 27.7386C125.012 27.6103 124.8 27.4203 124.662 27.1719V30.0036H123.795V30.0053ZM124.67 25.6353C124.67 26.0853 124.817 26.4403 125.108 26.6969C125.4 26.9553 125.74 27.0836 126.128 27.0836C126.538 27.0836 126.882 26.9503 127.158 26.6836C127.435 26.4169 127.573 26.0669 127.573 25.6353C127.573 25.2036 127.435 24.8386 127.157 24.5569C126.878 24.2753 126.537 24.1353 126.13 24.1353C125.723 24.1353 125.378 24.2719 125.097 24.5436C124.813 24.8153 124.673 25.1786 124.673 25.6353H124.67Z" fill="white"/>
<path d="M129.305 25.6071C129.305 25.1471 129.408 24.7388 129.616 24.3821C129.825 24.0255 130.098 23.7538 130.44 23.5671C130.781 23.3805 131.156 23.2871 131.566 23.2871C131.893 23.2871 132.2 23.3538 132.488 23.4855C132.776 23.6171 132.99 23.8055 133.13 24.0521V23.3855H133.996V27.8388H133.13V27.1538C132.986 27.3988 132.771 27.5905 132.483 27.7271C132.195 27.8638 131.89 27.9321 131.566 27.9321C130.94 27.9321 130.406 27.7171 129.966 27.2855C129.526 26.8538 129.306 26.2955 129.306 25.6088L129.305 25.6071ZM130.19 25.5971C130.19 26.0288 130.33 26.3838 130.61 26.6638C130.89 26.9438 131.233 27.0838 131.641 27.0838C132.05 27.0838 132.405 26.9505 132.691 26.6838C132.978 26.4171 133.121 26.0555 133.121 25.5988C133.121 25.2938 133.046 25.0288 132.898 24.8005C132.75 24.5721 132.565 24.4038 132.345 24.2971C132.125 24.1905 131.891 24.1371 131.643 24.1371C131.233 24.1371 130.888 24.2721 130.61 24.5421C130.331 24.8121 130.191 25.1655 130.191 25.5988L130.19 25.5971Z" fill="white"/>
<path d="M135.44 27.8386V23.3853H136.307V24.0519C136.43 23.8036 136.627 23.6136 136.893 23.4836C137.16 23.3536 137.428 23.2886 137.698 23.2886C138.25 23.2886 138.673 23.4603 138.968 23.8053C139.263 24.1503 139.412 24.6353 139.412 25.2636V27.8403H138.545V25.3203C138.545 24.9469 138.458 24.6569 138.285 24.4486C138.112 24.2403 137.87 24.1369 137.563 24.1369C137.398 24.1369 137.245 24.1603 137.1 24.2086C136.955 24.2569 136.823 24.3303 136.702 24.4303C136.58 24.5303 136.485 24.6653 136.413 24.8386C136.342 25.0103 136.307 25.2103 136.307 25.4369V27.8403H135.44V27.8386Z" fill="white"/>
<path d="M140.182 23.3855H141.108L142.44 26.6088L143.777 23.3855H144.703L141.937 30.0038H141.028L141.965 27.7022L140.182 23.3838V23.3855Z" fill="white"/>
<path d="M69.8648 25.1419H60.1132C60.0313 25.1419 59.9648 25.2083 59.9648 25.2902V25.6752C59.9648 25.7571 60.0313 25.8235 60.1132 25.8235H69.8648C69.9468 25.8235 70.0132 25.7571 70.0132 25.6752V25.2902C70.0132 25.2083 69.9468 25.1419 69.8648 25.1419Z" fill="white"/>
<path d="M158.178 25.1419H148.427C148.345 25.1419 148.278 25.2083 148.278 25.2902V25.6752C148.278 25.7571 148.345 25.8235 148.427 25.8235H158.178C158.26 25.8235 158.327 25.7571 158.327 25.6752V25.2902C158.327 25.2083 158.26 25.1419 158.178 25.1419Z" fill="white"/>
</svg>
