<svg width="1440" height="270" viewBox="0 0 1440 270" fill="none" xmlns="http://www.w3.org/2000/svg">
<g clip-path="url(#clip0_385_131665)">
<path d="M1443 -0.5H-3V270.5H1443V-0.5Z" fill="#0E1216"/>
<g opacity="0.9">
<mask id="mask0_385_131665" style="mask-type:luminance" maskUnits="userSpaceOnUse" x="-2" y="-1" width="1445" height="272">
<path d="M1443 -0.5H-2V270.5H1443V-0.5Z" fill="white"/>
</mask>
<g mask="url(#mask0_385_131665)">
<g opacity="0.9">
<g opacity="0.15">
<path d="M0.740234 79.9297H1440.26" stroke="white" stroke-width="0.25" stroke-miterlimit="10" stroke-linecap="round"/>
<path d="M0.740234 191.83H1440.26" stroke="white" stroke-width="0.25" stroke-miterlimit="10" stroke-linecap="round"/>
<path d="M0.740234 -245.971V519.839" stroke="white" stroke-width="0.25" stroke-miterlimit="10" stroke-linecap="round"/>
<path d="M111.49 -245.971V519.839" stroke="white" stroke-width="0.25" stroke-miterlimit="10" stroke-linecap="round"/>
<path d="M222.21 -245.971V519.839" stroke="white" stroke-width="0.25" stroke-miterlimit="10" stroke-linecap="round"/>
<path d="M332.94 -245.971V519.839" stroke="white" stroke-width="0.25" stroke-miterlimit="10" stroke-linecap="round"/>
<path d="M443.67 -245.971V519.839" stroke="white" stroke-width="0.25" stroke-miterlimit="10" stroke-linecap="round"/>
<path d="M554.42 -245.971V519.839" stroke="white" stroke-width="0.25" stroke-miterlimit="10" stroke-linecap="round"/>
<path d="M665.15 -245.971V519.839" stroke="white" stroke-width="0.25" stroke-miterlimit="10" stroke-linecap="round"/>
<path d="M775.87 -245.971V519.839" stroke="white" stroke-width="0.25" stroke-miterlimit="10" stroke-linecap="round"/>
<path d="M886.6 -245.971V519.839" stroke="white" stroke-width="0.25" stroke-miterlimit="10" stroke-linecap="round"/>
<path d="M997.35 -245.971V519.839" stroke="white" stroke-width="0.25" stroke-miterlimit="10" stroke-linecap="round"/>
<path d="M1108.08 -245.971V519.839" stroke="white" stroke-width="0.25" stroke-miterlimit="10" stroke-linecap="round"/>
<path d="M1218.8 -245.971V519.839" stroke="white" stroke-width="0.25" stroke-miterlimit="10" stroke-linecap="round"/>
<path d="M1329.53 -245.971V519.839" stroke="white" stroke-width="0.25" stroke-miterlimit="10" stroke-linecap="round"/>
</g>
<g opacity="0.7">
<path d="M1294.75 236.539V236.219H1295.65V235.289H1295.99V236.219H1296.9V236.539H1295.99V237.479H1295.65V236.539H1294.75ZM1299.44 234.419V234.749H1297.91L1297.82 235.779C1298.06 235.649 1298.31 235.579 1298.56 235.579C1299.23 235.579 1299.56 235.889 1299.56 236.509C1299.56 236.869 1299.47 237.139 1299.29 237.329C1299.1 237.519 1298.84 237.609 1298.51 237.609C1298.24 237.609 1297.94 237.579 1297.62 237.499L1297.46 237.469L1297.5 237.179C1297.87 237.249 1298.18 237.289 1298.43 237.289C1298.68 237.289 1298.87 237.229 1299 237.099C1299.12 236.969 1299.19 236.789 1299.19 236.559C1299.19 236.329 1299.13 236.159 1299.01 236.069C1298.89 235.969 1298.73 235.919 1298.52 235.919C1298.4 235.919 1298.28 235.939 1298.15 235.969C1298.03 235.999 1297.93 236.029 1297.87 236.069L1297.77 236.119L1297.51 236.069L1297.6 234.429H1299.44V234.419ZM1300.15 237.569V237.029H1300.55V237.569H1300.15ZM1301.21 234.499C1301.51 234.409 1301.83 234.369 1302.17 234.369C1302.51 234.369 1302.76 234.439 1302.92 234.569C1303.07 234.699 1303.15 234.909 1303.15 235.199C1303.15 235.349 1303.13 235.449 1303.08 235.519C1303.05 235.579 1303.01 235.629 1302.99 235.669C1302.97 235.709 1302.94 235.739 1302.9 235.769C1302.83 235.819 1302.77 235.859 1302.73 235.879L1302.68 235.909C1302.86 235.979 1303 236.059 1303.09 236.169C1303.18 236.269 1303.22 236.439 1303.22 236.679C1303.22 236.999 1303.14 237.239 1302.97 237.399C1302.81 237.559 1302.55 237.629 1302.2 237.629C1301.92 237.629 1301.62 237.599 1301.31 237.529L1301.16 237.499L1301.2 237.199C1301.54 237.269 1301.86 237.299 1302.16 237.299C1302.62 237.299 1302.84 237.089 1302.84 236.689C1302.84 236.309 1302.63 236.109 1302.19 236.099H1301.56V235.779H1302.19C1302.33 235.779 1302.46 235.729 1302.58 235.619C1302.71 235.509 1302.77 235.369 1302.77 235.189C1302.77 235.009 1302.72 234.889 1302.62 234.809C1302.52 234.729 1302.36 234.689 1302.12 234.689C1301.88 234.689 1301.62 234.709 1301.37 234.759L1301.24 234.779L1301.21 234.489V234.499ZM1304.28 237.589L1305.26 234.309L1305.49 234.389L1304.51 237.659L1304.28 237.589ZM1303.67 235.029C1303.67 234.589 1303.85 234.369 1304.2 234.369C1304.55 234.369 1304.73 234.589 1304.73 235.029C1304.73 235.259 1304.68 235.429 1304.59 235.539C1304.5 235.649 1304.37 235.709 1304.2 235.709C1304.03 235.709 1303.91 235.649 1303.81 235.539C1303.72 235.429 1303.67 235.259 1303.67 235.029ZM1303.97 235.029C1303.97 235.319 1304.04 235.459 1304.2 235.459C1304.36 235.459 1304.44 235.319 1304.44 235.029C1304.44 234.889 1304.42 234.779 1304.38 234.709C1304.35 234.639 1304.29 234.609 1304.2 234.609C1304.12 234.609 1304.06 234.639 1304.02 234.709C1303.98 234.779 1303.97 234.879 1303.97 235.029ZM1305.04 236.939C1305.04 236.499 1305.21 236.289 1305.56 236.289C1305.91 236.289 1306.08 236.509 1306.08 236.949C1306.08 237.169 1306.04 237.339 1305.94 237.459C1305.85 237.569 1305.72 237.629 1305.56 237.629C1305.39 237.629 1305.26 237.569 1305.17 237.459C1305.08 237.339 1305.04 237.169 1305.04 236.949V236.939ZM1305.32 236.939C1305.32 237.229 1305.4 237.369 1305.56 237.369C1305.65 237.369 1305.71 237.339 1305.74 237.259C1305.78 237.189 1305.8 237.079 1305.8 236.929C1305.8 236.779 1305.78 236.679 1305.74 236.619C1305.71 236.549 1305.65 236.519 1305.56 236.519C1305.48 236.519 1305.41 236.549 1305.38 236.619C1305.34 236.679 1305.32 236.789 1305.32 236.929V236.939Z" fill="white"/>
<path d="M1370.08 188.37V188.05H1370.99V187.12H1371.32V188.05H1372.23V188.37H1371.32V189.31H1370.99V188.37H1370.08ZM1374.8 186.59C1374.51 186.55 1374.23 186.53 1373.96 186.53C1373.69 186.53 1373.48 186.62 1373.34 186.81C1373.19 187 1373.12 187.27 1373.12 187.62L1373.24 187.57C1373.32 187.54 1373.42 187.51 1373.55 187.48C1373.68 187.45 1373.8 187.43 1373.9 187.43C1374.61 187.43 1374.97 187.76 1374.97 188.41C1374.97 188.74 1374.87 189 1374.67 189.18C1374.48 189.36 1374.21 189.45 1373.86 189.45C1373.11 189.45 1372.73 188.9 1372.73 187.81C1372.73 187.26 1372.84 186.85 1373.05 186.59C1373.27 186.33 1373.57 186.2 1373.97 186.2C1374.22 186.2 1374.47 186.22 1374.7 186.26L1374.83 186.28L1374.8 186.58V186.59ZM1373.88 187.77C1373.77 187.77 1373.65 187.79 1373.52 187.82C1373.39 187.85 1373.29 187.88 1373.22 187.91L1373.11 187.96C1373.11 188.32 1373.17 188.61 1373.29 188.83C1373.41 189.04 1373.6 189.15 1373.84 189.15C1374.08 189.15 1374.27 189.09 1374.4 188.97C1374.52 188.85 1374.58 188.67 1374.58 188.45C1374.58 188.23 1374.52 188.06 1374.4 187.95C1374.28 187.84 1374.1 187.79 1373.88 187.79V187.77ZM1375.49 189.42V188.88H1375.88V189.42H1375.49ZM1377.53 186.21C1377.8 186.21 1378.01 186.26 1378.17 186.36C1378.51 186.56 1378.69 187.07 1378.69 187.89C1378.69 188.47 1378.59 188.88 1378.4 189.11C1378.21 189.35 1377.92 189.46 1377.54 189.46C1377.16 189.46 1376.87 189.34 1376.67 189.11C1376.48 188.87 1376.39 188.46 1376.39 187.86C1376.39 187.26 1376.48 186.83 1376.67 186.58C1376.86 186.33 1377.15 186.2 1377.53 186.2V186.21ZM1377.54 186.54C1377.36 186.54 1377.21 186.58 1377.11 186.66C1376.88 186.82 1376.77 187.23 1376.77 187.9C1376.77 188.37 1376.83 188.7 1376.96 188.88C1377.08 189.06 1377.27 189.15 1377.54 189.15C1377.81 189.15 1378 189.06 1378.12 188.88C1378.25 188.7 1378.31 188.36 1378.31 187.87C1378.31 187.38 1378.25 187.03 1378.13 186.84C1378.01 186.64 1377.81 186.55 1377.54 186.55V186.54ZM1379.62 189.44L1380.6 186.17L1380.83 186.25L1379.85 189.51L1379.62 189.44ZM1379.01 186.88C1379.01 186.44 1379.18 186.22 1379.54 186.22C1379.9 186.22 1380.06 186.44 1380.06 186.88C1380.06 187.11 1380.01 187.28 1379.92 187.39C1379.83 187.5 1379.7 187.56 1379.54 187.56C1379.37 187.56 1379.24 187.5 1379.15 187.39C1379.06 187.28 1379.01 187.11 1379.01 186.88ZM1379.3 186.88C1379.3 187.17 1379.38 187.31 1379.54 187.31C1379.69 187.31 1379.77 187.17 1379.77 186.88C1379.77 186.74 1379.76 186.63 1379.72 186.56C1379.68 186.49 1379.62 186.46 1379.54 186.46C1379.45 186.46 1379.39 186.49 1379.35 186.56C1379.32 186.63 1379.3 186.73 1379.3 186.88ZM1380.37 188.79C1380.37 188.35 1380.55 188.14 1380.89 188.14C1381.23 188.14 1381.42 188.36 1381.42 188.8C1381.42 189.02 1381.37 189.19 1381.28 189.31C1381.19 189.42 1381.06 189.48 1380.89 189.48C1380.73 189.48 1380.6 189.43 1380.51 189.31C1380.42 189.19 1380.37 189.02 1380.37 188.8V188.79ZM1380.66 188.79C1380.66 189.08 1380.74 189.22 1380.89 189.22C1380.98 189.22 1381.04 189.18 1381.08 189.11C1381.11 189.04 1381.13 188.93 1381.13 188.79C1381.13 188.65 1381.11 188.54 1381.08 188.47C1381.04 188.4 1380.98 188.37 1380.9 188.37C1380.81 188.37 1380.75 188.4 1380.71 188.47C1380.68 188.53 1380.66 188.64 1380.66 188.78V188.79Z" fill="white"/>
<path d="M1257.07 180.9V180.58H1257.97V179.65H1258.31V180.58H1259.22V180.9H1258.31V181.84H1257.97V180.9H1257.07ZM1261.76 178.78V179.11H1260.23L1260.14 180.14C1260.39 180.01 1260.63 179.94 1260.88 179.94C1261.55 179.94 1261.89 180.25 1261.89 180.87C1261.89 181.23 1261.79 181.5 1261.61 181.69C1261.42 181.88 1261.17 181.97 1260.83 181.97C1260.56 181.97 1260.27 181.93 1259.94 181.87L1259.78 181.84L1259.83 181.55C1260.19 181.62 1260.5 181.66 1260.75 181.66C1261 181.66 1261.19 181.6 1261.32 181.47C1261.45 181.34 1261.51 181.16 1261.51 180.93C1261.51 180.7 1261.45 180.53 1261.33 180.44C1261.22 180.34 1261.05 180.29 1260.84 180.29C1260.73 180.29 1260.6 180.31 1260.48 180.34C1260.35 180.37 1260.26 180.4 1260.19 180.44L1260.09 180.49L1259.84 180.44L1259.92 178.8H1261.76V178.78ZM1262.48 181.93V181.39H1262.87V181.93H1262.48ZM1263.53 178.86C1263.83 178.77 1264.15 178.73 1264.49 178.73C1264.83 178.73 1265.09 178.8 1265.24 178.93C1265.39 179.06 1265.47 179.27 1265.47 179.56C1265.47 179.71 1265.45 179.81 1265.41 179.88C1265.37 179.94 1265.34 179.99 1265.31 180.03C1265.29 180.07 1265.26 180.1 1265.22 180.13C1265.15 180.18 1265.09 180.22 1265.05 180.25L1265 180.28C1265.19 180.35 1265.32 180.43 1265.41 180.54C1265.5 180.64 1265.55 180.81 1265.55 181.05C1265.55 181.37 1265.46 181.61 1265.3 181.77C1265.13 181.93 1264.88 182 1264.52 182C1264.24 182 1263.95 181.97 1263.63 181.9L1263.49 181.87L1263.52 181.57C1263.86 181.64 1264.18 181.67 1264.48 181.67C1264.94 181.67 1265.17 181.46 1265.17 181.06C1265.17 180.68 1264.95 180.48 1264.52 180.47H1263.88V180.16H1264.52C1264.65 180.16 1264.78 180.11 1264.9 180C1265.03 179.89 1265.09 179.75 1265.09 179.57C1265.09 179.39 1265.04 179.27 1264.94 179.19C1264.84 179.11 1264.68 179.07 1264.45 179.07C1264.19 179.07 1263.94 179.09 1263.69 179.14L1263.57 179.16L1263.53 178.87V178.86ZM1266.6 181.95L1267.58 178.68L1267.81 178.76L1266.83 182.02L1266.6 181.95ZM1266 179.39C1266 178.95 1266.17 178.73 1266.52 178.73C1266.87 178.73 1267.05 178.95 1267.05 179.39C1267.05 179.62 1267 179.78 1266.91 179.9C1266.82 180.01 1266.69 180.07 1266.52 180.07C1266.36 180.07 1266.23 180.01 1266.14 179.9C1266.04 179.79 1266 179.62 1266 179.39ZM1266.29 179.39C1266.29 179.68 1266.37 179.82 1266.52 179.82C1266.68 179.82 1266.76 179.68 1266.76 179.39C1266.76 179.25 1266.74 179.14 1266.7 179.07C1266.67 179 1266.61 178.97 1266.52 178.97C1266.44 178.97 1266.38 179 1266.34 179.07C1266.31 179.14 1266.29 179.24 1266.29 179.39ZM1267.36 181.3C1267.36 180.86 1267.53 180.64 1267.88 180.64C1268.23 180.64 1268.41 180.86 1268.41 181.3C1268.41 181.52 1268.36 181.69 1268.27 181.81C1268.18 181.92 1268.05 181.98 1267.88 181.98C1267.72 181.98 1267.59 181.92 1267.49 181.81C1267.4 181.69 1267.36 181.52 1267.36 181.3ZM1267.65 181.3C1267.65 181.59 1267.72 181.73 1267.88 181.73C1267.97 181.73 1268.03 181.69 1268.07 181.62C1268.1 181.55 1268.12 181.44 1268.12 181.3C1268.12 181.16 1268.1 181.05 1268.07 180.98C1268.03 180.91 1267.97 180.88 1267.89 180.88C1267.8 180.88 1267.74 180.91 1267.7 180.98C1267.66 181.04 1267.65 181.15 1267.65 181.29V181.3Z" fill="white"/>
<path d="M1332.41 154.839V154.519H1333.31V153.589H1333.64V154.519H1334.56V154.839H1333.64V155.779H1333.31V154.839H1332.41ZM1335.16 152.799C1335.46 152.709 1335.78 152.669 1336.12 152.669C1336.46 152.669 1336.71 152.739 1336.87 152.869C1337.02 152.999 1337.1 153.209 1337.1 153.499C1337.1 153.649 1337.08 153.749 1337.04 153.819C1337 153.879 1336.97 153.929 1336.94 153.969C1336.92 154.009 1336.89 154.039 1336.85 154.069C1336.78 154.119 1336.72 154.159 1336.68 154.179L1336.63 154.209C1336.81 154.279 1336.95 154.359 1337.04 154.469C1337.13 154.569 1337.17 154.739 1337.17 154.979C1337.17 155.299 1337.09 155.539 1336.93 155.699C1336.76 155.859 1336.5 155.929 1336.15 155.929C1335.87 155.929 1335.57 155.899 1335.26 155.829L1335.11 155.799L1335.15 155.499C1335.49 155.569 1335.81 155.599 1336.11 155.599C1336.57 155.599 1336.8 155.389 1336.8 154.989C1336.8 154.609 1336.58 154.409 1336.15 154.399H1335.51V154.079H1336.15C1336.28 154.079 1336.41 154.029 1336.53 153.919C1336.66 153.809 1336.72 153.669 1336.72 153.489C1336.72 153.309 1336.67 153.189 1336.57 153.109C1336.47 153.029 1336.31 152.989 1336.07 152.989C1335.83 152.989 1335.57 153.009 1335.32 153.059L1335.19 153.079L1335.16 152.789V152.799ZM1337.81 155.869V155.329H1338.2V155.869H1337.81ZM1339.7 155.589C1340.28 155.589 1340.57 155.219 1340.57 154.489C1340.26 154.609 1339.98 154.669 1339.75 154.669C1339.06 154.669 1338.72 154.349 1338.72 153.709C1338.72 153.389 1338.82 153.129 1339.02 152.949C1339.21 152.759 1339.48 152.669 1339.81 152.669C1340.2 152.669 1340.49 152.809 1340.67 153.099C1340.86 153.379 1340.96 153.799 1340.96 154.359C1340.96 154.919 1340.85 155.309 1340.64 155.549C1340.43 155.799 1340.12 155.919 1339.7 155.919C1339.47 155.919 1339.22 155.899 1338.96 155.849L1338.84 155.829L1338.87 155.529C1339.16 155.569 1339.44 155.589 1339.7 155.589ZM1339.78 154.349C1339.98 154.349 1340.2 154.309 1340.45 154.219L1340.58 154.179C1340.57 153.389 1340.31 152.999 1339.81 152.999C1339.59 152.999 1339.42 153.069 1339.29 153.199C1339.16 153.329 1339.1 153.499 1339.1 153.729C1339.1 154.149 1339.33 154.359 1339.78 154.359V154.349ZM1341.94 155.889L1342.92 152.619L1343.15 152.699L1342.17 155.959L1341.94 155.889ZM1341.33 153.329C1341.33 152.889 1341.51 152.669 1341.86 152.669C1342.21 152.669 1342.38 152.889 1342.38 153.329C1342.38 153.559 1342.34 153.729 1342.25 153.839C1342.15 153.949 1342.02 154.009 1341.86 154.009C1341.69 154.009 1341.56 153.959 1341.47 153.839C1341.38 153.729 1341.33 153.559 1341.33 153.329ZM1341.62 153.329C1341.62 153.619 1341.7 153.759 1341.86 153.759C1342.02 153.759 1342.1 153.619 1342.1 153.329C1342.1 153.189 1342.08 153.079 1342.04 153.009C1342 152.939 1341.94 152.909 1341.86 152.909C1341.78 152.909 1341.71 152.939 1341.68 153.009C1341.64 153.079 1341.62 153.179 1341.62 153.329ZM1342.69 155.239C1342.69 154.799 1342.87 154.589 1343.22 154.589C1343.57 154.589 1343.74 154.809 1343.74 155.249C1343.74 155.469 1343.7 155.639 1343.6 155.759C1343.51 155.869 1343.38 155.929 1343.22 155.929C1343.05 155.929 1342.92 155.869 1342.83 155.759C1342.74 155.649 1342.69 155.469 1342.69 155.249V155.239ZM1342.98 155.239C1342.98 155.529 1343.06 155.669 1343.22 155.669C1343.3 155.669 1343.37 155.629 1343.4 155.569C1343.44 155.499 1343.45 155.389 1343.45 155.239C1343.45 155.089 1343.44 154.989 1343.4 154.929C1343.37 154.859 1343.31 154.829 1343.22 154.829C1343.13 154.829 1343.07 154.859 1343.03 154.929C1343 154.989 1342.98 155.099 1342.98 155.239Z" fill="white"/>
<path d="M767.38 235.368V235.048H768.28V234.118H768.61V235.048H769.52V235.368H768.61V236.308H768.28V235.368H767.38ZM770.16 233.588V233.258H772.12V233.738L770.91 236.458L770.56 236.348L771.75 233.718V233.598H770.16V233.588ZM772.79 236.408V235.868H773.18V236.408H772.79ZM775.36 233.258V236.408H774.99V233.668L774.18 234.208L774.01 233.928L775.01 233.258H775.35H775.36ZM776.92 236.428L777.9 233.158L778.13 233.238L777.15 236.498L776.92 236.428ZM776.31 233.868C776.31 233.428 776.49 233.208 776.84 233.208C777.19 233.208 777.37 233.428 777.37 233.868C777.37 234.098 777.32 234.258 777.23 234.378C777.14 234.488 777.01 234.548 776.84 234.548C776.67 234.548 776.55 234.488 776.45 234.378C776.36 234.268 776.31 234.098 776.31 233.868ZM776.6 233.868C776.6 234.158 776.68 234.298 776.83 234.298C776.98 234.298 777.07 234.158 777.07 233.868C777.07 233.728 777.05 233.618 777.01 233.548C776.97 233.478 776.91 233.448 776.83 233.448C776.75 233.448 776.69 233.478 776.65 233.548C776.61 233.618 776.6 233.718 776.6 233.868ZM777.67 235.778C777.67 235.338 777.84 235.118 778.19 235.118C778.54 235.118 778.72 235.338 778.72 235.778C778.72 235.998 778.67 236.168 778.58 236.288C778.49 236.398 778.36 236.458 778.19 236.458C778.02 236.458 777.9 236.398 777.8 236.288C777.71 236.178 777.67 236.008 777.67 235.778ZM777.96 235.778C777.96 236.068 778.04 236.208 778.19 236.208C778.28 236.208 778.34 236.168 778.38 236.098C778.42 236.028 778.43 235.918 778.43 235.768C778.43 235.618 778.41 235.518 778.38 235.448C778.35 235.378 778.28 235.348 778.2 235.348C778.12 235.348 778.05 235.378 778.01 235.448C777.98 235.508 777.96 235.618 777.96 235.758V235.778Z" fill="white"/>
<path d="M843.72 210.21V209.88H844.62V208.95H844.95V209.88H845.86V210.21H844.95V211.15H844.62V210.21H843.72ZM847.99 208.09V211.24H847.62V208.5L846.81 209.03L846.64 208.75L847.64 208.08H847.99V208.09ZM850.14 208.04C850.4 208.04 850.61 208.09 850.78 208.19C851.12 208.39 851.3 208.9 851.3 209.72C851.3 210.3 851.2 210.71 851.01 210.94C850.82 211.18 850.53 211.29 850.15 211.29C849.77 211.29 849.48 211.17 849.28 210.94C849.09 210.7 848.99 210.29 848.99 209.69C848.99 209.09 849.08 208.66 849.27 208.41C849.46 208.16 849.75 208.03 850.14 208.03V208.04ZM850.14 208.37C849.96 208.37 849.81 208.41 849.71 208.48C849.48 208.64 849.37 209.05 849.37 209.72C849.37 210.19 849.43 210.52 849.56 210.7C849.68 210.88 849.88 210.97 850.14 210.97C850.4 210.97 850.6 210.88 850.72 210.7C850.84 210.52 850.91 210.18 850.91 209.69C850.91 209.2 850.85 208.85 850.73 208.66C850.61 208.47 850.42 208.37 850.14 208.37ZM852.22 211.27L853.2 208L853.43 208.08L852.45 211.34L852.22 211.27ZM851.61 208.71C851.61 208.27 851.79 208.05 852.14 208.05C852.49 208.05 852.67 208.27 852.67 208.71C852.67 208.94 852.62 209.11 852.53 209.22C852.44 209.33 852.31 209.39 852.14 209.39C851.97 209.39 851.85 209.33 851.75 209.22C851.66 209.11 851.61 208.94 851.61 208.71ZM851.9 208.71C851.9 209 851.98 209.14 852.13 209.14C852.28 209.14 852.37 209 852.37 208.71C852.37 208.57 852.35 208.46 852.31 208.39C852.27 208.32 852.21 208.29 852.13 208.29C852.05 208.29 851.99 208.32 851.95 208.39C851.92 208.46 851.9 208.56 851.9 208.71ZM852.97 210.62C852.97 210.18 853.14 209.97 853.49 209.97C853.84 209.97 854.02 210.19 854.02 210.63C854.02 210.85 853.97 211.02 853.88 211.14C853.79 211.25 853.66 211.31 853.49 211.31C853.32 211.31 853.2 211.25 853.1 211.14C853.01 211.03 852.97 210.85 852.97 210.63V210.62ZM853.26 210.62C853.26 210.91 853.34 211.05 853.49 211.05C853.58 211.05 853.64 211.02 853.68 210.95C853.71 210.88 853.73 210.77 853.73 210.63C853.73 210.49 853.71 210.38 853.68 210.31C853.64 210.24 853.58 210.21 853.5 210.21C853.42 210.21 853.35 210.24 853.31 210.31C853.27 210.37 853.26 210.48 853.26 210.62Z" fill="white"/>
<path d="M692.05 137.5V137.18H692.95V136.25H693.28V137.18H694.19V137.5H693.28V138.44H692.95V137.5H692.05ZM694.83 135.72V135.39H696.79V135.87L695.58 138.59L695.23 138.48L696.42 135.85V135.73H694.83V135.72ZM697.46 138.54V137.99H697.85V138.54H697.46ZM700.03 135.38V138.54H699.66V135.8L698.85 136.33L698.68 136.05L699.68 135.38H700.02H700.03ZM701.59 138.55L702.57 135.27L702.8 135.35L701.82 138.61L701.59 138.54V138.55ZM700.98 135.99C700.98 135.55 701.15 135.33 701.51 135.33C701.87 135.33 702.04 135.55 702.04 135.99C702.04 136.22 701.99 136.39 701.9 136.5C701.81 136.61 701.68 136.67 701.51 136.67C701.34 136.67 701.21 136.61 701.12 136.5C701.03 136.39 700.98 136.22 700.98 135.99ZM701.27 135.99C701.27 136.28 701.35 136.42 701.5 136.42C701.65 136.42 701.74 136.28 701.74 135.99C701.74 135.85 701.72 135.74 701.68 135.67C701.64 135.6 701.58 135.57 701.5 135.57C701.42 135.57 701.36 135.6 701.32 135.67C701.28 135.74 701.27 135.84 701.27 135.99ZM702.34 137.9C702.34 137.46 702.51 137.25 702.86 137.25C703.21 137.25 703.39 137.47 703.39 137.91C703.39 138.13 703.34 138.3 703.25 138.42C703.16 138.53 703.03 138.59 702.86 138.59C702.69 138.59 702.57 138.53 702.47 138.42C702.38 138.31 702.34 138.13 702.34 137.91V137.9ZM702.63 137.9C702.63 138.19 702.71 138.33 702.86 138.33C702.95 138.33 703.01 138.29 703.05 138.22C703.08 138.15 703.1 138.04 703.1 137.89C703.1 137.74 703.08 137.64 703.05 137.58C703.01 137.51 702.95 137.48 702.87 137.48C702.79 137.48 702.72 137.51 702.68 137.58C702.65 137.64 702.63 137.75 702.63 137.89V137.9Z" fill="white"/>
<path d="M1219.41 235.368V235.048H1220.32V234.118H1220.65V235.048H1221.56V235.368H1220.65V236.308H1220.32V235.368H1219.41ZM1222.19 233.588V233.258H1224.15V233.738L1222.94 236.458L1222.59 236.348L1223.78 233.718V233.598H1222.19V233.588ZM1224.82 236.408V235.868H1225.21V236.408H1224.82ZM1227.39 233.258V236.408H1227.02V233.668L1226.21 234.208L1226.04 233.928L1227.05 233.258H1227.39ZM1228.95 236.428L1229.93 233.158L1230.16 233.238L1229.18 236.498L1228.95 236.428ZM1228.34 233.868C1228.34 233.428 1228.51 233.208 1228.87 233.208C1229.23 233.208 1229.39 233.428 1229.39 233.868C1229.39 234.098 1229.34 234.258 1229.25 234.378C1229.16 234.488 1229.03 234.548 1228.87 234.548C1228.7 234.548 1228.57 234.488 1228.48 234.378C1228.39 234.268 1228.34 234.098 1228.34 233.868ZM1228.63 233.868C1228.63 234.158 1228.71 234.298 1228.87 234.298C1229.02 234.298 1229.1 234.158 1229.1 233.868C1229.1 233.728 1229.09 233.618 1229.05 233.548C1229.01 233.478 1228.95 233.448 1228.87 233.448C1228.78 233.448 1228.72 233.478 1228.68 233.548C1228.65 233.618 1228.63 233.718 1228.63 233.868ZM1229.7 235.778C1229.7 235.338 1229.88 235.118 1230.22 235.118C1230.56 235.118 1230.75 235.338 1230.75 235.778C1230.75 235.998 1230.7 236.168 1230.61 236.288C1230.52 236.398 1230.39 236.458 1230.22 236.458C1230.06 236.458 1229.93 236.398 1229.84 236.288C1229.75 236.178 1229.7 236.008 1229.7 235.778ZM1229.99 235.778C1229.99 236.068 1230.07 236.208 1230.22 236.208C1230.31 236.208 1230.37 236.168 1230.41 236.098C1230.44 236.028 1230.46 235.918 1230.46 235.768C1230.46 235.618 1230.44 235.518 1230.41 235.448C1230.37 235.378 1230.31 235.348 1230.23 235.348C1230.14 235.348 1230.08 235.378 1230.04 235.448C1230.01 235.508 1229.99 235.618 1229.99 235.758V235.778Z" fill="white"/>
<path d="M1181.74 186.679V186.359H1182.64V185.429H1182.97V186.359H1183.89V186.679H1182.97V187.619H1182.64V186.679H1181.74ZM1184.65 184.719C1184.85 184.579 1185.13 184.509 1185.48 184.509C1185.83 184.509 1186.1 184.579 1186.31 184.719C1186.52 184.859 1186.62 185.059 1186.62 185.329C1186.62 185.529 1186.58 185.679 1186.5 185.779C1186.42 185.879 1186.28 185.979 1186.09 186.059C1186.28 186.149 1186.43 186.249 1186.52 186.369C1186.62 186.489 1186.67 186.649 1186.67 186.859C1186.67 187.459 1186.27 187.759 1185.48 187.759C1184.69 187.759 1184.3 187.479 1184.3 186.909C1184.3 186.679 1184.34 186.509 1184.43 186.389C1184.52 186.269 1184.66 186.159 1184.85 186.059C1184.67 185.969 1184.55 185.879 1184.47 185.769C1184.39 185.659 1184.35 185.509 1184.35 185.319C1184.35 185.049 1184.45 184.849 1184.65 184.709V184.719ZM1184.69 186.849C1184.69 187.239 1184.96 187.429 1185.48 187.429C1186 187.429 1186.27 187.229 1186.27 186.819C1186.27 186.649 1186.23 186.529 1186.13 186.449C1186.04 186.369 1185.9 186.299 1185.72 186.239H1185.21C1185.04 186.289 1184.91 186.359 1184.82 186.449C1184.74 186.539 1184.69 186.669 1184.69 186.839V186.849ZM1186.23 185.369C1186.23 185.019 1185.98 184.839 1185.49 184.839C1185 184.839 1184.74 185.019 1184.74 185.369C1184.74 185.509 1184.78 185.619 1184.86 185.709C1184.94 185.799 1185.05 185.869 1185.21 185.929H1185.72C1185.89 185.879 1186.01 185.809 1186.1 185.719C1186.18 185.629 1186.23 185.519 1186.23 185.379V185.369ZM1187.14 187.709V187.169H1187.53V187.709H1187.14ZM1189.03 187.429C1189.61 187.429 1189.9 187.059 1189.9 186.329C1189.59 186.449 1189.31 186.509 1189.08 186.509C1188.39 186.509 1188.05 186.189 1188.05 185.549C1188.05 185.229 1188.15 184.969 1188.35 184.789C1188.54 184.599 1188.81 184.509 1189.14 184.509C1189.53 184.509 1189.82 184.649 1190 184.939C1190.19 185.219 1190.29 185.639 1190.29 186.199C1190.29 186.759 1190.18 187.149 1189.97 187.399C1189.76 187.649 1189.45 187.769 1189.03 187.769C1188.8 187.769 1188.55 187.749 1188.29 187.699L1188.17 187.679L1188.2 187.379C1188.49 187.419 1188.77 187.439 1189.03 187.439V187.429ZM1189.11 186.189C1189.31 186.189 1189.53 186.149 1189.78 186.059L1189.91 186.019C1189.9 185.229 1189.64 184.839 1189.14 184.839C1188.92 184.839 1188.75 184.909 1188.62 185.039C1188.49 185.169 1188.43 185.339 1188.43 185.569C1188.43 185.989 1188.66 186.209 1189.11 186.209V186.189ZM1191.27 187.729L1192.25 184.459L1192.48 184.539L1191.5 187.799L1191.27 187.729ZM1190.66 185.169C1190.66 184.729 1190.84 184.509 1191.19 184.509C1191.54 184.509 1191.71 184.729 1191.71 185.169C1191.71 185.399 1191.67 185.559 1191.58 185.679C1191.48 185.789 1191.35 185.849 1191.19 185.849C1191.02 185.849 1190.89 185.789 1190.8 185.679C1190.71 185.569 1190.66 185.399 1190.66 185.169ZM1190.95 185.169C1190.95 185.459 1191.03 185.599 1191.19 185.599C1191.35 185.599 1191.43 185.459 1191.43 185.169C1191.43 185.029 1191.41 184.919 1191.37 184.849C1191.33 184.779 1191.27 184.749 1191.19 184.749C1191.11 184.749 1191.04 184.779 1191.01 184.849C1190.97 184.919 1190.95 185.019 1190.95 185.169ZM1192.02 187.079C1192.02 186.639 1192.2 186.419 1192.55 186.419C1192.9 186.419 1193.07 186.639 1193.07 187.079C1193.07 187.299 1193.03 187.469 1192.93 187.589C1192.84 187.699 1192.71 187.759 1192.55 187.759C1192.38 187.759 1192.25 187.699 1192.16 187.589C1192.07 187.479 1192.02 187.309 1192.02 187.079ZM1192.31 187.079C1192.31 187.369 1192.39 187.509 1192.55 187.509C1192.63 187.509 1192.7 187.469 1192.73 187.399C1192.77 187.329 1192.78 187.219 1192.78 187.079C1192.78 186.939 1192.77 186.829 1192.73 186.759C1192.7 186.689 1192.64 186.659 1192.55 186.659C1192.46 186.659 1192.4 186.689 1192.36 186.759C1192.33 186.819 1192.31 186.929 1192.31 187.069V187.079Z" fill="white"/>
<path d="M654.39 224.279V223.949H655.29V223.019H655.63V223.949H656.54V224.279H655.63V225.219H655.29V224.279H654.39ZM659.08 222.159V222.499H657.55L657.46 223.529C657.7 223.399 657.95 223.329 658.2 223.329C658.87 223.329 659.2 223.639 659.2 224.259C659.2 224.619 659.11 224.889 658.92 225.079C658.73 225.269 658.47 225.359 658.14 225.359C657.87 225.359 657.58 225.329 657.25 225.259L657.09 225.229L657.13 224.939C657.5 225.009 657.8 225.039 658.05 225.039C658.3 225.039 658.49 224.979 658.62 224.849C658.75 224.719 658.81 224.539 658.81 224.309C658.81 224.079 658.75 223.909 658.63 223.819C658.52 223.719 658.35 223.669 658.14 223.669C658.03 223.669 657.9 223.689 657.78 223.719C657.66 223.749 657.56 223.779 657.49 223.819L657.39 223.869L657.14 223.819L657.23 222.179H659.07L659.08 222.159ZM659.79 225.309V224.769H660.18V225.309H659.79ZM662.85 225.309H660.83V224.999L661.75 224.029C661.91 223.859 662.03 223.739 662.1 223.649C662.17 223.559 662.24 223.459 662.3 223.339C662.36 223.219 662.39 223.099 662.39 222.989C662.39 222.789 662.33 222.639 662.22 222.559C662.11 222.479 661.93 222.439 661.7 222.439C661.49 222.439 661.26 222.469 661.01 222.519L660.89 222.539L660.86 222.229C661.16 222.139 661.48 222.099 661.8 222.099C662.12 222.099 662.36 222.169 662.53 222.309C662.7 222.439 662.78 222.659 662.78 222.949C662.78 223.169 662.73 223.369 662.63 223.529C662.53 223.689 662.36 223.889 662.12 224.129L661.28 224.989H662.86V225.309H662.85ZM663.92 225.329L664.9 222.059L665.13 222.139L664.15 225.399L663.92 225.329ZM663.31 222.769C663.31 222.329 663.49 222.109 663.84 222.109C664.19 222.109 664.37 222.329 664.37 222.769C664.37 222.999 664.32 223.169 664.23 223.279C664.14 223.389 664.01 223.449 663.84 223.449C663.67 223.449 663.55 223.389 663.45 223.279C663.36 223.169 663.31 222.999 663.31 222.769ZM663.6 222.769C663.6 223.059 663.68 223.199 663.83 223.199C663.98 223.199 664.07 223.059 664.07 222.769C664.07 222.629 664.05 222.519 664.01 222.449C663.98 222.379 663.91 222.349 663.83 222.349C663.75 222.349 663.69 222.379 663.65 222.449C663.61 222.519 663.6 222.619 663.6 222.769ZM664.67 224.679C664.67 224.239 664.84 224.029 665.19 224.029C665.54 224.029 665.71 224.249 665.71 224.689C665.71 224.909 665.66 225.079 665.57 225.199C665.48 225.309 665.35 225.369 665.18 225.369C665.01 225.369 664.88 225.309 664.79 225.199C664.7 225.089 664.66 224.909 664.66 224.689L664.67 224.679ZM664.96 224.679C664.96 224.969 665.04 225.109 665.2 225.109C665.29 225.109 665.35 225.079 665.39 225.009C665.42 224.939 665.44 224.829 665.44 224.689C665.44 224.549 665.42 224.439 665.39 224.369C665.36 224.299 665.3 224.269 665.21 224.269C665.12 224.269 665.06 224.299 665.02 224.369C664.98 224.429 664.97 224.539 664.97 224.679H664.96Z" fill="white"/>
<path d="M616.72 121.649V121.319H617.62V120.389H617.96V121.319H618.87V121.649H617.96V122.589H617.62V121.649H616.72ZM620.85 122.689V122.069H619.32V121.779L620.22 119.529H620.62L619.71 121.739H620.85V120.749H621.22V121.739H621.62V122.059H621.22V122.679H620.85V122.689ZM622.12 122.689V122.139H622.51V122.689H622.12ZM623.18 119.619C623.48 119.529 623.8 119.489 624.14 119.489C624.48 119.489 624.73 119.559 624.88 119.689C625.03 119.819 625.11 120.029 625.11 120.319C625.11 120.469 625.09 120.569 625.05 120.639C625.01 120.699 624.98 120.749 624.95 120.789C624.93 120.819 624.9 120.859 624.86 120.889C624.79 120.949 624.73 120.979 624.69 120.999L624.64 121.029C624.82 121.099 624.96 121.179 625.05 121.289C625.14 121.389 625.18 121.559 625.18 121.799C625.18 122.119 625.1 122.359 624.93 122.519C624.77 122.679 624.51 122.759 624.16 122.759C623.88 122.759 623.58 122.729 623.27 122.659L623.12 122.629L623.15 122.329C623.49 122.399 623.82 122.439 624.11 122.439C624.57 122.439 624.79 122.229 624.79 121.829C624.79 121.449 624.57 121.249 624.14 121.239H623.5V120.919H624.14C624.27 120.919 624.4 120.869 624.53 120.759C624.65 120.649 624.72 120.509 624.72 120.329C624.72 120.149 624.67 120.029 624.57 119.949C624.47 119.869 624.31 119.829 624.07 119.829C623.81 119.829 623.56 119.849 623.31 119.899L623.19 119.919L623.16 119.629L623.18 119.619ZM626.25 122.709L627.23 119.439L627.46 119.519L626.48 122.779L626.25 122.709ZM625.64 120.149C625.64 119.709 625.82 119.489 626.17 119.489C626.52 119.489 626.7 119.709 626.7 120.149C626.7 120.379 626.65 120.549 626.56 120.659C626.47 120.769 626.34 120.829 626.17 120.829C626 120.829 625.88 120.769 625.78 120.659C625.69 120.549 625.64 120.379 625.64 120.149ZM625.93 120.149C625.93 120.439 626.01 120.579 626.16 120.579C626.31 120.579 626.4 120.439 626.4 120.149C626.4 120.009 626.38 119.899 626.34 119.829C626.31 119.759 626.24 119.729 626.16 119.729C626.08 119.729 626.02 119.759 625.98 119.829C625.94 119.899 625.93 119.999 625.93 120.149ZM627 122.059C627 121.619 627.17 121.409 627.52 121.409C627.87 121.409 628.04 121.629 628.04 122.069C628.04 122.289 627.99 122.459 627.9 122.579C627.81 122.689 627.68 122.749 627.51 122.749C627.34 122.749 627.21 122.689 627.12 122.579C627.03 122.469 626.99 122.289 626.99 122.069L627 122.059ZM627.29 122.059C627.29 122.349 627.37 122.489 627.53 122.489C627.62 122.489 627.68 122.459 627.72 122.389C627.75 122.319 627.77 122.209 627.77 122.059C627.77 121.909 627.75 121.809 627.72 121.739C627.69 121.669 627.62 121.639 627.54 121.639C627.46 121.639 627.39 121.669 627.35 121.739C627.31 121.799 627.3 121.909 627.3 122.049L627.29 122.059Z" fill="white"/>
<path d="M918.05 100.54V100.21H918.95V99.2801H919.29V100.21H920.2V100.54H919.29V101.48H918.95V100.54H918.05ZM922.81 101.58H920.79V101.27L921.71 100.3C921.87 100.13 921.99 100.01 922.06 99.9201C922.13 99.8301 922.2 99.7301 922.26 99.6101C922.32 99.4901 922.35 99.3701 922.35 99.2601C922.35 99.0601 922.29 98.9101 922.18 98.8301C922.07 98.7501 921.89 98.7101 921.66 98.7101C921.45 98.7101 921.22 98.7401 920.97 98.7901L920.85 98.8101L920.82 98.5001C921.12 98.4101 921.44 98.3701 921.76 98.3701C922.08 98.3701 922.32 98.4401 922.49 98.5801C922.66 98.7101 922.74 98.9301 922.74 99.2201C922.74 99.4401 922.69 99.6401 922.59 99.8001C922.49 99.9701 922.32 100.16 922.08 100.4L921.24 101.25H922.82V101.57L922.81 101.58ZM923.46 101.58V101.04H923.85V101.58H923.46ZM924.51 98.5101C924.81 98.4201 925.13 98.3801 925.47 98.3801C925.81 98.3801 926.06 98.4501 926.22 98.5801C926.37 98.7101 926.45 98.9201 926.45 99.2101C926.45 99.3601 926.43 99.4601 926.39 99.5301C926.35 99.5901 926.32 99.6401 926.29 99.6801C926.27 99.7201 926.24 99.7501 926.2 99.7801C926.13 99.8301 926.07 99.8701 926.03 99.8901L925.98 99.9201C926.16 99.9901 926.3 100.07 926.39 100.18C926.48 100.28 926.52 100.45 926.52 100.69C926.52 101.01 926.44 101.25 926.27 101.41C926.11 101.57 925.85 101.65 925.5 101.65C925.22 101.65 924.92 101.62 924.61 101.55L924.46 101.52L924.49 101.22C924.83 101.29 925.16 101.32 925.46 101.32C925.91 101.32 926.14 101.11 926.14 100.71C926.14 100.33 925.92 100.13 925.49 100.12H924.85V99.8001H925.49C925.62 99.8001 925.75 99.7501 925.88 99.6401C926 99.5301 926.07 99.3901 926.07 99.2101C926.07 99.0301 926.02 98.9101 925.92 98.8301C925.82 98.7501 925.66 98.7101 925.42 98.7101C925.16 98.7101 924.91 98.7301 924.66 98.7801L924.54 98.8001L924.51 98.5101ZM927.58 101.6L928.56 98.3301L928.79 98.4101L927.81 101.67L927.58 101.6ZM926.97 99.0401C926.97 98.6001 927.14 98.3801 927.5 98.3801C927.86 98.3801 928.02 98.6001 928.02 99.0401C928.02 99.2701 927.97 99.4401 927.88 99.5501C927.79 99.6601 927.66 99.7201 927.49 99.7201C927.32 99.7201 927.19 99.6601 927.1 99.5501C927.01 99.4401 926.96 99.2701 926.96 99.0401H926.97ZM927.26 99.0401C927.26 99.3301 927.34 99.4701 927.5 99.4701C927.66 99.4701 927.74 99.3301 927.74 99.0401C927.74 98.9001 927.72 98.7901 927.68 98.7201C927.65 98.6501 927.59 98.6201 927.5 98.6201C927.41 98.6201 927.36 98.6501 927.32 98.7201C927.28 98.7901 927.27 98.8901 927.27 99.0401H927.26ZM928.33 100.95C928.33 100.51 928.5 100.3 928.85 100.3C929.2 100.3 929.38 100.52 929.38 100.96C929.38 101.18 929.33 101.35 929.24 101.47C929.15 101.58 929.02 101.64 928.85 101.64C928.68 101.64 928.55 101.58 928.46 101.47C928.37 101.35 928.33 101.18 928.33 100.96V100.95ZM928.62 100.95C928.62 101.24 928.7 101.38 928.85 101.38C928.94 101.38 929 101.35 929.04 101.28C929.08 101.21 929.09 101.1 929.09 100.95C929.09 100.8 929.07 100.7 929.04 100.63C929.01 100.56 928.95 100.53 928.86 100.53C928.77 100.53 928.71 100.56 928.67 100.63C928.63 100.69 928.62 100.8 928.62 100.94V100.95Z" fill="white"/>
<path d="M466.66 241.169V240.839H468.11V241.169H466.66ZM470.71 239.159V239.499H469.18L469.09 240.529C469.33 240.399 469.58 240.329 469.83 240.329C470.5 240.329 470.83 240.639 470.83 241.259C470.83 241.619 470.74 241.889 470.55 242.079C470.37 242.269 470.11 242.359 469.77 242.359C469.5 242.359 469.21 242.319 468.88 242.259L468.72 242.229L468.76 241.939C469.13 242.009 469.43 242.039 469.68 242.039C469.93 242.039 470.12 241.979 470.25 241.849C470.38 241.719 470.44 241.539 470.44 241.299C470.44 241.059 470.38 240.899 470.26 240.809C470.15 240.709 469.98 240.659 469.77 240.659C469.66 240.659 469.53 240.679 469.41 240.709C469.29 240.739 469.19 240.769 469.12 240.809L469.02 240.859L468.77 240.809L468.86 239.169H470.7L470.71 239.159ZM471.42 242.309V241.769H471.81V242.309H471.42ZM472.48 239.239C472.78 239.149 473.1 239.109 473.44 239.109C473.78 239.109 474.03 239.179 474.18 239.309C474.33 239.439 474.41 239.649 474.41 239.939C474.41 240.089 474.39 240.189 474.35 240.259C474.31 240.319 474.28 240.369 474.25 240.409C474.23 240.449 474.2 240.479 474.16 240.509C474.09 240.559 474.03 240.599 473.99 240.619L473.94 240.649C474.12 240.719 474.26 240.799 474.35 240.909C474.44 241.009 474.48 241.179 474.48 241.419C474.48 241.739 474.4 241.979 474.23 242.139C474.07 242.299 473.81 242.369 473.46 242.369C473.18 242.369 472.88 242.339 472.57 242.269L472.42 242.239L472.45 241.939C472.8 242.009 473.12 242.049 473.42 242.049C473.88 242.049 474.1 241.839 474.1 241.439C474.1 241.059 473.88 240.859 473.45 240.849H472.81V240.529H473.45C473.58 240.529 473.71 240.479 473.84 240.369C473.96 240.259 474.03 240.119 474.03 239.939C474.03 239.759 473.98 239.639 473.88 239.559C473.78 239.479 473.62 239.439 473.38 239.439C473.12 239.439 472.87 239.459 472.62 239.509L472.5 239.529L472.47 239.239H472.48ZM475.55 242.329L476.53 239.059L476.76 239.139L475.78 242.399L475.55 242.329ZM474.94 239.769C474.94 239.329 475.12 239.109 475.47 239.109C475.82 239.109 476 239.329 476 239.769C476 239.999 475.95 240.169 475.86 240.279C475.77 240.389 475.64 240.449 475.47 240.449C475.3 240.449 475.17 240.399 475.08 240.279C474.99 240.169 474.94 239.999 474.94 239.769ZM475.23 239.769C475.23 240.059 475.31 240.199 475.46 240.199C475.61 240.199 475.7 240.059 475.7 239.769C475.7 239.629 475.68 239.519 475.64 239.449C475.6 239.379 475.54 239.349 475.46 239.349C475.38 239.349 475.32 239.379 475.28 239.449C475.24 239.519 475.23 239.619 475.23 239.769ZM476.3 241.679C476.3 241.239 476.47 241.029 476.82 241.029C477.17 241.029 477.34 241.249 477.34 241.689C477.34 241.909 477.29 242.079 477.2 242.199C477.11 242.309 476.98 242.369 476.81 242.369C476.64 242.369 476.51 242.309 476.42 242.199C476.33 242.089 476.29 241.919 476.29 241.689L476.3 241.679ZM476.59 241.679C476.59 241.969 476.67 242.109 476.83 242.109C476.92 242.109 476.98 242.069 477.02 242.009C477.05 241.939 477.07 241.829 477.07 241.689C477.07 241.549 477.05 241.439 477.02 241.369C476.98 241.299 476.92 241.269 476.84 241.269C476.76 241.269 476.69 241.299 476.65 241.369C476.61 241.429 476.6 241.539 476.6 241.679H476.59Z" fill="white"/>
<path d="M391.33 226.2V225.87H392.78V226.2H391.33ZM393.6 224.35C393.8 224.21 394.08 224.14 394.43 224.14C394.78 224.14 395.06 224.21 395.26 224.35C395.47 224.49 395.57 224.69 395.57 224.96C395.57 225.16 395.53 225.31 395.45 225.41C395.37 225.51 395.24 225.61 395.04 225.69C395.23 225.78 395.37 225.88 395.47 226C395.57 226.11 395.61 226.28 395.61 226.49C395.61 227.09 395.21 227.39 394.43 227.39C393.65 227.39 393.25 227.11 393.25 226.54C393.25 226.31 393.29 226.14 393.38 226.02C393.47 225.9 393.61 225.79 393.8 225.69C393.63 225.6 393.5 225.51 393.42 225.4C393.34 225.29 393.3 225.14 393.3 224.95C393.3 224.68 393.4 224.48 393.6 224.34V224.35ZM393.64 226.48C393.64 226.87 393.9 227.06 394.43 227.06C394.96 227.06 395.22 226.86 395.22 226.45C395.22 226.28 395.17 226.16 395.08 226.08C394.99 226 394.85 225.93 394.66 225.87H394.16C393.98 225.92 393.85 225.99 393.77 226.08C393.68 226.17 393.64 226.3 393.64 226.47V226.48ZM395.17 225C395.17 224.65 394.92 224.47 394.43 224.47C393.94 224.47 393.69 224.65 393.69 225C393.69 225.14 393.73 225.25 393.81 225.34C393.89 225.43 394 225.5 394.16 225.55H394.66C394.83 225.5 394.96 225.43 395.04 225.34C395.13 225.25 395.17 225.14 395.17 225ZM396.09 227.34V226.79H396.48V227.34H396.09ZM397.15 224.27C397.45 224.18 397.77 224.14 398.11 224.14C398.45 224.14 398.7 224.2 398.85 224.34C399 224.47 399.08 224.68 399.08 224.97C399.08 225.12 399.06 225.22 399.02 225.29C398.98 225.35 398.95 225.4 398.92 225.44C398.9 225.47 398.87 225.51 398.83 225.54C398.76 225.59 398.7 225.63 398.66 225.66L398.61 225.69C398.79 225.76 398.93 225.84 399.02 225.95C399.11 226.05 399.15 226.22 399.15 226.46C399.15 226.78 399.07 227.02 398.9 227.18C398.74 227.34 398.48 227.41 398.13 227.41C397.85 227.41 397.55 227.38 397.24 227.31L397.09 227.28L397.12 226.98C397.46 227.05 397.79 227.08 398.09 227.08C398.55 227.08 398.77 226.87 398.77 226.47C398.77 226.09 398.55 225.89 398.12 225.88H397.48V225.56H398.12C398.25 225.56 398.38 225.51 398.51 225.4C398.63 225.29 398.7 225.15 398.7 224.97C398.7 224.79 398.65 224.67 398.55 224.59C398.45 224.51 398.29 224.47 398.05 224.47C397.8 224.47 397.54 224.49 397.3 224.54L397.18 224.56L397.15 224.27ZM400.22 227.36L401.2 224.09L401.43 224.17L400.45 227.43L400.22 227.36ZM399.61 224.8C399.61 224.36 399.79 224.14 400.14 224.14C400.49 224.14 400.67 224.36 400.67 224.8C400.67 225.03 400.62 225.2 400.53 225.31C400.44 225.42 400.31 225.48 400.14 225.48C399.97 225.48 399.84 225.42 399.75 225.31C399.66 225.2 399.61 225.03 399.61 224.8ZM399.9 224.8C399.9 225.09 399.98 225.23 400.13 225.23C400.28 225.23 400.37 225.09 400.37 224.8C400.37 224.66 400.35 224.55 400.31 224.48C400.27 224.41 400.21 224.38 400.13 224.38C400.05 224.38 399.99 224.41 399.95 224.48C399.91 224.55 399.9 224.65 399.9 224.8ZM400.97 226.71C400.97 226.27 401.14 226.06 401.49 226.06C401.84 226.06 402.02 226.28 402.02 226.72C402.02 226.94 401.97 227.11 401.88 227.23C401.79 227.34 401.66 227.4 401.49 227.4C401.32 227.4 401.2 227.34 401.1 227.23C401.01 227.11 400.97 226.94 400.97 226.72V226.71ZM401.26 226.71C401.26 227 401.34 227.15 401.49 227.15C401.58 227.15 401.64 227.11 401.68 227.04C401.72 226.97 401.73 226.86 401.73 226.72C401.73 226.58 401.71 226.47 401.68 226.4C401.64 226.33 401.58 226.3 401.5 226.3C401.42 226.3 401.35 226.33 401.31 226.4C401.27 226.46 401.26 226.57 401.26 226.71Z" fill="white"/>
<path d="M543 267.239V266.899H544.45V267.239H543ZM546.63 265.229V268.379H546.26V265.639L545.45 266.179L545.28 265.899L546.28 265.229H546.62H546.63ZM549.3 265.229V268.379H548.93V265.639L548.12 266.179L547.95 265.899L548.95 265.229H549.29H549.3ZM550.86 268.399L551.84 265.129L552.07 265.209L551.09 268.469L550.86 268.399ZM550.25 265.839C550.25 265.399 550.43 265.179 550.78 265.179C551.13 265.179 551.31 265.399 551.31 265.839C551.31 266.069 551.26 266.239 551.17 266.349C551.08 266.459 550.95 266.519 550.78 266.519C550.61 266.519 550.49 266.459 550.39 266.349C550.3 266.239 550.25 266.069 550.25 265.839ZM550.54 265.839C550.54 266.129 550.62 266.269 550.77 266.269C550.92 266.269 551.01 266.129 551.01 265.839C551.01 265.699 550.99 265.589 550.95 265.529C550.91 265.459 550.85 265.429 550.77 265.429C550.69 265.429 550.63 265.459 550.59 265.529C550.56 265.599 550.54 265.699 550.54 265.839ZM551.61 267.749C551.61 267.309 551.78 267.099 552.13 267.099C552.48 267.099 552.66 267.319 552.66 267.759C552.66 267.979 552.61 268.149 552.52 268.269C552.43 268.379 552.3 268.439 552.13 268.439C551.96 268.439 551.84 268.379 551.74 268.269C551.65 268.159 551.61 267.979 551.61 267.759V267.749ZM551.9 267.749C551.9 268.039 551.98 268.179 552.13 268.179C552.22 268.179 552.28 268.139 552.32 268.069C552.35 267.999 552.37 267.889 552.37 267.749C552.37 267.609 552.35 267.499 552.32 267.429C552.28 267.359 552.22 267.329 552.14 267.329C552.06 267.329 551.99 267.359 551.95 267.429C551.91 267.489 551.9 267.599 551.9 267.739V267.749Z" fill="white"/>
<path d="M505.32 203.059V202.719H506.77V203.059H505.32ZM508.95 201.049V204.199H508.58V201.459L507.77 201.999L507.6 201.719L508.6 201.049H508.94H508.95ZM511.1 200.999C511.36 200.999 511.57 201.049 511.74 201.149C512.08 201.349 512.26 201.859 512.26 202.679C512.26 203.259 512.16 203.669 511.97 203.899C511.78 204.139 511.49 204.249 511.11 204.249C510.73 204.249 510.44 204.129 510.24 203.899C510.05 203.659 509.95 203.249 509.95 202.649C509.95 202.049 510.04 201.619 510.23 201.369C510.42 201.119 510.71 200.989 511.1 200.989V200.999ZM511.1 201.329C510.92 201.329 510.77 201.369 510.67 201.449C510.44 201.609 510.33 202.019 510.33 202.689C510.33 203.159 510.39 203.489 510.52 203.669C510.64 203.849 510.84 203.939 511.1 203.939C511.36 203.939 511.56 203.849 511.68 203.669C511.8 203.489 511.87 203.149 511.87 202.659C511.87 202.169 511.81 201.819 511.69 201.629C511.57 201.439 511.38 201.339 511.1 201.339V201.329ZM513.18 204.229L514.16 200.959L514.39 201.039L513.41 204.299L513.18 204.229ZM512.57 201.669C512.57 201.229 512.75 201.009 513.1 201.009C513.45 201.009 513.63 201.229 513.63 201.669C513.63 201.899 513.58 202.059 513.49 202.179C513.4 202.289 513.27 202.349 513.1 202.349C512.93 202.349 512.81 202.289 512.71 202.179C512.62 202.069 512.57 201.899 512.57 201.669ZM512.86 201.669C512.86 201.959 512.94 202.099 513.09 202.099C513.24 202.099 513.33 201.959 513.33 201.669C513.33 201.529 513.31 201.419 513.27 201.349C513.23 201.279 513.17 201.249 513.09 201.249C513.01 201.249 512.95 201.279 512.91 201.349C512.87 201.419 512.86 201.519 512.86 201.669ZM513.93 203.579C513.93 203.139 514.1 202.929 514.45 202.929C514.8 202.929 514.98 203.149 514.98 203.589C514.98 203.809 514.93 203.979 514.84 204.099C514.75 204.209 514.62 204.269 514.45 204.269C514.28 204.269 514.16 204.209 514.06 204.099C513.97 203.989 513.93 203.819 513.93 203.589V203.579ZM514.22 203.579C514.22 203.869 514.3 204.009 514.45 204.009C514.54 204.009 514.6 203.969 514.64 203.899C514.67 203.829 514.69 203.719 514.69 203.579C514.69 203.439 514.67 203.329 514.64 203.259C514.6 203.189 514.54 203.159 514.46 203.159C514.38 203.159 514.31 203.189 514.27 203.259C514.23 203.319 514.22 203.429 514.22 203.569V203.579Z" fill="white"/>
<path d="M956.35 226.2V225.87H957.8V226.2H956.35ZM958.62 224.35C958.82 224.21 959.1 224.14 959.45 224.14C959.8 224.14 960.08 224.21 960.28 224.35C960.49 224.49 960.59 224.69 960.59 224.96C960.59 225.16 960.55 225.31 960.47 225.41C960.39 225.51 960.26 225.61 960.06 225.69C960.25 225.78 960.4 225.88 960.49 226C960.59 226.11 960.63 226.28 960.63 226.49C960.63 227.09 960.23 227.39 959.44 227.39C958.65 227.39 958.26 227.11 958.26 226.54C958.26 226.31 958.3 226.14 958.39 226.02C958.48 225.9 958.62 225.79 958.8 225.69C958.63 225.6 958.5 225.51 958.42 225.4C958.34 225.29 958.31 225.14 958.31 224.95C958.31 224.68 958.41 224.48 958.61 224.34L958.62 224.35ZM958.66 226.48C958.66 226.87 958.92 227.06 959.45 227.06C959.98 227.06 960.24 226.86 960.24 226.45C960.24 226.28 960.19 226.16 960.1 226.08C960.01 226 959.87 225.93 959.68 225.87H959.18C959 225.92 958.87 225.99 958.79 226.08C958.7 226.17 958.66 226.3 958.66 226.47V226.48ZM960.2 225C960.2 224.65 959.95 224.47 959.46 224.47C958.97 224.47 958.72 224.65 958.72 225C958.72 225.14 958.76 225.25 958.83 225.34C958.91 225.43 959.02 225.5 959.18 225.55H959.68C959.85 225.5 959.98 225.43 960.06 225.34C960.15 225.25 960.19 225.14 960.19 225H960.2ZM961.12 227.34V226.79H961.51V227.34H961.12ZM962.17 224.27C962.47 224.18 962.79 224.14 963.13 224.14C963.47 224.14 963.72 224.2 963.88 224.34C964.03 224.47 964.11 224.68 964.11 224.97C964.11 225.12 964.09 225.22 964.05 225.29C964.01 225.35 963.98 225.4 963.95 225.44C963.93 225.47 963.9 225.51 963.86 225.54C963.79 225.59 963.74 225.63 963.69 225.66L963.64 225.69C963.82 225.76 963.96 225.84 964.05 225.95C964.14 226.05 964.18 226.22 964.18 226.46C964.18 226.78 964.1 227.02 963.93 227.18C963.77 227.34 963.51 227.41 963.16 227.41C962.88 227.41 962.58 227.38 962.27 227.31L962.12 227.28L962.15 226.98C962.49 227.05 962.82 227.08 963.12 227.08C963.58 227.08 963.8 226.87 963.8 226.47C963.8 226.09 963.58 225.89 963.15 225.88H962.51V225.56H963.15C963.28 225.56 963.41 225.51 963.54 225.4C963.66 225.29 963.73 225.15 963.73 224.97C963.73 224.79 963.68 224.67 963.58 224.59C963.48 224.51 963.32 224.47 963.08 224.47C962.82 224.47 962.57 224.49 962.32 224.54L962.2 224.56L962.17 224.27ZM965.24 227.36L966.22 224.09L966.45 224.17L965.47 227.43L965.24 227.36ZM964.63 224.8C964.63 224.36 964.8 224.14 965.16 224.14C965.52 224.14 965.69 224.36 965.69 224.8C965.69 225.03 965.64 225.2 965.55 225.31C965.46 225.42 965.33 225.48 965.16 225.48C964.99 225.48 964.87 225.42 964.77 225.31C964.68 225.2 964.63 225.03 964.63 224.8ZM964.92 224.8C964.92 225.09 965 225.23 965.15 225.23C965.3 225.23 965.39 225.09 965.39 224.8C965.39 224.66 965.37 224.55 965.33 224.48C965.29 224.41 965.23 224.38 965.15 224.38C965.07 224.38 965.01 224.41 964.97 224.48C964.94 224.55 964.92 224.65 964.92 224.8ZM965.99 226.71C965.99 226.27 966.16 226.06 966.51 226.06C966.86 226.06 967.04 226.28 967.04 226.72C967.04 226.94 966.99 227.11 966.9 227.23C966.81 227.34 966.68 227.4 966.51 227.4C966.34 227.4 966.22 227.34 966.12 227.23C966.03 227.11 965.99 226.94 965.99 226.72V226.71ZM966.28 226.71C966.28 227 966.36 227.15 966.51 227.15C966.6 227.15 966.66 227.11 966.7 227.04C966.73 226.97 966.75 226.86 966.75 226.72C966.75 226.58 966.73 226.47 966.7 226.4C966.66 226.33 966.6 226.3 966.52 226.3C966.44 226.3 966.37 226.33 966.33 226.4C966.3 226.46 966.28 226.57 966.28 226.71Z" fill="white"/>
<path d="M1070.34 203.059V202.719H1071.79V203.059H1070.34ZM1073.97 201.049V204.199H1073.6V201.459L1072.79 201.999L1072.62 201.719L1073.63 201.049H1073.97ZM1076.12 200.999C1076.38 200.999 1076.59 201.049 1076.76 201.149C1077.1 201.349 1077.27 201.859 1077.27 202.679C1077.27 203.259 1077.18 203.669 1076.99 203.899C1076.79 204.139 1076.51 204.249 1076.12 204.249C1075.73 204.249 1075.45 204.129 1075.26 203.899C1075.07 203.659 1074.97 203.249 1074.97 202.649C1074.97 202.049 1075.07 201.619 1075.25 201.369C1075.45 201.119 1075.73 200.989 1076.12 200.989V200.999ZM1076.12 201.329C1075.94 201.329 1075.8 201.369 1075.69 201.449C1075.47 201.609 1075.36 202.019 1075.36 202.689C1075.36 203.159 1075.42 203.489 1075.54 203.669C1075.67 203.849 1075.86 203.939 1076.12 203.939C1076.38 203.939 1076.58 203.849 1076.71 203.669C1076.83 203.489 1076.89 203.149 1076.89 202.659C1076.89 202.169 1076.83 201.819 1076.71 201.629C1076.59 201.439 1076.4 201.339 1076.12 201.339V201.329ZM1078.2 204.229L1079.18 200.959L1079.41 201.039L1078.43 204.299L1078.2 204.229ZM1077.59 201.669C1077.59 201.229 1077.77 201.009 1078.12 201.009C1078.47 201.009 1078.65 201.229 1078.65 201.669C1078.65 201.899 1078.6 202.059 1078.51 202.179C1078.42 202.289 1078.29 202.349 1078.12 202.349C1077.95 202.349 1077.83 202.289 1077.73 202.179C1077.64 202.069 1077.59 201.899 1077.59 201.669ZM1077.89 201.669C1077.89 201.959 1077.96 202.099 1078.12 202.099C1078.28 202.099 1078.36 201.959 1078.36 201.669C1078.36 201.529 1078.34 201.419 1078.3 201.349C1078.27 201.279 1078.21 201.249 1078.12 201.249C1078.04 201.249 1077.98 201.279 1077.94 201.349C1077.9 201.419 1077.89 201.519 1077.89 201.669ZM1078.96 203.579C1078.96 203.139 1079.13 202.929 1079.48 202.929C1079.83 202.929 1080 203.149 1080 203.589C1080 203.809 1079.96 203.979 1079.87 204.099C1079.77 204.209 1079.64 204.269 1079.48 204.269C1079.31 204.269 1079.18 204.209 1079.09 204.099C1079 203.989 1078.96 203.819 1078.96 203.589V203.579ZM1079.24 203.579C1079.24 203.869 1079.32 204.009 1079.48 204.009C1079.57 204.009 1079.63 203.969 1079.66 203.899C1079.7 203.829 1079.72 203.719 1079.72 203.579C1079.72 203.439 1079.7 203.329 1079.66 203.259C1079.63 203.189 1079.57 203.159 1079.48 203.159C1079.4 203.159 1079.33 203.189 1079.3 203.259C1079.26 203.319 1079.24 203.429 1079.24 203.569V203.579Z" fill="white"/>
<path d="M1026.84 79.2191V78.6791H1029.19V79.2191H1026.84ZM1032.72 75.9591V81.0791H1032.13V76.6291L1030.81 77.4991L1030.54 77.0491L1032.17 75.9591H1032.72ZM1036.21 75.8691C1036.63 75.8691 1036.98 75.9491 1037.24 76.1091C1037.8 76.4391 1038.08 77.2691 1038.08 78.5891C1038.08 79.5291 1037.92 80.1891 1037.61 80.5691C1037.3 80.9491 1036.84 81.1391 1036.22 81.1391C1035.6 81.1391 1035.13 80.9491 1034.81 80.5691C1034.5 80.1891 1034.35 79.5091 1034.35 78.5391C1034.35 77.5691 1034.5 76.8691 1034.81 76.4691C1035.12 76.0591 1035.58 75.8591 1036.21 75.8591V75.8691ZM1036.22 76.3991C1035.92 76.3991 1035.69 76.4591 1035.52 76.5891C1035.15 76.8391 1034.97 77.5091 1034.97 78.5991C1034.97 79.3591 1035.07 79.8891 1035.27 80.1891C1035.47 80.4791 1035.79 80.6191 1036.22 80.6191C1036.65 80.6191 1036.96 80.4691 1037.16 80.1791C1037.36 79.8891 1037.46 79.3391 1037.46 78.5391C1037.46 77.7391 1037.37 77.1791 1037.17 76.8691C1036.98 76.5491 1036.66 76.3991 1036.22 76.3991ZM1039.58 81.0991L1041.17 75.7891L1041.55 75.9091L1039.96 81.1991L1039.58 81.0891V81.0991ZM1038.6 76.9491C1038.6 76.2391 1038.88 75.8791 1039.45 75.8791C1040.02 75.8791 1040.31 76.2391 1040.31 76.9491C1040.31 77.3191 1040.23 77.5891 1040.08 77.7691C1039.93 77.9491 1039.72 78.0391 1039.45 78.0391C1039.18 78.0391 1038.97 77.9491 1038.83 77.7691C1038.68 77.5891 1038.6 77.3191 1038.6 76.9491ZM1039.07 76.9491C1039.07 77.4091 1039.2 77.6491 1039.45 77.6491C1039.7 77.6491 1039.84 77.4191 1039.84 76.9491C1039.84 76.7191 1039.81 76.5491 1039.75 76.4391C1039.69 76.3291 1039.59 76.2791 1039.45 76.2791C1039.32 76.2791 1039.22 76.3291 1039.16 76.4391C1039.1 76.5491 1039.07 76.7191 1039.07 76.9491ZM1040.81 80.0491C1040.81 79.3391 1041.09 78.9891 1041.65 78.9891C1042.21 78.9891 1042.51 79.3491 1042.51 80.0591C1042.51 80.4191 1042.43 80.6991 1042.28 80.8791C1042.13 81.0591 1041.92 81.1491 1041.65 81.1491C1041.38 81.1491 1041.18 81.0591 1041.03 80.8791C1040.88 80.6891 1040.81 80.4191 1040.81 80.0491ZM1041.27 80.0491C1041.27 80.5191 1041.4 80.7591 1041.65 80.7591C1041.8 80.7591 1041.9 80.6991 1041.96 80.5891C1042.01 80.4791 1042.04 80.2991 1042.04 80.0591C1042.04 79.8191 1042.01 79.6491 1041.96 79.5491C1041.9 79.4391 1041.8 79.3891 1041.66 79.3891C1041.52 79.3891 1041.42 79.4391 1041.36 79.5491C1041.3 79.6491 1041.27 79.8191 1041.27 80.0491Z" fill="white"/>
<path d="M86.3301 105.709V105.169H88.6801V105.709H86.3301ZM92.2201 102.459V107.569H91.6201V103.119L90.3001 103.989L90.0301 103.539L91.6601 102.459H92.2201ZM95.7001 102.379C96.1201 102.379 96.4701 102.459 96.7301 102.619C97.2901 102.949 97.5701 103.779 97.5701 105.099C97.5701 106.029 97.4201 106.699 97.1101 107.079C96.8001 107.459 96.3301 107.649 95.7101 107.649C95.0901 107.649 94.6201 107.459 94.3101 107.079C94.0001 106.699 93.8501 106.019 93.8501 105.049C93.8501 104.079 94.0001 103.379 94.3101 102.979C94.6201 102.569 95.0901 102.369 95.7101 102.369L95.7001 102.379ZM95.7001 102.909C95.4101 102.909 95.1701 102.969 95.0001 103.099C94.6301 103.349 94.4501 104.019 94.4501 105.109C94.4501 105.869 94.5501 106.399 94.7501 106.699C94.9501 106.989 95.2701 107.129 95.7001 107.129C96.1301 107.129 96.4401 106.979 96.6501 106.689C96.8501 106.399 96.9501 105.849 96.9501 105.049C96.9501 104.249 96.8501 103.689 96.6601 103.379C96.4701 103.069 96.1501 102.909 95.7101 102.909H95.7001ZM99.0701 107.609L100.66 102.299L101.03 102.419L99.4401 107.709L99.0701 107.599V107.609ZM98.0901 103.459C98.0901 102.749 98.3701 102.389 98.9401 102.389C99.5101 102.389 99.7901 102.749 99.7901 103.459C99.7901 103.829 99.7101 104.099 99.5601 104.279C99.4101 104.459 99.2001 104.549 98.9301 104.549C98.6601 104.549 98.4501 104.459 98.3001 104.279C98.1501 104.099 98.0801 103.829 98.0801 103.459H98.0901ZM98.5601 103.459C98.5601 103.929 98.6901 104.159 98.9401 104.159C99.1901 104.159 99.3301 103.929 99.3301 103.459C99.3301 103.229 99.3001 103.059 99.2401 102.949C99.1801 102.839 99.0901 102.789 98.9501 102.789C98.8101 102.789 98.7201 102.839 98.6601 102.949C98.6001 103.059 98.5701 103.229 98.5701 103.459H98.5601ZM100.3 106.559C100.3 105.849 100.58 105.499 101.15 105.499C101.72 105.499 102 105.859 102 106.569C102 106.929 101.93 107.209 101.78 107.389C101.63 107.569 101.42 107.659 101.15 107.659C100.88 107.659 100.67 107.569 100.52 107.389C100.38 107.199 100.3 106.929 100.3 106.559ZM100.76 106.559C100.76 107.029 100.89 107.269 101.14 107.269C101.28 107.269 101.39 107.209 101.44 107.099C101.5 106.989 101.53 106.809 101.53 106.569C101.53 106.329 101.5 106.159 101.44 106.059C101.38 105.949 101.29 105.899 101.15 105.899C101.01 105.899 100.91 105.959 100.85 106.059C100.79 106.159 100.76 106.329 100.76 106.559Z" fill="white"/>
<path d="M315.99 164.61V164.28H317.44V164.61H315.99ZM318.26 162.76C318.46 162.62 318.74 162.55 319.09 162.55C319.44 162.55 319.72 162.62 319.92 162.76C320.13 162.9 320.23 163.1 320.23 163.37C320.23 163.57 320.19 163.72 320.11 163.82C320.03 163.92 319.9 164.02 319.7 164.1C319.89 164.19 320.04 164.29 320.13 164.41C320.23 164.53 320.27 164.69 320.27 164.9C320.27 165.5 319.88 165.8 319.08 165.8C318.28 165.8 317.9 165.52 317.9 164.95C317.9 164.72 317.94 164.55 318.03 164.43C318.12 164.31 318.26 164.2 318.45 164.1C318.28 164.01 318.15 163.92 318.07 163.81C317.99 163.7 317.96 163.55 317.96 163.36C317.96 163.09 318.06 162.89 318.26 162.75V162.76ZM318.3 164.89C318.3 165.27 318.56 165.47 319.09 165.47C319.62 165.47 319.88 165.27 319.88 164.86C319.88 164.69 319.83 164.57 319.74 164.49C319.65 164.41 319.51 164.34 319.32 164.28H318.82C318.64 164.33 318.51 164.4 318.43 164.5C318.34 164.59 318.3 164.72 318.3 164.89ZM319.83 163.41C319.83 163.06 319.58 162.88 319.09 162.88C318.6 162.88 318.35 163.06 318.35 163.41C318.35 163.55 318.39 163.66 318.46 163.75C318.54 163.84 318.65 163.91 318.81 163.97H319.31C319.48 163.91 319.61 163.85 319.69 163.76C319.78 163.67 319.82 163.56 319.82 163.42L319.83 163.41ZM320.75 165.75V165.21H321.14V165.75H320.75ZM322.64 165.47C323.22 165.47 323.51 165.1 323.51 164.37C323.19 164.49 322.92 164.55 322.69 164.55C322 164.55 321.66 164.23 321.66 163.59C321.66 163.27 321.76 163.01 321.96 162.83C322.16 162.64 322.42 162.55 322.76 162.55C323.15 162.55 323.43 162.69 323.62 162.98C323.81 163.26 323.9 163.68 323.9 164.24C323.9 164.8 323.79 165.19 323.58 165.44C323.37 165.68 323.06 165.81 322.65 165.81C322.41 165.81 322.16 165.79 321.91 165.74L321.79 165.72L321.82 165.42C322.11 165.46 322.38 165.48 322.65 165.48L322.64 165.47ZM322.72 164.23C322.92 164.23 323.14 164.19 323.39 164.1L323.51 164.06C323.51 163.27 323.25 162.87 322.75 162.87C322.53 162.87 322.35 162.94 322.22 163.07C322.1 163.2 322.03 163.37 322.03 163.6C322.03 164.02 322.26 164.24 322.71 164.24L322.72 164.23ZM324.88 165.77L325.86 162.5L326.09 162.58L325.11 165.84L324.88 165.77ZM324.27 163.21C324.27 162.77 324.44 162.55 324.79 162.55C325.14 162.55 325.32 162.77 325.32 163.21C325.32 163.44 325.27 163.61 325.18 163.72C325.09 163.83 324.96 163.89 324.79 163.89C324.62 163.89 324.5 163.83 324.4 163.72C324.31 163.61 324.26 163.44 324.26 163.21H324.27ZM324.56 163.21C324.56 163.5 324.64 163.64 324.79 163.64C324.94 163.64 325.03 163.5 325.03 163.21C325.03 163.07 325.01 162.96 324.97 162.89C324.93 162.82 324.87 162.79 324.79 162.79C324.71 162.79 324.65 162.82 324.61 162.89C324.57 162.96 324.56 163.06 324.56 163.21ZM325.63 165.12C325.63 164.68 325.8 164.47 326.15 164.47C326.5 164.47 326.68 164.69 326.68 165.13C326.68 165.35 326.63 165.52 326.54 165.64C326.45 165.75 326.32 165.81 326.15 165.81C325.98 165.81 325.86 165.75 325.76 165.64C325.67 165.52 325.63 165.35 325.63 165.13V165.12ZM325.92 165.12C325.92 165.41 326 165.55 326.15 165.55C326.24 165.55 326.3 165.51 326.34 165.45C326.38 165.38 326.39 165.27 326.39 165.13C326.39 164.99 326.37 164.88 326.34 164.81C326.3 164.74 326.24 164.71 326.16 164.71C326.08 164.71 326.01 164.74 325.97 164.81C325.94 164.87 325.92 164.98 325.92 165.12Z" fill="white"/>
<path d="M900.3 154.34V153.48H904.03V154.34H900.3ZM906.15 149.58C906.67 149.22 907.38 149.04 908.28 149.04C909.18 149.04 909.89 149.22 910.42 149.58C910.95 149.93 911.22 150.46 911.22 151.15C911.22 151.66 911.12 152.05 910.91 152.32C910.7 152.58 910.36 152.82 909.87 153.05C910.36 153.27 910.73 153.53 910.98 153.84C911.23 154.13 911.35 154.55 911.35 155.09C911.35 156.64 910.33 157.41 908.3 157.41C906.27 157.41 905.26 156.68 905.26 155.22C905.26 154.64 905.37 154.2 905.59 153.89C905.82 153.59 906.18 153.3 906.66 153.04C906.22 152.82 905.89 152.57 905.69 152.29C905.49 152 905.39 151.62 905.39 151.13C905.39 150.44 905.65 149.92 906.15 149.57V149.58ZM906.26 155.07C906.26 156.06 906.94 156.56 908.29 156.56C909.64 156.56 910.33 156.04 910.33 155C910.33 154.57 910.21 154.24 909.96 154.04C909.72 153.83 909.37 153.65 908.89 153.51H907.6C907.15 153.63 906.81 153.82 906.59 154.06C906.37 154.3 906.26 154.63 906.26 155.07ZM910.21 151.27C910.21 150.36 909.57 149.9 908.3 149.9C907.03 149.9 906.39 150.35 906.39 151.25C906.39 151.61 906.49 151.9 906.68 152.12C906.88 152.34 907.18 152.53 907.59 152.67H908.88C909.32 152.53 909.65 152.35 909.86 152.13C910.08 151.91 910.19 151.62 910.19 151.26L910.21 151.27ZM912.57 157.3V155.9H913.58V157.3H912.57ZM917.44 156.59C918.92 156.59 919.67 155.65 919.68 153.76C918.86 154.07 918.15 154.23 917.56 154.23C915.79 154.23 914.9 153.41 914.9 151.76C914.9 150.93 915.15 150.27 915.66 149.79C916.17 149.31 916.85 149.06 917.71 149.06C918.7 149.06 919.44 149.43 919.92 150.17C920.4 150.9 920.64 151.98 920.64 153.41C920.64 154.84 920.37 155.85 919.82 156.48C919.28 157.11 918.48 157.43 917.42 157.43C916.81 157.43 916.17 157.37 915.51 157.26L915.19 157.21L915.28 156.45C916.02 156.55 916.73 156.6 917.42 156.6L917.44 156.59ZM917.64 153.39C918.14 153.39 918.72 153.28 919.37 153.06L919.69 152.95C919.66 150.92 919.01 149.9 917.72 149.9C917.15 149.9 916.69 150.07 916.37 150.41C916.05 150.74 915.89 151.19 915.89 151.76C915.89 152.85 916.47 153.4 917.64 153.4V153.39ZM923.19 157.35L925.71 148.92L926.3 149.12L923.78 157.52L923.19 157.35ZM921.63 150.76C921.63 149.63 922.08 149.06 922.98 149.06C923.88 149.06 924.33 149.63 924.33 150.76C924.33 151.34 924.21 151.78 923.97 152.06C923.73 152.35 923.4 152.49 922.97 152.49C922.54 152.49 922.21 152.35 921.97 152.06C921.73 151.77 921.61 151.34 921.61 150.76H921.63ZM922.38 150.76C922.38 151.5 922.58 151.87 922.98 151.87C923.38 151.87 923.59 151.5 923.59 150.76C923.59 150.39 923.54 150.12 923.44 149.95C923.35 149.78 923.19 149.69 922.97 149.69C922.75 149.69 922.6 149.78 922.5 149.95C922.41 150.12 922.36 150.39 922.36 150.76H922.38ZM925.14 155.68C925.14 154.56 925.59 154 926.48 154C927.37 154 927.83 154.57 927.83 155.7C927.83 156.27 927.71 156.71 927.47 157C927.23 157.29 926.9 157.43 926.47 157.43C926.04 157.43 925.71 157.29 925.47 157C925.24 156.71 925.13 156.27 925.13 155.68H925.14ZM925.88 155.68C925.88 156.43 926.08 156.8 926.48 156.8C926.71 156.8 926.87 156.71 926.96 156.53C927.05 156.35 927.1 156.07 927.1 155.69C927.1 155.31 927.05 155.04 926.96 154.88C926.87 154.71 926.71 154.62 926.49 154.62C926.27 154.62 926.11 154.71 926.01 154.88C925.92 155.04 925.87 155.31 925.87 155.68H925.88Z" fill="white"/>
<path d="M240.66 132.149V131.819H242.11V132.149H240.66ZM244.71 130.139V130.469H243.17L243.08 131.499C243.33 131.369 243.57 131.299 243.82 131.299C244.49 131.299 244.82 131.609 244.82 132.229C244.82 132.589 244.73 132.859 244.54 133.049C244.35 133.239 244.09 133.329 243.76 133.329C243.49 133.329 243.2 133.289 242.87 133.229L242.71 133.199L242.75 132.909C243.12 132.979 243.42 133.019 243.67 133.019C243.92 133.019 244.11 132.959 244.24 132.829C244.37 132.699 244.43 132.519 244.43 132.289C244.43 132.059 244.37 131.889 244.25 131.799C244.13 131.699 243.97 131.649 243.76 131.649C243.64 131.649 243.52 131.669 243.4 131.699C243.28 131.729 243.18 131.759 243.11 131.799L243.01 131.849L242.76 131.799L242.85 130.159H244.69L244.71 130.139ZM245.42 133.289V132.749H245.81V133.289H245.42ZM248.48 133.289H246.46V132.979L247.38 132.009C247.54 131.839 247.66 131.719 247.73 131.629C247.8 131.539 247.87 131.439 247.93 131.319C247.99 131.199 248.02 131.079 248.02 130.969C248.02 130.769 247.96 130.619 247.85 130.539C247.74 130.459 247.57 130.419 247.33 130.419C247.12 130.419 246.89 130.449 246.64 130.499L246.52 130.519L246.49 130.209C246.79 130.119 247.1 130.079 247.43 130.079C247.76 130.079 247.99 130.149 248.16 130.289C248.33 130.419 248.41 130.639 248.41 130.929C248.41 131.149 248.36 131.349 248.26 131.509C248.16 131.679 247.99 131.879 247.75 132.109L246.91 132.959H248.49V133.279L248.48 133.289ZM249.55 133.309L250.53 130.039L250.76 130.119L249.78 133.379L249.55 133.309ZM248.94 130.749C248.94 130.309 249.11 130.089 249.46 130.089C249.81 130.089 249.99 130.309 249.99 130.749C249.99 130.979 249.94 131.149 249.85 131.259C249.76 131.369 249.63 131.429 249.46 131.429C249.29 131.429 249.17 131.369 249.07 131.259C248.98 131.149 248.93 130.979 248.93 130.749H248.94ZM249.23 130.749C249.23 131.039 249.31 131.179 249.46 131.179C249.61 131.179 249.7 131.039 249.7 130.749C249.7 130.609 249.68 130.499 249.64 130.429C249.61 130.359 249.54 130.329 249.46 130.329C249.38 130.329 249.32 130.359 249.28 130.429C249.24 130.499 249.23 130.599 249.23 130.749ZM250.3 132.659C250.3 132.219 250.47 132.009 250.82 132.009C251.17 132.009 251.35 132.229 251.35 132.669C251.35 132.889 251.3 133.059 251.21 133.179C251.12 133.289 250.99 133.349 250.82 133.349C250.65 133.349 250.53 133.289 250.43 133.179C250.34 133.069 250.3 132.889 250.3 132.669V132.659ZM250.59 132.659C250.59 132.949 250.67 133.089 250.82 133.089C250.91 133.089 250.97 133.049 251.01 132.989C251.04 132.919 251.06 132.809 251.06 132.659C251.06 132.509 251.04 132.409 251.01 132.339C250.97 132.269 250.91 132.239 250.83 132.239C250.75 132.239 250.68 132.269 250.64 132.339C250.6 132.399 250.59 132.509 250.59 132.649V132.659Z" fill="white"/>
<path d="M203 241.168V240.838H204.45V241.168H203ZM206.49 242.318V241.698H204.96V241.408L205.86 239.158H206.26L205.35 241.368H206.49V240.378H206.86V241.368H207.26V241.688H206.86V242.308H206.49V242.318ZM207.76 242.318V241.778H208.15V242.318H207.76ZM208.82 239.248C209.12 239.158 209.44 239.118 209.78 239.118C210.12 239.118 210.37 239.188 210.53 239.318C210.69 239.448 210.76 239.658 210.76 239.948C210.76 240.098 210.74 240.198 210.7 240.268C210.66 240.328 210.63 240.378 210.6 240.418C210.58 240.458 210.55 240.488 210.51 240.518C210.44 240.568 210.38 240.608 210.34 240.628L210.29 240.658C210.48 240.728 210.61 240.808 210.7 240.918C210.79 241.018 210.83 241.188 210.83 241.428C210.83 241.748 210.75 241.988 210.58 242.148C210.42 242.308 210.16 242.378 209.81 242.378C209.53 242.378 209.23 242.348 208.92 242.278L208.77 242.248L208.8 241.948C209.14 242.018 209.47 242.058 209.76 242.058C210.22 242.058 210.44 241.848 210.44 241.448C210.44 241.068 210.22 240.868 209.79 240.858H209.15V240.538H209.79C209.92 240.538 210.05 240.488 210.18 240.378C210.3 240.268 210.37 240.128 210.37 239.948C210.37 239.768 210.32 239.648 210.22 239.568C210.12 239.488 209.96 239.448 209.72 239.448C209.46 239.448 209.21 239.468 208.96 239.518L208.84 239.538L208.81 239.248H208.82ZM211.89 242.338L212.87 239.068L213.1 239.148L212.12 242.408L211.89 242.338ZM211.28 239.778C211.28 239.338 211.46 239.118 211.8 239.118C212.14 239.118 212.33 239.338 212.33 239.778C212.33 240.008 212.28 240.178 212.19 240.288C212.1 240.398 211.97 240.458 211.8 240.458C211.63 240.458 211.51 240.408 211.41 240.288C211.32 240.178 211.27 240.008 211.27 239.778H211.28ZM211.57 239.778C211.57 240.068 211.65 240.208 211.8 240.208C211.95 240.208 212.04 240.068 212.04 239.778C212.04 239.638 212.02 239.528 211.98 239.458C211.94 239.388 211.88 239.358 211.8 239.358C211.72 239.358 211.66 239.388 211.62 239.458C211.58 239.528 211.57 239.628 211.57 239.778ZM212.64 241.688C212.64 241.248 212.81 241.038 213.16 241.038C213.51 241.038 213.69 241.258 213.69 241.698C213.69 241.918 213.64 242.088 213.55 242.208C213.46 242.318 213.33 242.378 213.16 242.378C212.99 242.378 212.87 242.318 212.77 242.208C212.68 242.098 212.64 241.928 212.64 241.698V241.688ZM212.93 241.688C212.93 241.978 213.01 242.118 213.16 242.118C213.25 242.118 213.31 242.078 213.35 242.018C213.39 241.948 213.4 241.838 213.4 241.698C213.4 241.558 213.38 241.448 213.35 241.378C213.31 241.308 213.25 241.278 213.17 241.278C213.09 241.278 213.02 241.308 212.98 241.378C212.94 241.438 212.93 241.548 212.93 241.688Z" fill="white"/>
<path d="M544.07 70.9984V70.6684H545.52V70.9984H544.07ZM548.19 72.1484H546.17V71.8384L547.09 70.8684C547.25 70.6984 547.37 70.5784 547.44 70.4884C547.51 70.3984 547.58 70.2984 547.64 70.1784C547.7 70.0584 547.73 69.9384 547.73 69.8284C547.73 69.6284 547.67 69.4784 547.56 69.3984C547.45 69.3184 547.28 69.2784 547.04 69.2784C546.83 69.2784 546.6 69.3084 546.35 69.3584L546.23 69.3784L546.2 69.0684C546.5 68.9784 546.81 68.9384 547.14 68.9384C547.47 68.9384 547.7 69.0084 547.87 69.1484C548.04 69.2784 548.12 69.4984 548.12 69.7884C548.12 70.0084 548.07 70.2084 547.97 70.3684C547.87 70.5384 547.7 70.7284 547.46 70.9684L546.62 71.8284H548.2V72.1484H548.19ZM548.84 72.1484V71.6084H549.23V72.1484H548.84ZM549.9 69.0784C550.2 68.9884 550.52 68.9484 550.86 68.9484C551.2 68.9484 551.45 69.0184 551.61 69.1484C551.76 69.2784 551.84 69.4884 551.84 69.7784C551.84 69.9284 551.82 70.0284 551.78 70.0984C551.74 70.1584 551.71 70.2084 551.69 70.2484C551.67 70.2884 551.64 70.3184 551.6 70.3484C551.53 70.3984 551.47 70.4384 551.43 70.4584L551.38 70.4884C551.56 70.5584 551.7 70.6384 551.79 70.7484C551.88 70.8484 551.92 71.0184 551.92 71.2584C551.92 71.5784 551.84 71.8184 551.67 71.9784C551.51 72.1384 551.25 72.2084 550.9 72.2084C550.62 72.2084 550.32 72.1784 550.01 72.1084L549.86 72.0784L549.89 71.7784C550.23 71.8484 550.56 71.8884 550.86 71.8884C551.32 71.8884 551.54 71.6784 551.54 71.2784C551.54 70.8984 551.32 70.6984 550.89 70.6884H550.25V70.3684H550.89C551.02 70.3684 551.15 70.3184 551.28 70.2084C551.4 70.0984 551.47 69.9584 551.47 69.7784C551.47 69.5984 551.42 69.4784 551.32 69.3984C551.22 69.3184 551.06 69.2784 550.82 69.2784C550.56 69.2784 550.31 69.2984 550.06 69.3484L549.94 69.3684L549.91 69.0784H549.9ZM552.97 72.1684L553.95 68.8984L554.18 68.9784L553.2 72.2384L552.97 72.1684ZM552.36 69.6084C552.36 69.1684 552.53 68.9484 552.89 68.9484C553.25 68.9484 553.42 69.1684 553.42 69.6084C553.42 69.8384 553.37 70.0084 553.28 70.1184C553.19 70.2284 553.06 70.2884 552.89 70.2884C552.72 70.2884 552.6 70.2284 552.5 70.1184C552.41 70.0084 552.36 69.8384 552.36 69.6084ZM552.65 69.6084C552.65 69.8984 552.73 70.0384 552.88 70.0384C553.03 70.0384 553.12 69.8984 553.12 69.6084C553.12 69.4684 553.1 69.3584 553.06 69.2884C553.02 69.2184 552.96 69.1884 552.88 69.1884C552.8 69.1884 552.74 69.2184 552.7 69.2884C552.67 69.3584 552.65 69.4584 552.65 69.6084ZM553.72 71.5184C553.72 71.0784 553.89 70.8684 554.24 70.8684C554.59 70.8684 554.77 71.0884 554.77 71.5284C554.77 71.7484 554.72 71.9184 554.63 72.0384C554.54 72.1484 554.41 72.2084 554.24 72.2084C554.07 72.2084 553.95 72.1484 553.85 72.0384C553.76 71.9284 553.72 71.7484 553.72 71.5284V71.5184ZM554.01 71.5184C554.01 71.8084 554.09 71.9584 554.24 71.9584C554.33 71.9584 554.39 71.9184 554.43 71.8484C554.47 71.7784 554.48 71.6684 554.48 71.5184C554.48 71.3684 554.46 71.2684 554.43 71.1984C554.4 71.1284 554.33 71.0984 554.25 71.0984C554.17 71.0984 554.1 71.1284 554.06 71.1984C554.02 71.2584 554.01 71.3684 554.01 71.5084V71.5184Z" fill="white"/>
<g opacity="0.5">
<path d="M1359.72 114.929V114.099H1362.01V111.729H1362.86V114.099H1365.18V114.929H1362.86V117.319H1362.01V114.929H1359.72ZM1370.57 109.549V117.559H1369.63V110.589L1367.57 111.949L1367.14 111.249L1369.69 109.549H1370.57ZM1378.6 117.559H1373.48V116.769L1375.82 114.309C1376.22 113.889 1376.52 113.569 1376.71 113.349C1376.89 113.129 1377.06 112.869 1377.2 112.569C1377.36 112.269 1377.43 111.969 1377.43 111.669C1377.43 111.149 1377.29 110.789 1377.01 110.579C1376.73 110.369 1376.28 110.259 1375.69 110.259C1375.16 110.259 1374.57 110.329 1373.93 110.469L1373.61 110.529L1373.54 109.749C1374.31 109.529 1375.1 109.419 1375.92 109.419C1376.74 109.419 1377.35 109.589 1377.76 109.939C1378.18 110.279 1378.39 110.819 1378.39 111.569C1378.39 112.139 1378.27 112.629 1378.02 113.049C1377.77 113.469 1377.33 113.979 1376.72 114.569L1374.58 116.739H1378.6V117.549V117.559ZM1381.31 117.609L1383.8 109.289L1384.38 109.479L1381.9 117.769L1381.31 117.599V117.609ZM1379.77 111.099C1379.77 109.979 1380.22 109.419 1381.11 109.419C1382 109.419 1382.44 109.979 1382.44 111.099C1382.44 111.669 1382.32 112.099 1382.09 112.389C1381.86 112.669 1381.53 112.819 1381.11 112.819C1380.69 112.819 1380.36 112.679 1380.12 112.389C1379.89 112.109 1379.77 111.679 1379.77 111.099ZM1380.51 111.099C1380.51 111.829 1380.71 112.189 1381.11 112.189C1381.51 112.189 1381.71 111.829 1381.71 111.099C1381.71 110.739 1381.67 110.469 1381.57 110.299C1381.48 110.129 1381.33 110.039 1381.11 110.039C1380.89 110.039 1380.74 110.119 1380.65 110.299C1380.56 110.469 1380.51 110.739 1380.51 111.099ZM1383.23 115.959C1383.23 114.849 1383.67 114.299 1384.55 114.299C1385.43 114.299 1385.89 114.859 1385.89 115.979C1385.89 116.549 1385.77 116.979 1385.54 117.269C1385.3 117.549 1384.98 117.689 1384.55 117.689C1384.12 117.689 1383.81 117.549 1383.57 117.269C1383.34 116.979 1383.23 116.539 1383.23 115.969V115.959ZM1383.96 115.959C1383.96 116.699 1384.16 117.059 1384.55 117.059C1384.78 117.059 1384.94 116.969 1385.03 116.789C1385.12 116.609 1385.16 116.339 1385.16 115.969C1385.16 115.599 1385.12 115.329 1385.03 115.169C1384.94 114.999 1384.79 114.919 1384.57 114.919C1384.35 114.919 1384.19 114.999 1384.09 115.169C1384 115.329 1383.96 115.599 1383.96 115.959Z" fill="#75B798"/>
<path d="M714.39 180.47V179.69H716.55V177.46H717.35V179.69H719.53V180.47H717.35V182.72H716.55V180.47H714.39ZM721.36 175.78C721.84 175.44 722.5 175.28 723.34 175.28C724.18 175.28 724.84 175.45 725.33 175.78C725.83 176.11 726.07 176.6 726.07 177.24C726.07 177.71 725.98 178.07 725.79 178.33C725.6 178.57 725.27 178.8 724.82 179C725.28 179.21 725.62 179.45 725.85 179.73C726.08 180 726.19 180.39 726.19 180.9C726.19 182.34 725.24 183.06 723.36 183.06C721.48 183.06 720.54 182.38 720.54 181.03C720.54 180.49 720.64 180.08 720.85 179.8C721.06 179.52 721.39 179.26 721.84 179.01C721.43 178.8 721.13 178.57 720.94 178.31C720.76 178.04 720.67 177.69 720.67 177.24C720.67 176.6 720.91 176.12 721.38 175.79L721.36 175.78ZM721.46 180.88C721.46 181.8 722.09 182.26 723.35 182.26C724.61 182.26 725.25 181.78 725.25 180.81C725.25 180.41 725.14 180.11 724.91 179.92C724.69 179.72 724.36 179.56 723.92 179.43H722.72C722.3 179.55 721.99 179.72 721.78 179.94C721.57 180.16 721.47 180.47 721.47 180.88H721.46ZM725.13 177.35C725.13 176.5 724.54 176.08 723.36 176.08C722.18 176.08 721.59 176.5 721.59 177.34C721.59 177.68 721.68 177.95 721.86 178.15C722.04 178.35 722.33 178.53 722.71 178.66H723.91C724.32 178.53 724.63 178.36 724.82 178.16C725.03 177.95 725.13 177.68 725.13 177.35ZM727.32 182.95V181.65H728.26V182.95H727.32ZM731.84 182.29C733.22 182.29 733.91 181.41 733.92 179.66C733.16 179.95 732.5 180.09 731.95 180.09C730.3 180.09 729.48 179.32 729.48 177.79C729.48 177.02 729.72 176.41 730.19 175.96C730.66 175.51 731.3 175.29 732.1 175.29C733.02 175.29 733.71 175.63 734.16 176.32C734.61 177 734.84 178 734.84 179.33C734.84 180.66 734.58 181.6 734.07 182.19C733.57 182.78 732.82 183.07 731.84 183.07C731.27 183.07 730.68 183.02 730.07 182.91L729.77 182.86L729.85 182.15C730.54 182.24 731.2 182.29 731.84 182.29ZM732.02 179.32C732.48 179.32 733.02 179.22 733.63 179.01L733.93 178.91C733.91 177.02 733.3 176.08 732.1 176.08C731.57 176.08 731.15 176.24 730.84 176.55C730.54 176.85 730.39 177.27 730.39 177.81C730.39 178.82 730.93 179.33 732.01 179.33L732.02 179.32ZM737.18 183L739.52 175.17L740.07 175.35L737.73 183.16L737.18 183ZM735.73 176.87C735.73 175.82 736.15 175.29 736.99 175.29C737.83 175.29 738.25 175.81 738.25 176.87C738.25 177.41 738.14 177.81 737.92 178.08C737.7 178.35 737.39 178.48 736.99 178.48C736.59 178.48 736.28 178.35 736.06 178.08C735.84 177.81 735.73 177.41 735.73 176.87ZM736.43 176.87C736.43 177.56 736.62 177.9 736.99 177.9C737.36 177.9 737.56 177.56 737.56 176.87C737.56 176.53 737.51 176.28 737.42 176.12C737.34 175.96 737.19 175.88 736.99 175.88C736.79 175.88 736.65 175.96 736.56 176.12C736.48 176.28 736.43 176.53 736.43 176.87ZM738.99 181.44C738.99 180.4 739.41 179.87 740.24 179.87C741.07 179.87 741.5 180.4 741.5 181.45C741.5 181.98 741.39 182.39 741.17 182.66C740.95 182.93 740.64 183.06 740.24 183.06C739.84 183.06 739.53 182.93 739.31 182.66C739.1 182.39 738.99 181.98 738.99 181.44ZM739.68 181.44C739.68 182.13 739.87 182.48 740.24 182.48C740.45 182.48 740.6 182.4 740.69 182.23C740.77 182.06 740.82 181.8 740.82 181.45C740.82 181.1 740.78 180.85 740.69 180.7C740.61 180.54 740.46 180.46 740.26 180.46C740.06 180.46 739.91 180.54 739.81 180.7C739.73 180.85 739.68 181.1 739.68 181.44Z" fill="#75B798"/>
<path d="M1100.16 130.779V129.949H1102.46V127.579H1103.31V129.949H1105.63V130.779H1103.31V133.169H1102.46V130.779H1100.16ZM1107.23 126.249V125.399H1112.2V126.629L1109.12 133.539L1108.23 133.259L1111.26 126.569V126.249H1107.23ZM1113.9 133.409V132.029H1114.89V133.409H1113.9ZM1120.43 125.399V133.409H1119.49V126.439L1117.43 127.799L1117 127.099L1119.55 125.399H1120.43ZM1124.38 133.459L1126.87 125.139L1127.45 125.329L1124.96 133.619L1124.38 133.449V133.459ZM1122.84 126.949C1122.84 125.829 1123.28 125.269 1124.17 125.269C1125.06 125.269 1125.51 125.829 1125.51 126.949C1125.51 127.519 1125.39 127.949 1125.16 128.239C1124.92 128.519 1124.59 128.669 1124.17 128.669C1123.75 128.669 1123.42 128.529 1123.19 128.239C1122.95 127.959 1122.84 127.529 1122.84 126.949ZM1123.58 126.949C1123.58 127.679 1123.78 128.039 1124.17 128.039C1124.58 128.039 1124.78 127.679 1124.78 126.949C1124.78 126.589 1124.73 126.319 1124.63 126.149C1124.54 125.979 1124.39 125.899 1124.17 125.899C1123.95 125.899 1123.81 125.979 1123.71 126.149C1123.62 126.319 1123.58 126.589 1123.58 126.949ZM1126.3 131.809C1126.3 130.699 1126.74 130.149 1127.62 130.149C1128.5 130.149 1128.96 130.709 1128.96 131.829C1128.96 132.399 1128.84 132.829 1128.6 133.119C1128.37 133.399 1128.04 133.539 1127.62 133.539C1127.2 133.539 1126.87 133.399 1126.64 133.119C1126.41 132.829 1126.3 132.389 1126.3 131.819V131.809ZM1127.02 131.809C1127.02 132.549 1127.22 132.909 1127.62 132.909C1127.85 132.909 1128 132.819 1128.09 132.639C1128.18 132.459 1128.23 132.189 1128.23 131.819C1128.23 131.449 1128.18 131.179 1128.09 131.019C1128 130.849 1127.85 130.769 1127.63 130.769C1127.41 130.769 1127.26 130.849 1127.16 131.019C1127.07 131.179 1127.02 131.449 1127.02 131.809Z" fill="#75B798"/>
<path d="M437.56 125.288V124.508H439.72V122.278H440.52V124.508H442.7V125.288H440.52V127.538H439.72V125.288H437.56ZM448.78 120.228V121.028H445.11L444.9 123.488C445.49 123.178 446.08 123.018 446.67 123.018C448.27 123.018 449.07 123.758 449.07 125.248C449.07 126.098 448.85 126.748 448.41 127.198C447.97 127.648 447.35 127.868 446.55 127.868C445.91 127.868 445.2 127.788 444.42 127.618L444.04 127.538L444.14 126.838C445.02 127.008 445.75 127.088 446.35 127.088C446.95 127.088 447.4 126.938 447.71 126.628C448.01 126.318 448.17 125.878 448.17 125.328C448.17 124.778 448.03 124.378 447.75 124.148C447.48 123.908 447.08 123.798 446.57 123.798C446.3 123.798 446.01 123.838 445.7 123.908C445.4 123.988 445.17 124.058 445.01 124.138L444.77 124.248L444.16 124.138L444.37 120.218H448.77L448.78 120.228ZM450.49 127.768V126.468H451.43V127.768H450.49ZM457.8 127.768H452.98V127.028L455.19 124.708C455.57 124.308 455.85 124.008 456.02 123.808C456.2 123.598 456.35 123.358 456.49 123.078C456.64 122.798 456.71 122.518 456.71 122.228C456.71 121.738 456.58 121.398 456.31 121.198C456.04 120.998 455.63 120.898 455.06 120.898C454.57 120.898 454.01 120.958 453.4 121.088L453.1 121.148L453.03 120.418C453.75 120.208 454.5 120.108 455.27 120.108C456.04 120.108 456.62 120.268 457.01 120.598C457.41 120.918 457.6 121.428 457.6 122.128C457.6 122.658 457.48 123.128 457.25 123.518C457.01 123.918 456.61 124.388 456.03 124.948L454.02 126.998H457.8V127.768ZM460.35 127.818L462.69 119.988L463.24 120.168L460.9 127.978L460.35 127.818ZM458.9 121.688C458.9 120.638 459.32 120.108 460.16 120.108C461 120.108 461.42 120.638 461.42 121.688C461.42 122.228 461.31 122.628 461.09 122.898C460.87 123.168 460.56 123.298 460.16 123.298C459.76 123.298 459.46 123.168 459.23 122.898C459.01 122.628 458.9 122.228 458.9 121.688ZM459.6 121.688C459.6 122.378 459.79 122.718 460.16 122.718C460.53 122.718 460.73 122.378 460.73 121.688C460.73 121.348 460.68 121.098 460.59 120.938C460.51 120.778 460.36 120.698 460.16 120.698C459.96 120.698 459.82 120.778 459.73 120.938C459.65 121.098 459.61 121.348 459.61 121.688H459.6ZM462.16 126.258C462.16 125.218 462.58 124.688 463.41 124.688C464.24 124.688 464.67 125.218 464.67 126.268C464.67 126.798 464.56 127.208 464.34 127.478C464.12 127.748 463.81 127.878 463.41 127.878C463.01 127.878 462.71 127.748 462.48 127.478C462.27 127.208 462.16 126.798 462.16 126.258ZM462.85 126.258C462.85 126.948 463.04 127.298 463.41 127.298C463.62 127.298 463.77 127.218 463.86 127.048C463.94 126.878 463.98 126.618 463.98 126.268C463.98 125.918 463.94 125.668 463.86 125.508C463.78 125.348 463.63 125.268 463.43 125.268C463.23 125.268 463.08 125.348 462.98 125.508C462.9 125.658 462.86 125.908 462.86 126.248L462.85 126.258Z" fill="#75B798"/>
</g>
<g opacity="0.5">
<path d="M1204.04 57.9691V57.1191H1207.72V57.9691H1204.04ZM1209.42 53.0791C1210.18 52.8491 1210.99 52.7391 1211.86 52.7391C1212.73 52.7391 1213.36 52.9091 1213.75 53.2391C1214.14 53.5691 1214.33 54.0991 1214.33 54.8291C1214.33 55.1991 1214.28 55.4691 1214.18 55.6391C1214.08 55.7991 1214 55.9291 1213.93 56.0191C1213.88 56.1091 1213.8 56.1891 1213.7 56.2691C1213.52 56.4091 1213.38 56.4991 1213.28 56.5591L1213.14 56.6391C1213.61 56.8091 1213.96 57.0291 1214.19 57.2991C1214.41 57.5591 1214.53 57.9891 1214.53 58.5891C1214.53 59.4091 1214.32 60.0091 1213.9 60.4091C1213.48 60.8091 1212.83 60.9991 1211.93 60.9991C1211.22 60.9991 1210.46 60.9191 1209.67 60.7591L1209.3 60.6791L1209.38 59.9191C1210.25 60.0991 1211.07 60.1891 1211.83 60.1891C1212.99 60.1891 1213.57 59.6591 1213.57 58.6391C1213.57 57.6791 1213.02 57.1791 1211.92 57.1291H1210.3V56.3291H1211.92C1212.26 56.3291 1212.58 56.1991 1212.9 55.9291C1213.22 55.6491 1213.37 55.2891 1213.37 54.8491C1213.37 54.4091 1213.25 54.0891 1213 53.8891C1212.75 53.6891 1212.33 53.5891 1211.74 53.5891C1211.09 53.5891 1210.45 53.6491 1209.82 53.7691L1209.5 53.8291L1209.42 53.0891V53.0791ZM1216.15 60.8891V59.5091H1217.14V60.8891H1216.15ZM1220.95 60.1891C1222.42 60.1891 1223.16 59.2591 1223.16 57.3991C1222.35 57.7091 1221.66 57.8591 1221.08 57.8591C1219.33 57.8591 1218.45 57.0491 1218.45 55.4191C1218.45 54.5991 1218.7 53.9591 1219.21 53.4791C1219.71 52.9991 1220.38 52.7591 1221.23 52.7591C1222.21 52.7591 1222.94 53.1191 1223.42 53.8491C1223.9 54.5691 1224.13 55.6291 1224.13 57.0391C1224.13 58.4491 1223.86 59.4491 1223.32 60.0691C1222.79 60.6891 1222 60.9991 1220.95 60.9991C1220.35 60.9991 1219.72 60.9391 1219.07 60.8291L1218.76 60.7791L1218.84 60.0291C1219.57 60.1291 1220.27 60.1791 1220.95 60.1791V60.1891ZM1221.15 57.0291C1221.64 57.0291 1222.21 56.9191 1222.86 56.6991L1223.18 56.5891C1223.15 54.5791 1222.5 53.5791 1221.23 53.5791C1220.67 53.5791 1220.22 53.7491 1219.9 54.0791C1219.58 54.3991 1219.42 54.8491 1219.42 55.4191C1219.42 56.4991 1220 57.0291 1221.15 57.0291ZM1226.63 60.9391L1229.12 52.6191L1229.7 52.8091L1227.21 61.0991L1226.63 60.9291V60.9391ZM1225.09 54.4291C1225.09 53.3091 1225.53 52.7491 1226.42 52.7491C1227.31 52.7491 1227.76 53.3091 1227.76 54.4291C1227.76 54.9991 1227.64 55.4291 1227.41 55.7191C1227.17 55.9991 1226.84 56.1391 1226.42 56.1391C1226 56.1391 1225.68 55.9991 1225.44 55.7191C1225.21 55.4391 1225.09 55.0091 1225.09 54.4291ZM1225.83 54.4291C1225.83 55.1591 1226.03 55.5191 1226.42 55.5191C1226.83 55.5191 1227.03 55.1591 1227.03 54.4291C1227.03 54.0691 1226.98 53.7991 1226.89 53.6291C1226.8 53.4591 1226.64 53.3791 1226.42 53.3791C1226.2 53.3791 1226.06 53.4591 1225.96 53.6291C1225.87 53.7991 1225.83 54.0691 1225.83 54.4291ZM1228.55 59.2891C1228.55 58.1791 1228.99 57.6291 1229.87 57.6291C1230.75 57.6291 1231.21 58.1891 1231.21 59.3091C1231.21 59.8791 1231.09 60.3091 1230.86 60.5991C1230.62 60.8791 1230.29 61.0191 1229.87 61.0191C1229.45 61.0191 1229.12 60.8791 1228.89 60.5991C1228.66 60.3091 1228.55 59.8791 1228.55 59.2991V59.2891ZM1229.28 59.2891C1229.28 60.0291 1229.48 60.3891 1229.87 60.3891C1230.1 60.3891 1230.26 60.2991 1230.35 60.1191C1230.43 59.9391 1230.48 59.6691 1230.48 59.2891C1230.48 58.9091 1230.43 58.6491 1230.35 58.4891C1230.26 58.3191 1230.1 58.2391 1229.88 58.2391C1229.66 58.2391 1229.51 58.3191 1229.41 58.4891C1229.32 58.6491 1229.28 58.9091 1229.28 59.2791V59.2891Z" fill="white"/>
<path d="M1108.02 267.239V266.899H1109.47V267.239H1108.02ZM1111.65 265.229V268.379H1111.28V265.639L1110.47 266.179L1110.3 265.899L1111.3 265.229H1111.65ZM1114.32 265.229V268.379H1113.95V265.639L1113.14 266.179L1112.97 265.899L1113.98 265.229H1114.32ZM1115.88 268.399L1116.86 265.129L1117.09 265.209L1116.11 268.469L1115.88 268.399ZM1115.27 265.839C1115.27 265.399 1115.45 265.179 1115.8 265.179C1116.15 265.179 1116.32 265.399 1116.32 265.839C1116.32 266.069 1116.28 266.239 1116.18 266.349C1116.09 266.459 1115.96 266.519 1115.8 266.519C1115.63 266.519 1115.5 266.459 1115.41 266.349C1115.32 266.239 1115.27 266.069 1115.27 265.839ZM1115.56 265.839C1115.56 266.129 1115.64 266.269 1115.8 266.269C1115.96 266.269 1116.04 266.129 1116.04 265.839C1116.04 265.699 1116.02 265.589 1115.98 265.529C1115.94 265.459 1115.88 265.429 1115.8 265.429C1115.71 265.429 1115.65 265.459 1115.62 265.529C1115.58 265.599 1115.56 265.699 1115.56 265.839ZM1116.63 267.749C1116.63 267.309 1116.81 267.099 1117.16 267.099C1117.51 267.099 1117.68 267.319 1117.68 267.759C1117.68 267.979 1117.63 268.149 1117.54 268.269C1117.45 268.379 1117.32 268.439 1117.16 268.439C1116.99 268.439 1116.86 268.379 1116.77 268.269C1116.68 268.159 1116.63 267.979 1116.63 267.759V267.749ZM1116.92 267.749C1116.92 268.039 1117 268.179 1117.16 268.179C1117.24 268.179 1117.31 268.139 1117.34 268.069C1117.38 267.999 1117.39 267.889 1117.39 267.749C1117.39 267.609 1117.38 267.499 1117.34 267.429C1117.31 267.359 1117.25 267.329 1117.16 267.329C1117.07 267.329 1117.01 267.359 1116.97 267.429C1116.94 267.489 1116.92 267.599 1116.92 267.739V267.749Z" fill="white"/>
<path d="M563.34 229.199V228.339H567.07V229.199H563.34ZM569.19 224.439C569.71 224.079 570.42 223.899 571.32 223.899C572.22 223.899 572.94 224.079 573.46 224.439C573.99 224.789 574.26 225.319 574.26 226.009C574.26 226.519 574.16 226.909 573.95 227.179C573.74 227.439 573.4 227.679 572.91 227.909C573.4 228.129 573.77 228.389 574.02 228.699C574.27 228.999 574.39 229.409 574.39 229.959C574.39 231.509 573.37 232.279 571.34 232.279C569.31 232.279 568.3 231.549 568.3 230.089C568.3 229.509 568.41 229.059 568.63 228.759C568.86 228.459 569.22 228.169 569.7 227.909C569.26 227.689 568.93 227.439 568.73 227.159C568.53 226.869 568.44 226.489 568.44 225.999C568.44 225.309 568.69 224.789 569.2 224.439H569.19ZM569.3 229.929C569.3 230.919 569.98 231.419 571.33 231.419C572.68 231.419 573.37 230.899 573.37 229.859C573.37 229.429 573.25 229.099 573 228.899C572.76 228.689 572.41 228.509 571.93 228.369H570.64C570.19 228.489 569.85 228.679 569.63 228.919C569.41 229.159 569.3 229.489 569.3 229.929ZM573.25 226.129C573.25 225.219 572.61 224.759 571.34 224.759C570.07 224.759 569.43 225.209 569.43 226.109C569.43 226.469 569.53 226.759 569.72 226.979C569.92 227.199 570.22 227.389 570.63 227.529H571.92C572.36 227.389 572.69 227.209 572.9 226.989C573.12 226.769 573.23 226.479 573.23 226.119L573.25 226.129ZM575.61 232.159V230.759H576.62V232.159H575.61ZM580.48 231.449C581.96 231.449 582.71 230.509 582.72 228.619C581.9 228.929 581.2 229.089 580.6 229.089C578.83 229.089 577.94 228.269 577.94 226.619C577.94 225.789 578.2 225.139 578.7 224.649C579.21 224.169 579.89 223.929 580.75 223.929C581.74 223.929 582.48 224.299 582.96 225.039C583.44 225.769 583.69 226.849 583.69 228.279C583.69 229.709 583.41 230.719 582.87 231.349C582.33 231.979 581.53 232.299 580.47 232.299C579.86 232.299 579.22 232.239 578.56 232.129L578.24 232.079L578.33 231.319C579.07 231.419 579.78 231.469 580.47 231.469L580.48 231.449ZM580.68 228.249C581.18 228.249 581.76 228.139 582.41 227.919L582.73 227.809C582.71 225.779 582.05 224.759 580.76 224.759C580.19 224.759 579.73 224.929 579.41 225.259C579.09 225.589 578.93 226.039 578.93 226.609C578.93 227.699 579.51 228.249 580.68 228.249ZM586.23 232.209L588.75 223.779L589.34 223.979L586.82 232.379L586.23 232.209ZM584.67 225.619C584.67 224.489 585.12 223.919 586.02 223.919C586.92 223.919 587.37 224.489 587.37 225.619C587.37 226.199 587.25 226.639 587.01 226.919C586.77 227.209 586.44 227.349 586.01 227.349C585.58 227.349 585.25 227.209 585.01 226.919C584.77 226.629 584.65 226.199 584.65 225.619H584.67ZM585.42 225.619C585.42 226.359 585.62 226.729 586.02 226.729C586.42 226.729 586.64 226.359 586.64 225.619C586.64 225.249 586.59 224.979 586.49 224.809C586.4 224.639 586.24 224.549 586.02 224.549C585.8 224.549 585.65 224.639 585.55 224.809C585.46 224.979 585.41 225.249 585.41 225.619H585.42ZM588.18 230.539C588.18 229.419 588.63 228.859 589.52 228.859C590.41 228.859 590.87 229.429 590.87 230.559C590.87 231.129 590.75 231.569 590.51 231.859C590.27 232.149 589.94 232.289 589.51 232.289C589.08 232.289 588.75 232.149 588.51 231.859C588.28 231.569 588.17 231.129 588.17 230.539H588.18ZM588.92 230.539C588.92 231.289 589.12 231.659 589.52 231.659C589.75 231.659 589.91 231.569 590 231.389C590.09 231.209 590.14 230.929 590.14 230.549C590.14 230.169 590.1 229.899 590 229.739C589.91 229.569 589.75 229.479 589.53 229.479C589.31 229.479 589.15 229.569 589.05 229.739C588.96 229.899 588.92 230.169 588.92 230.539Z" fill="white"/>
<path d="M35.5801 217.27V216.39H39.3601V217.27H35.5801ZM41.1701 212.9V212.03H46.2901V213.29L43.1201 220.4L42.2101 220.11L45.3201 213.23V212.91H41.1701V212.9ZM48.0301 220.27V218.85H49.0501V220.27H48.0301ZM54.7501 212.03V220.27H53.7901V213.1L51.6701 214.5L51.2301 213.77L53.8501 212.02H54.7501V212.03ZM58.8201 220.32L61.3801 211.76L61.9801 211.96L59.4201 220.49L58.8201 220.31V220.32ZM57.2301 213.63C57.2301 212.48 57.6901 211.91 58.6001 211.91C59.5101 211.91 59.9701 212.48 59.9701 213.63C59.9701 214.22 59.8501 214.66 59.6101 214.95C59.3701 215.24 59.0301 215.39 58.6001 215.39C58.1701 215.39 57.8301 215.24 57.5901 214.95C57.3501 214.66 57.2301 214.22 57.2301 213.63ZM57.9901 213.63C57.9901 214.38 58.1901 214.75 58.6001 214.75C59.0101 214.75 59.2201 214.37 59.2201 213.63C59.2201 213.26 59.1701 212.98 59.0701 212.81C58.9801 212.63 58.8201 212.55 58.6001 212.55C58.3801 212.55 58.2301 212.64 58.1301 212.81C58.0401 212.99 57.9901 213.26 57.9901 213.63ZM60.7901 218.63C60.7901 217.49 61.2401 216.92 62.1501 216.92C63.0601 216.92 63.5201 217.49 63.5201 218.64C63.5201 219.22 63.4001 219.66 63.1601 219.96C62.9201 220.25 62.5801 220.4 62.1501 220.4C61.7201 220.4 61.3801 220.25 61.1401 219.96C60.9101 219.66 60.7901 219.22 60.7901 218.62V218.63ZM61.5401 218.63C61.5401 219.39 61.7401 219.77 62.1501 219.77C62.3801 219.77 62.5501 219.68 62.6401 219.5C62.7301 219.32 62.7801 219.03 62.7801 218.65C62.7801 218.27 62.7301 217.99 62.6401 217.83C62.5501 217.65 62.3901 217.57 62.1701 217.57C61.9501 217.57 61.7801 217.66 61.6801 217.83C61.5901 218 61.5401 218.27 61.5401 218.64V218.63Z" fill="white"/>
</g>
</g>
<path d="M0.740234 273.369C88.4002 273.369 132.49 343.019 240.66 311.759C343.1 282.139 361.62 112.739 480.58 97.3092C584.65 83.7992 601.27 160.939 720.5 147.769C836.43 134.969 840.46 -52.8008 960.42 -52.8008C1080.38 -52.8008 1081.8 94.8592 1200.34 113.219C1305.27 129.479 1320.3 66.1992 1440.26 66.1992" stroke="url(#paint0_linear_385_131665)" stroke-width="0.75" stroke-miterlimit="10"/>
<path d="M1440.26 33.3694C1320.3 33.3694 1321.74 142.289 1200.34 147.569C1080.5 152.769 1072.38 235.859 960.42 222.669C841.28 208.619 836.39 27.8594 720.5 22.8094C600.66 17.6094 600.54 157.549 480.58 157.549C360.62 157.549 360.62 262.729 240.66 262.729C120.7 262.729 120.72 157.549 0.740234 157.549" stroke="url(#paint1_linear_385_131665)" stroke-width="0.75" stroke-miterlimit="10"/>
<path d="M493.77 96.3995C493.77 99.0895 491.58 101.28 488.89 101.28C486.2 101.28 484.01 99.0895 484.01 96.3995C484.01 93.7095 486.2 91.5195 488.89 91.5195C491.58 91.5195 493.77 93.7095 493.77 96.3995Z" fill="#031633" stroke="url(#paint2_linear_385_131665)" stroke-width="0.75" stroke-miterlimit="10"/>
<path d="M1256.94 137.259C1256.94 134.569 1254.75 132.379 1252.07 132.379C1249.39 132.379 1247.19 134.569 1247.19 137.259C1247.19 139.949 1249.38 142.139 1252.07 142.139C1254.76 142.139 1256.94 139.949 1256.94 137.259Z" fill="#031633" stroke="url(#paint3_linear_385_131665)" stroke-width="0.75" stroke-miterlimit="10"/>
<path d="M336.24 234.65C336.24 231.96 334.05 229.77 331.36 229.77C328.67 229.77 326.48 231.96 326.48 234.65C326.48 237.34 328.67 239.53 331.36 239.53C334.05 239.53 336.24 237.34 336.24 234.65Z" fill="#031633" stroke="url(#paint4_linear_385_131665)" stroke-width="0.75" stroke-miterlimit="10"/>
</g>
</g>
</g>
</g>
<defs>
<linearGradient id="paint0_linear_385_131665" x1="126.19" y1="-56.5008" x2="1314.81" y2="396.059" gradientUnits="userSpaceOnUse">
<stop stop-color="#004DF4"/>
<stop offset="1" stop-color="#26DDFF"/>
</linearGradient>
<linearGradient id="paint1_linear_385_131665" x1="657.99" y1="-78.7106" x2="794.82" y2="302.529" gradientUnits="userSpaceOnUse">
<stop stop-color="#237D14"/>
<stop offset="0.24" stop-color="#3F921F"/>
<stop offset="0.77" stop-color="#89C73B"/>
<stop offset="1" stop-color="#ABE048"/>
</linearGradient>
<linearGradient id="paint2_linear_385_131665" x1="483.29" y1="96.3995" x2="494.48" y2="96.3995" gradientUnits="userSpaceOnUse">
<stop stop-color="#004DF4"/>
<stop offset="1" stop-color="#26DDFF"/>
</linearGradient>
<linearGradient id="paint3_linear_385_131665" x1="1246.48" y1="137.269" x2="1257.67" y2="137.269" gradientUnits="userSpaceOnUse">
<stop stop-color="#146C43"/>
<stop offset="0.24" stop-color="#479F76"/>
<stop offset="0.77" stop-color="#75B798"/>
<stop offset="1" stop-color="#D1E7DD"/>
</linearGradient>
<linearGradient id="paint4_linear_385_131665" x1="325.78" y1="234.65" x2="336.97" y2="234.65" gradientUnits="userSpaceOnUse">
<stop stop-color="#146C43"/>
<stop offset="0.24" stop-color="#479F76"/>
<stop offset="0.77" stop-color="#75B798"/>
<stop offset="1" stop-color="#D1E7DD"/>
</linearGradient>
<clipPath id="clip0_385_131665">
<rect width="1440" height="270" fill="white"/>
</clipPath>
</defs>
</svg>
