<svg width="201" height="200" viewBox="0 0 201 200" fill="none" xmlns="http://www.w3.org/2000/svg">
<mask id="path-1-inside-1_3789_147910" fill="white">
<path d="M103.109 6.03619C103.201 2.72376 105.963 0.0943456 109.264 0.384723C127.293 1.97066 144.595 8.42518 159.295 19.1101C175.617 30.9734 187.968 47.4968 194.725 66.5091C201.483 85.5215 202.331 106.133 197.158 125.637C192.499 143.202 183.152 159.129 170.169 171.737C167.791 174.046 163.989 173.75 161.827 171.239L137.035 142.44C134.873 139.929 135.188 136.162 137.423 133.715C142.832 127.791 146.758 120.629 148.829 112.818C151.416 103.066 150.992 92.7605 147.613 83.2543C144.234 73.7482 138.059 65.4865 129.898 59.5548C123.361 54.8037 115.796 51.7255 107.861 50.5445C104.584 50.0567 101.962 47.3338 102.054 44.0213L103.109 6.03619Z"/>
</mask>
<path d="M103.109 6.03619C103.201 2.72376 105.963 0.0943456 109.264 0.384723C127.293 1.97066 144.595 8.42518 159.295 19.1101C175.617 30.9734 187.968 47.4968 194.725 66.5091C201.483 85.5215 202.331 106.133 197.158 125.637C192.499 143.202 183.152 159.129 170.169 171.737C167.791 174.046 163.989 173.75 161.827 171.239L137.035 142.44C134.873 139.929 135.188 136.162 137.423 133.715C142.832 127.791 146.758 120.629 148.829 112.818C151.416 103.066 150.992 92.7605 147.613 83.2543C144.234 73.7482 138.059 65.4865 129.898 59.5548C123.361 54.8037 115.796 51.7255 107.861 50.5445C104.584 50.0567 101.962 47.3338 102.054 44.0213L103.109 6.03619Z" fill="#2C43AB" stroke="white" stroke-width="4" mask="url(#path-1-inside-1_3789_147910)"/>
<mask id="path-2-inside-2_3789_147910" fill="white">
<path d="M161.446 171.564C163.595 174.087 163.302 177.89 160.655 179.883C149.345 188.4 136.336 194.432 122.48 197.554C106.669 201.117 90.23 200.783 74.5772 196.582C58.9244 192.381 44.5272 184.438 32.6253 173.438C20.7235 162.437 11.6736 148.709 6.25486 133.435C0.836158 118.161 -0.788962 101.799 1.51943 85.7571C3.82785 69.7155 10.0006 54.4754 19.5062 41.3489C29.0117 28.2224 41.5653 17.603 56.0859 10.405C68.8116 4.0967 82.7139 0.581929 96.8624 0.0670381C100.174 -0.0534756 102.798 2.71433 102.72 6.02712L101.822 44.0163C101.744 47.3291 98.9863 49.9138 95.6879 50.2327C89.6521 50.8162 83.7556 52.4947 78.2927 55.2027C71.0324 58.8017 64.7556 64.1114 60.0028 70.6747C55.25 77.2379 52.1636 84.858 51.0094 92.8788C49.8552 100.9 50.6678 109.081 53.3772 116.718C56.0865 124.355 60.6115 131.219 66.5624 136.719C72.5133 142.219 79.7119 146.19 87.5383 148.291C95.3647 150.392 103.584 150.559 111.49 148.777C117.438 147.437 123.074 145.024 128.128 141.674C130.89 139.843 134.66 140.111 136.808 142.634L161.446 171.564Z"/>
</mask>
<path d="M161.446 171.564C163.595 174.087 163.302 177.89 160.655 179.883C149.345 188.4 136.336 194.432 122.48 197.554C106.669 201.117 90.23 200.783 74.5772 196.582C58.9244 192.381 44.5272 184.438 32.6253 173.438C20.7235 162.437 11.6736 148.709 6.25486 133.435C0.836158 118.161 -0.788962 101.799 1.51943 85.7571C3.82785 69.7155 10.0006 54.4754 19.5062 41.3489C29.0117 28.2224 41.5653 17.603 56.0859 10.405C68.8116 4.0967 82.7139 0.581929 96.8624 0.0670381C100.174 -0.0534756 102.798 2.71433 102.72 6.02712L101.822 44.0163C101.744 47.3291 98.9863 49.9138 95.6879 50.2327C89.6521 50.8162 83.7556 52.4947 78.2927 55.2027C71.0324 58.8017 64.7556 64.1114 60.0028 70.6747C55.25 77.2379 52.1636 84.858 51.0094 92.8788C49.8552 100.9 50.6678 109.081 53.3772 116.718C56.0865 124.355 60.6115 131.219 66.5624 136.719C72.5133 142.219 79.7119 146.19 87.5383 148.291C95.3647 150.392 103.584 150.559 111.49 148.777C117.438 147.437 123.074 145.024 128.128 141.674C130.89 139.843 134.66 140.111 136.808 142.634L161.446 171.564Z" fill="#D9D9D9" stroke="white" stroke-width="4" mask="url(#path-2-inside-2_3789_147910)"/>
</svg>
