<svg width="48" height="48" viewBox="0 0 48 48" fill="none" xmlns="http://www.w3.org/2000/svg">
<path fill-rule="evenodd" clip-rule="evenodd" d="M34.625 20.8845C33.7921 24.6504 29.5748 27.5155 24.5 27.5155C18.8246 27.5155 14.2239 23.9346 14.2239 19.5152C14.2239 15.0958 18.8246 11.515 24.5 11.515C29.5767 11.515 33.7921 14.38 34.625 18.146H45.0011L24.2507 6.2098C24.0033 6.07004 23.6728 6.00016 23.3253 6.00016C22.9041 5.99638 22.4886 6.09837 22.1165 6.29857L1.52097 18.1441C0.892056 18.5067 0.822176 19.0582 1.36799 19.3717L24.7512 32.8226C24.9986 32.9623 25.3291 33.0322 25.6785 33.0322C26.0997 33.036 26.5152 32.9321 26.8872 32.7319L47.479 20.8883L47.4866 20.8845H34.6269H34.625ZM24.5019 16.0477C26.3433 16.0477 27.926 16.9146 28.6097 18.1516H31.0555C30.2773 15.9023 27.6389 14.2459 24.5038 14.2459C20.7567 14.2459 17.7198 16.6105 17.7198 19.5266C17.7198 22.4426 20.7567 24.8091 24.5038 24.8091C27.6484 24.8091 30.2906 23.1433 31.0611 20.8864H28.6191C27.9392 22.1329 26.3528 23.0073 24.5019 23.0073C22.0334 23.0073 20.0296 21.4492 20.0296 19.5266C20.0296 17.6039 22.0316 16.0458 24.5019 16.0458V16.0477Z" fill="white"/>
<path opacity="0.2" fill-rule="evenodd" clip-rule="evenodd" d="M47.6301 28.8923L44.5611 27.1264L26.8853 37.2948C26.5152 37.495 26.0997 37.5989 25.6766 37.5951C25.3272 37.5951 24.9967 37.5252 24.7493 37.3855L4.43702 25.6967L1.52097 27.3738C0.892056 27.7364 0.822176 28.2879 1.36799 28.6014L24.7512 42.0523C24.9986 42.1921 25.331 42.2619 25.6785 42.2619C26.0997 42.2657 26.5152 42.1637 26.8853 41.9616L47.479 30.118C48.1061 29.7554 48.1759 29.2039 47.632 28.8904L47.6301 28.8923Z" fill="white"/>
<path opacity="0.5" fill-rule="evenodd" clip-rule="evenodd" d="M47.6301 24.2671L44.5611 22.5012L26.8853 32.6696C26.5152 32.8698 26.0997 32.9737 25.6766 32.9699C25.3272 32.9699 24.9967 32.9 24.7493 32.7603L4.43702 21.0734L1.52097 22.7505C0.892056 23.1131 0.822176 23.6646 1.36799 23.9781L24.7512 37.4271C24.9986 37.5668 25.3291 37.6367 25.6785 37.6367C26.0997 37.6405 26.5152 37.5366 26.8853 37.3364L47.479 25.489C48.1079 25.1302 48.1778 24.5806 47.632 24.2671H47.6301Z" fill="white"/>
</svg>
