<svg width="15" height="15" viewBox="0 0 15 15" fill="none" xmlns="http://www.w3.org/2000/svg">
<path d="M7.99992 1.99967H10.7999C11.92 1.99967 12.4801 1.99967 12.9079 2.21766C13.2842 2.40941 13.5902 2.71537 13.7819 3.09169C13.9999 3.51952 13.9999 4.07957 13.9999 5.19967V10.7997C13.9999 11.9198 13.9999 12.4798 13.7819 12.9077C13.5902 13.284 13.2842 13.5899 12.9079 13.7817C12.4801 13.9997 11.92 13.9997 10.7999 13.9997H5.19992C4.07981 13.9997 3.51976 13.9997 3.09194 13.7817C2.71561 13.5899 2.40965 13.284 2.21791 12.9077C1.99992 12.4798 1.99992 11.9198 1.99992 10.7997V7.99967M5.33325 8.66634V11.333M10.6666 7.33301V11.333M7.99992 4.66634V11.333M1.33325 3.33301L3.33325 1.33301M3.33325 1.33301L5.33325 3.33301M3.33325 1.33301L3.33325 5.33301" stroke="#008582" stroke-linecap="round" stroke-linejoin="round"/>
</svg>
