<svg width="133" height="16" viewBox="0 0 133 16" fill="none" xmlns="http://www.w3.org/2000/svg">
<path d="M0 15.7273V0.272728H9.86364V3H3.13636V7.54545H8.63636V10.2727H3.13636V15.7273H0Z" fill="white"/>
<path d="M12.0739 15.7273V0.272728H15.2102V15.7273H12.0739Z" fill="white"/>
<path d="M18.5769 15.7273V0.272728H23.8723L27.5996 13H27.8269V0.272728H30.9632V15.7273H25.8042L21.9405 3H21.7132V15.7273H18.5769Z" fill="white"/>
<path d="M40.0169 11.2273H37.4714V15.7273H34.335V0.272728H40.0169C43.6835 0.272728 45.5169 2.06061 45.5169 5.63636C45.5169 7.43939 45.0472 8.82576 44.1078 9.79545C43.1835 10.75 41.8199 11.2273 40.0169 11.2273ZM37.4714 8.54545H39.9941C41.5547 8.54545 42.3351 7.57576 42.3351 5.63636C42.3351 4.68182 42.1457 4 41.7669 3.59091C41.3881 3.16667 40.7972 2.95455 39.9941 2.95455H37.4714V8.54545Z" fill="white"/>
<path d="M50.9229 12.0909C51.3775 12.8788 52.2184 13.2727 53.4457 13.2727C54.6729 13.2727 55.5063 12.8788 55.9457 12.0909C56.4002 11.2879 56.6275 9.95455 56.6275 8.09091C56.6275 6.21212 56.4002 4.84848 55.9457 4C55.4911 3.15152 54.6578 2.72727 53.4457 2.72727C52.2335 2.72727 51.4002 3.15152 50.9457 4C50.4911 4.84848 50.2638 6.21212 50.2638 8.09091C50.2638 9.95455 50.4835 11.2879 50.9229 12.0909ZM58.4002 14.0909C57.4457 15.3636 55.7942 16 53.4457 16C51.0972 16 49.4381 15.3636 48.4684 14.0909C47.5138 12.803 47.0366 10.7955 47.0366 8.06818C47.0366 5.34091 47.5138 3.31818 48.4684 2C49.4381 0.666667 51.0972 0 53.4457 0C55.7942 0 57.4457 0.666667 58.4002 2C59.3699 3.31818 59.8548 5.34091 59.8548 8.06818C59.8548 10.7955 59.3699 12.803 58.4002 14.0909Z" fill="white"/>
<path d="M67.2944 2.72727C65.6429 2.72727 64.8171 3.27273 64.8171 4.36364C64.8171 4.84848 65.0217 5.2197 65.4307 5.47727C65.8398 5.73485 66.7944 6.10606 68.2944 6.59091C69.8095 7.07576 70.8701 7.62879 71.4762 8.25C72.0823 8.85606 72.3853 9.79545 72.3853 11.0682C72.3853 12.6894 71.8929 13.9167 70.908 14.75C69.9232 15.5833 68.6353 16 67.0444 16C65.8626 16 64.4156 15.8182 62.7035 15.4545L61.8853 15.2955L62.2035 12.8636C64.2338 13.1364 65.7868 13.2727 66.8626 13.2727C68.4686 13.2727 69.2717 12.6061 69.2717 11.2727C69.2717 10.7879 69.0823 10.4091 68.7035 10.1364C68.3398 9.86364 67.605 9.56818 66.4989 9.25C64.7414 8.75 63.4989 8.15909 62.7717 7.47727C62.0595 6.7803 61.7035 5.81818 61.7035 4.59091C61.7035 3.04545 62.1732 1.89394 63.1126 1.13636C64.052 0.378788 65.3398 0 66.9762 0C68.0974 0 69.5217 0.151515 71.2489 0.454545L72.0671 0.613637L71.8171 3.09091C69.6808 2.84848 68.1732 2.72727 67.2944 2.72727Z" fill="white"/>
<path d="M74.9068 15.7273V0.272728H78.0431V15.7273H74.9068Z" fill="white"/>
<path d="M80.0234 3.04545V0.272728H91.3871V3.04545H87.2962V15.7273H84.1598V3.04545H80.0234Z" fill="white"/>
<path d="M96.4441 12.0909C96.8986 12.8788 97.7395 13.2727 98.9668 13.2727C100.194 13.2727 101.027 12.8788 101.467 12.0909C101.921 11.2879 102.149 9.95455 102.149 8.09091C102.149 6.21212 101.921 4.84848 101.467 4C101.012 3.15152 100.179 2.72727 98.9668 2.72727C97.7547 2.72727 96.9213 3.15152 96.4668 4C96.0122 4.84848 95.785 6.21212 95.785 8.09091C95.785 9.95455 96.0047 11.2879 96.4441 12.0909ZM103.921 14.0909C102.967 15.3636 101.315 16 98.9668 16C96.6183 16 94.9592 15.3636 93.9895 14.0909C93.035 12.803 92.5577 10.7955 92.5577 8.06818C92.5577 5.34091 93.035 3.31818 93.9895 2C94.9592 0.666667 96.6183 0 98.9668 0C101.315 0 102.967 0.666667 103.921 2C104.891 3.31818 105.376 5.34091 105.376 8.06818C105.376 10.7955 104.891 12.803 103.921 14.0909Z" fill="white"/>
<path d="M111.202 10.5455V15.7273H108.066V0.272728H114.066C117.702 0.272728 119.52 1.9697 119.52 5.36364C119.52 7.37879 118.762 8.86364 117.247 9.81818L119.452 15.7273H116.02L114.225 10.5455H111.202ZM114.111 7.86364C114.853 7.86364 115.406 7.63636 115.77 7.18182C116.134 6.72727 116.316 6.12879 116.316 5.38636C116.316 4.64394 116.119 4.05303 115.725 3.61364C115.346 3.17424 114.793 2.95455 114.066 2.95455H111.202V7.86364H114.111Z" fill="white"/>
<path d="M127.876 15.7273H124.74V9.47727L119.967 0.272728H123.444L126.285 6.43182L129.126 0.272728H132.603L127.876 9.47727V15.7273Z" fill="white"/>
</svg>
