<svg width="122" height="122" viewBox="0 0 122 122" fill="none" xmlns="http://www.w3.org/2000/svg">
<mask id="mask0_5942_152311" style="mask-type:luminance" maskUnits="userSpaceOnUse" x="0" y="0" width="122" height="122">
<path d="M122 0H0V122H122V0Z" fill="white"/>
</mask>
<g mask="url(#mask0_5942_152311)">
<path d="M61.0002 109.393C87.95 109.393 109.8 87.5428 109.8 60.593C109.8 33.6432 87.95 11.793 61.0002 11.793C34.0504 11.793 12.2002 33.6432 12.2002 60.593C12.2002 87.5428 34.0504 109.393 61.0002 109.393Z" fill="#ECEFF4"/>
<path d="M80.333 25.8477H42.7C39.1065 25.8477 36.1934 28.7608 36.1934 32.3543V82.3865C36.1934 85.9801 39.1065 88.8932 42.7 88.8932H80.333C83.9265 88.8932 86.8396 85.9801 86.8396 82.3865V32.3543C86.8396 28.7608 83.9265 25.8477 80.333 25.8477Z" fill="white"/>
<path d="M59.0077 33.9805H42.6597C41.5591 33.9805 40.667 34.8726 40.667 35.9731C40.667 37.0737 41.5591 37.9658 42.6597 37.9658H59.0077C60.1082 37.9658 61.0003 37.0737 61.0003 35.9731C61.0003 34.8726 60.1082 33.9805 59.0077 33.9805Z" fill="#95A7C1"/>
<path d="M79.341 45.2861H42.6597C41.5591 45.2861 40.667 46.1783 40.667 47.2788C40.667 48.3793 41.5591 49.2715 42.6597 49.2715H79.341C80.4415 49.2715 81.3337 48.3793 81.3337 47.2788C81.3337 46.1783 80.4415 45.2861 79.341 45.2861Z" fill="#BCC7D7"/>
<path d="M79.341 56.5908H42.6597C41.5591 56.5908 40.667 57.483 40.667 58.5835C40.667 59.684 41.5591 60.5762 42.6597 60.5762H79.341C80.4415 60.5762 81.3337 59.684 81.3337 58.5835C81.3337 57.483 80.4415 56.5908 79.341 56.5908Z" fill="#BCC7D7"/>
<path d="M79.341 67.8965H42.6597C41.5591 67.8965 40.667 68.7886 40.667 69.8891C40.667 70.9897 41.5591 71.8818 42.6597 71.8818H79.341C80.4415 71.8818 81.3337 70.9897 81.3337 69.8891C81.3337 68.7886 80.4415 67.8965 79.341 67.8965Z" fill="#BCC7D7"/>
<path d="M42.6597 79.2012H79.341C80.4431 79.2012 81.3337 80.0918 81.3337 81.1938C81.3337 82.2959 80.4431 83.1865 79.341 83.1865H42.6597C41.5576 83.1865 40.667 82.2959 40.667 81.1938C40.667 80.0918 41.5576 79.2012 42.6597 79.2012Z" fill="#BCC7D7"/>
<path fill-rule="evenodd" clip-rule="evenodd" d="M22.8995 37.0748C22.8914 36.4933 22.8182 35.9117 22.6759 35.3221C22.1635 33.2562 19.8902 31.9305 17.4665 31.6173C15.0427 31.3042 12.5255 32.0159 11.5535 33.8133C10.9964 34.8422 10.9232 35.7287 11.1469 36.4729C11.3746 37.2171 11.9073 37.8312 12.6353 38.3111C14.6645 39.649 18.2147 39.9215 19.8373 39.3603C20.5856 39.1 21.3176 38.7909 22.0333 38.4331C21.6267 40.7714 20.1057 42.9837 18.0805 44.9763C13.6723 49.3114 6.83621 52.6013 3.11115 53.8132C2.91188 53.8783 2.79801 54.0979 2.86308 54.3093C2.92408 54.5167 3.13961 54.6347 3.33888 54.5696C7.13715 53.3374 14.1074 49.9742 18.6011 45.5538C20.9231 43.2683 22.5783 40.6982 22.8589 37.9979C28.1049 35.0699 32.4155 29.7548 36.0999 25.2855C36.2382 25.1229 36.2179 24.8707 36.0593 24.7284C35.9007 24.5861 35.6607 24.6023 35.5225 24.7691C31.9885 29.0594 27.8853 34.159 22.8995 37.0748ZM22.135 37.4977C22.1635 36.8471 22.1025 36.1842 21.9357 35.5173C21.4925 33.7279 19.4673 32.6706 17.3689 32.4022C16.0838 32.2355 14.7621 32.3737 13.7251 32.8577C13.0745 33.1627 12.5377 33.6019 12.2123 34.2037C11.7894 34.9886 11.6959 35.6637 11.8707 36.233C12.0456 36.8064 12.4767 37.27 13.0419 37.6401C14.8923 38.8601 18.1253 39.1163 19.6015 38.6079C20.4717 38.307 21.3176 37.9329 22.1391 37.4977H22.135Z" fill="#1F2835"/>
<path d="M115.9 77.2657C117.248 77.2657 118.34 76.1733 118.34 74.8257C118.34 73.4782 117.248 72.3857 115.9 72.3857C114.552 72.3857 113.46 73.4782 113.46 74.8257C113.46 76.1733 114.552 77.2657 115.9 77.2657Z" fill="#5E79A0"/>
<path fill-rule="evenodd" clip-rule="evenodd" d="M23.7411 91.6582C24.1762 91.4956 24.6357 91.28 24.9895 90.9628C25.4084 90.5887 25.5792 90.1088 25.6931 89.6046C25.8395 88.9539 25.9005 88.2626 26.0794 87.6119C26.1445 87.3679 26.2705 87.2784 26.3275 87.2378C26.4657 87.1361 26.604 87.1076 26.7341 87.1198C26.8887 87.132 27.1042 87.193 27.2425 87.4696C27.2628 87.5102 27.2872 87.5672 27.3075 87.6526C27.3197 87.7136 27.3279 87.9006 27.3441 87.9779C27.3767 88.169 27.4051 88.3602 27.4336 88.5513C27.5231 89.1898 27.5719 89.7306 27.8525 90.3162C28.2307 91.1133 28.6089 91.5972 29.1253 91.8128C29.6215 92.0202 30.2193 91.9836 30.9797 91.8168C31.0529 91.7965 31.1221 91.7843 31.1953 91.768C31.5287 91.707 31.85 91.9388 31.9151 92.2886C31.9801 92.6383 31.7687 92.9799 31.4352 93.0572C31.3661 93.0734 31.2969 93.0897 31.2319 93.1019C30.203 93.3703 29.0155 94.326 28.3242 95.1596C28.1127 95.4158 27.7996 96.1397 27.4824 96.5992C27.2465 96.9368 26.9822 97.1604 26.7626 97.2418C26.6121 97.2946 26.4901 97.2865 26.3844 97.258C26.2339 97.2174 26.1079 97.132 26.0143 96.9978C25.9615 96.9246 25.9127 96.8229 25.8923 96.6968C25.8801 96.6358 25.8801 96.4813 25.8801 96.4081C25.8151 96.1722 25.7378 95.9445 25.6768 95.7086C25.5385 95.1434 25.2701 94.7855 24.9489 94.3138C24.6479 93.8705 24.3267 93.594 23.8509 93.3703C23.7899 93.354 23.2937 93.228 23.1189 93.1548C22.8627 93.049 22.7407 92.866 22.6959 92.7684C22.6187 92.6058 22.6146 92.4594 22.6268 92.3414C22.6471 92.1625 22.7244 92.012 22.8586 91.89C22.9399 91.8128 23.066 91.7396 23.2327 91.703C23.3629 91.6745 23.7004 91.6582 23.7492 91.6582H23.7411ZM26.6569 90.7392C26.6813 90.792 26.7057 90.849 26.7301 90.9018C27.2831 92.069 27.9053 92.7196 28.6577 93.0328L28.6821 93.045C28.1778 93.4394 27.7223 93.8786 27.3726 94.3016C27.2303 94.4764 27.0391 94.8384 26.8317 95.2084C26.6447 94.57 26.3397 94.1186 25.9574 93.5533C25.6646 93.1222 25.3555 92.7969 24.9773 92.5326C25.2701 92.374 25.5507 92.1869 25.7947 91.9714C26.2014 91.6094 26.4698 91.1946 26.6528 90.7392H26.6569Z" fill="#37475D"/>
</g>
<path d="M69.9229 31.9722H85.0769C85.5266 31.9722 85.7514 31.9722 85.8798 31.8779C85.9917 31.7957 86.0632 31.6695 86.0761 31.5312C86.0909 31.3726 85.9752 31.1798 85.7439 30.7943L83.7741 27.5113C83.6868 27.3658 83.6431 27.293 83.6261 27.2154C83.611 27.1467 83.611 27.0755 83.6261 27.0068C83.6431 26.9292 83.6868 26.8564 83.7741 26.7109L85.7439 23.4279C85.9752 23.0424 86.0909 22.8496 86.0761 22.691C86.0632 22.5527 85.9917 22.4265 85.8798 22.3443C85.7514 22.25 85.5266 22.25 85.0769 22.25H69.9229L69.9229 39.75" stroke="#667085" stroke-width="1.4" stroke-linecap="round" stroke-linejoin="round"/>
</svg>
