<svg width="14" height="16" viewBox="0 0 14 16" fill="none" xmlns="http://www.w3.org/2000/svg">
<path d="M12.6615 1H0.538208V8.77778H12.6615C13.0212 8.77778 13.201 8.77778 13.3037 8.70235C13.3933 8.63658 13.4505 8.53563 13.4608 8.42498C13.4726 8.2981 13.3801 8.14387 13.195 7.83546L13.195 7.83542L11.6192 5.20902L11.6192 5.20901C11.5493 5.09262 11.5144 5.03443 11.5008 4.9723C11.4887 4.91735 11.4887 4.86043 11.5008 4.80548C11.5144 4.74335 11.5493 4.68516 11.6192 4.56877L11.6192 4.56876L13.195 1.94235C13.3801 1.63391 13.4726 1.47969 13.4608 1.3528C13.4505 1.24215 13.3933 1.1412 13.3037 1.07543C13.201 1 13.0212 1 12.6615 1Z" fill="#03543F"/>
<path d="M0.538208 8.77778H12.6615C13.0212 8.77778 13.201 8.77778 13.3037 8.70235C13.3933 8.63658 13.4505 8.53563 13.4608 8.42498C13.4726 8.29809 13.3801 8.14386 13.195 7.83542L11.6192 5.20902C11.5493 5.09263 11.5144 5.03443 11.5008 4.9723C11.4887 4.91735 11.4887 4.86043 11.5008 4.80548C11.5144 4.74335 11.5493 4.68515 11.6192 4.56876L13.195 1.94235C13.3801 1.63391 13.4726 1.47969 13.4608 1.3528C13.4505 1.24215 13.3933 1.1412 13.3037 1.07543C13.201 1 13.0212 1 12.6615 1H0.538208L0.538209 15" stroke="#03543F" stroke-linecap="round" stroke-linejoin="round"/>
</svg>
