<svg width="16" height="14" viewBox="0 0 16 14" fill="none" xmlns="http://www.w3.org/2000/svg">
<path d="M1.33325 10.3333V10.2332C1.33325 10.0222 1.33325 9.91671 1.34939 9.81393C1.36372 9.72268 1.38749 9.63315 1.42033 9.54681C1.45731 9.44957 1.50965 9.35797 1.61433 9.17477L3.99992 5M1.33325 10.3333C1.33325 11.8061 2.52716 13 3.99992 13C5.47268 13 6.66659 11.8061 6.66659 10.3333M1.33325 10.3333V10.2C1.33325 10.0133 1.33325 9.91997 1.36958 9.84867C1.40154 9.78595 1.45253 9.73496 1.51526 9.703C1.58656 9.66667 1.6799 9.66667 1.86659 9.66667H6.13325C6.31994 9.66667 6.41328 9.66667 6.48458 9.703C6.5473 9.73496 6.5983 9.78595 6.63025 9.84867C6.66659 9.91997 6.66659 10.0133 6.66659 10.2V10.3333M3.99992 5L6.3855 9.17477C6.49019 9.35797 6.54253 9.44957 6.57951 9.54681C6.61234 9.63315 6.63612 9.72268 6.65045 9.81393C6.66659 9.91671 6.66659 10.0222 6.66659 10.2332V10.3333M3.99992 5L11.9999 3.66667M9.33325 9V8.89987C9.33325 8.68888 9.33325 8.58338 9.34939 8.4806C9.36372 8.38934 9.38749 8.29982 9.42033 8.21348C9.45731 8.11623 9.50965 8.02463 9.61433 7.84144L11.9999 3.66667M9.33325 9C9.33325 10.4728 10.5272 11.6667 11.9999 11.6667C13.4727 11.6667 14.6666 10.4728 14.6666 9M9.33325 9V8.86667C9.33325 8.67998 9.33325 8.58664 9.36958 8.51534C9.40154 8.45262 9.45253 8.40162 9.51526 8.36966C9.58656 8.33333 9.6799 8.33333 9.86659 8.33333H14.1333C14.3199 8.33333 14.4133 8.33333 14.4846 8.36966C14.5473 8.40162 14.5983 8.45262 14.6303 8.51534C14.6666 8.58664 14.6666 8.67998 14.6666 8.86667V9M11.9999 3.66667L14.3855 7.84144C14.4902 8.02463 14.5425 8.11623 14.5795 8.21348C14.6123 8.29982 14.6361 8.38934 14.6504 8.4806C14.6666 8.58338 14.6666 8.68888 14.6666 8.89987V9M7.99992 1V4.33333" stroke="#008582" stroke-linecap="round" stroke-linejoin="round"/>
</svg>
