<svg width="16" height="16" viewBox="0 0 16 16" fill="none" xmlns="http://www.w3.org/2000/svg">
<path d="M7.22222 1.77778H4.73333C3.42654 1.77778 2.77315 1.77778 2.27402 2.0321C1.83498 2.2558 1.47802 2.61276 1.25432 3.0518C1 3.55093 1 4.20432 1 5.51111V11.2667C1 12.5735 1 13.2269 1.25432 13.726C1.47802 14.165 1.83498 14.522 2.27402 14.7457C2.77315 15 3.42654 15 4.73333 15H10.4889C11.7957 15 12.4491 15 12.9482 14.7457C13.3872 14.522 13.7442 14.165 13.9679 13.726C14.2222 13.2269 14.2222 12.5735 14.2222 11.2667V8.77778M8.77778 11.8889H4.11111M10.3333 8.77778H4.11111M14.3166 1.68342C15.2278 2.59464 15.2278 4.07203 14.3166 4.98325C13.4054 5.89447 11.928 5.89447 11.0168 4.98325C10.1055 4.07203 10.1055 2.59464 11.0168 1.68342C11.928 0.772194 13.4054 0.772194 14.3166 1.68342Z" stroke="#008582" stroke-linecap="round" stroke-linejoin="round"/>
</svg>
