<svg width="216" height="132" viewBox="0 0 216 132" fill="none" xmlns="http://www.w3.org/2000/svg">
<rect x="0.5" y="0.5" width="215" height="131" rx="3.5" fill="#F8F9FA"/>
<path d="M107 46.5C107 47.8807 105.881 49 104.5 49C103.119 49 102 47.8807 102 46.5C102 45.1193 103.119 44 104.5 44C105.881 44 107 45.1193 107 46.5Z" fill="#ADB5BD"/>
<path d="M111.225 50.5528C111.033 50.4566 110.8 50.4943 110.648 50.6465L106.938 55.3566L104.279 52.584C104.081 52.4518 103.816 52.4779 103.648 52.6465L100.001 57V59C100.001 59.5523 100.449 60 101.001 60H115.001C115.554 60 116.001 59.5523 116.001 59V54.5L111.225 50.5528Z" fill="#ADB5BD"/>
<path d="M66.3359 75.8906V83H65.3936V75.8906H66.3359ZM68.8115 78.7666V83H67.9033V77.7168H68.7627L68.8115 78.7666ZM68.626 80.1582L68.2061 80.1436C68.2093 79.7822 68.2565 79.4486 68.3477 79.1426C68.4388 78.8333 68.5739 78.5648 68.7529 78.3369C68.932 78.109 69.1549 77.9333 69.4219 77.8096C69.6888 77.6826 69.998 77.6191 70.3496 77.6191C70.597 77.6191 70.8249 77.6549 71.0332 77.7266C71.2415 77.7949 71.4222 77.904 71.5752 78.0537C71.7282 78.2035 71.847 78.3955 71.9316 78.6299C72.0163 78.8643 72.0586 79.1475 72.0586 79.4795V83H71.1553V79.5234C71.1553 79.2467 71.1081 79.0254 71.0137 78.8594C70.9225 78.6934 70.7923 78.5729 70.623 78.498C70.4538 78.4199 70.2552 78.3809 70.0273 78.3809C69.7604 78.3809 69.5374 78.4281 69.3584 78.5225C69.1794 78.6169 69.0361 78.7471 68.9287 78.9131C68.8213 79.0791 68.7432 79.2695 68.6943 79.4844C68.6488 79.696 68.626 79.9206 68.626 80.1582ZM72.0488 79.6602L71.4434 79.8457C71.4466 79.556 71.4938 79.2777 71.585 79.0107C71.6794 78.7438 71.8145 78.5062 71.9902 78.2979C72.1693 78.0895 72.389 77.9251 72.6494 77.8047C72.9098 77.681 73.2077 77.6191 73.543 77.6191C73.8262 77.6191 74.0768 77.6566 74.2949 77.7314C74.5163 77.8063 74.7018 77.9219 74.8516 78.0781C75.0046 78.2311 75.1201 78.4281 75.1982 78.6689C75.2764 78.9098 75.3154 79.1963 75.3154 79.5283V83H74.4072V79.5186C74.4072 79.2223 74.36 78.9928 74.2656 78.8301C74.1745 78.6641 74.0443 78.5485 73.875 78.4834C73.709 78.415 73.5104 78.3809 73.2793 78.3809C73.0807 78.3809 72.9049 78.415 72.752 78.4834C72.599 78.5518 72.4704 78.6462 72.3662 78.7666C72.262 78.8838 72.1823 79.0189 72.127 79.1719C72.0749 79.3249 72.0488 79.4876 72.0488 79.6602ZM79.7979 82.0967V79.377C79.7979 79.1686 79.7555 78.988 79.6709 78.835C79.5895 78.6787 79.4658 78.5583 79.2998 78.4736C79.1338 78.389 78.9287 78.3467 78.6846 78.3467C78.4567 78.3467 78.2565 78.3857 78.084 78.4639C77.9147 78.542 77.7812 78.6445 77.6836 78.7715C77.5892 78.8984 77.542 79.0352 77.542 79.1816H76.6387C76.6387 78.9928 76.6875 78.8057 76.7852 78.6201C76.8828 78.4346 77.0228 78.2669 77.2051 78.1172C77.3906 77.9642 77.612 77.8438 77.8691 77.7559C78.1296 77.6647 78.4193 77.6191 78.7383 77.6191C79.1224 77.6191 79.4609 77.6842 79.7539 77.8145C80.0501 77.9447 80.2812 78.1416 80.4473 78.4053C80.6165 78.6657 80.7012 78.9928 80.7012 79.3867V81.8477C80.7012 82.0234 80.7158 82.2106 80.7451 82.4092C80.7777 82.6077 80.8249 82.7786 80.8867 82.9219V83H79.9443C79.8988 82.8958 79.863 82.7575 79.8369 82.585C79.8109 82.4092 79.7979 82.2464 79.7979 82.0967ZM79.9541 79.7969L79.9639 80.4316H79.0508C78.7936 80.4316 78.5641 80.4528 78.3623 80.4951C78.1605 80.5342 77.9912 80.5944 77.8545 80.6758C77.7178 80.7572 77.6136 80.8597 77.542 80.9834C77.4704 81.1038 77.4346 81.2454 77.4346 81.4082C77.4346 81.5742 77.472 81.7256 77.5469 81.8623C77.6217 81.999 77.734 82.1081 77.8838 82.1895C78.0368 82.2676 78.224 82.3066 78.4453 82.3066C78.722 82.3066 78.9661 82.248 79.1777 82.1309C79.3893 82.0137 79.557 81.8704 79.6807 81.7012C79.8076 81.5319 79.876 81.3675 79.8857 81.208L80.2715 81.6426C80.2487 81.7793 80.1868 81.9307 80.0859 82.0967C79.985 82.2627 79.8499 82.4222 79.6807 82.5752C79.5146 82.7249 79.3161 82.8503 79.085 82.9512C78.8571 83.0488 78.5999 83.0977 78.3135 83.0977C77.9554 83.0977 77.6413 83.0277 77.3711 82.8877C77.1042 82.7477 76.8958 82.5605 76.7461 82.3262C76.5996 82.0885 76.5264 81.8232 76.5264 81.5303C76.5264 81.2471 76.5817 80.998 76.6924 80.7832C76.8031 80.5651 76.9626 80.3844 77.1709 80.2412C77.3792 80.0947 77.6299 79.984 77.9229 79.9092C78.2158 79.8343 78.543 79.7969 78.9043 79.7969H79.9541ZM85.5449 77.7168H86.3652V82.8877C86.3652 83.3532 86.2708 83.7503 86.082 84.0791C85.8932 84.4079 85.6296 84.6569 85.291 84.8262C84.9557 84.9987 84.5684 85.085 84.1289 85.085C83.9466 85.085 83.7318 85.0557 83.4844 84.9971C83.2402 84.9417 82.9993 84.8457 82.7617 84.709C82.5273 84.5755 82.3304 84.3949 82.1709 84.167L82.6445 83.6299C82.8659 83.8968 83.097 84.0824 83.3379 84.1865C83.582 84.2907 83.8229 84.3428 84.0605 84.3428C84.347 84.3428 84.5944 84.2891 84.8027 84.1816C85.0111 84.0742 85.1722 83.9147 85.2861 83.7031C85.4033 83.4948 85.4619 83.2376 85.4619 82.9316V78.8789L85.5449 77.7168ZM81.9072 80.417V80.3145C81.9072 79.9108 81.9544 79.5446 82.0488 79.2158C82.1465 78.8838 82.2848 78.599 82.4639 78.3613C82.6462 78.1237 82.8659 77.9414 83.123 77.8145C83.3802 77.6842 83.6699 77.6191 83.9922 77.6191C84.3242 77.6191 84.6139 77.6777 84.8613 77.7949C85.112 77.9089 85.3236 78.0765 85.4961 78.2979C85.6719 78.516 85.8102 78.7796 85.9111 79.0889C86.012 79.3981 86.082 79.748 86.1211 80.1387V80.5879C86.0853 80.9753 86.0153 81.3236 85.9111 81.6328C85.8102 81.9421 85.6719 82.2057 85.4961 82.4238C85.3236 82.6419 85.112 82.8096 84.8613 82.9268C84.6107 83.0407 84.3177 83.0977 83.9824 83.0977C83.6667 83.0977 83.3802 83.0309 83.123 82.8975C82.8691 82.764 82.651 82.5768 82.4688 82.3359C82.2865 82.0951 82.1465 81.8118 82.0488 81.4863C81.9544 81.1576 81.9072 80.8011 81.9072 80.417ZM82.8105 80.3145V80.417C82.8105 80.6807 82.8366 80.9281 82.8887 81.1592C82.944 81.3903 83.027 81.5938 83.1377 81.7695C83.2516 81.9453 83.3965 82.0837 83.5723 82.1846C83.748 82.2822 83.958 82.3311 84.2021 82.3311C84.5016 82.3311 84.749 82.2676 84.9443 82.1406C85.1396 82.0137 85.2943 81.846 85.4082 81.6377C85.5254 81.4294 85.6165 81.2031 85.6816 80.959V79.7822C85.6458 79.6032 85.5905 79.4307 85.5156 79.2646C85.444 79.0954 85.3496 78.9456 85.2324 78.8154C85.1185 78.682 84.9769 78.5762 84.8076 78.498C84.6383 78.4199 84.4398 78.3809 84.2119 78.3809C83.9645 78.3809 83.7513 78.4329 83.5723 78.5371C83.3965 78.638 83.2516 78.778 83.1377 78.957C83.027 79.1328 82.944 79.3379 82.8887 79.5723C82.8366 79.8034 82.8105 80.0508 82.8105 80.3145ZM89.9297 83.0977C89.5618 83.0977 89.2282 83.0358 88.9287 82.9121C88.6325 82.7852 88.377 82.6077 88.1621 82.3799C87.9505 82.152 87.7878 81.8818 87.6738 81.5693C87.5599 81.2568 87.5029 80.915 87.5029 80.5439V80.3389C87.5029 79.9092 87.5664 79.5267 87.6934 79.1914C87.8203 78.8529 87.9928 78.5664 88.2109 78.332C88.429 78.0977 88.6764 77.9202 88.9531 77.7998C89.2298 77.6794 89.5163 77.6191 89.8125 77.6191C90.1901 77.6191 90.5156 77.6842 90.7891 77.8145C91.0658 77.9447 91.292 78.127 91.4678 78.3613C91.6436 78.5924 91.7738 78.8659 91.8584 79.1816C91.943 79.4941 91.9854 79.8359 91.9854 80.207V80.6123H88.04V79.875H91.082V79.8066C91.069 79.5723 91.0202 79.3444 90.9355 79.123C90.8542 78.9017 90.724 78.7194 90.5449 78.5762C90.3659 78.4329 90.1217 78.3613 89.8125 78.3613C89.6074 78.3613 89.4186 78.4053 89.2461 78.4932C89.0736 78.5778 88.9255 78.7048 88.8018 78.874C88.6781 79.0433 88.582 79.25 88.5137 79.4941C88.4453 79.7383 88.4111 80.0199 88.4111 80.3389V80.5439C88.4111 80.7946 88.4453 81.0306 88.5137 81.252C88.5853 81.4701 88.6878 81.6621 88.8213 81.8281C88.958 81.9941 89.1224 82.1243 89.3145 82.2188C89.5098 82.3132 89.7311 82.3604 89.9785 82.3604C90.2975 82.3604 90.5677 82.2952 90.7891 82.165C91.0104 82.0348 91.2041 81.8607 91.3701 81.6426L91.917 82.0771C91.8031 82.2497 91.6582 82.4141 91.4824 82.5703C91.3066 82.7266 91.0902 82.8535 90.833 82.9512C90.5791 83.0488 90.278 83.0977 89.9297 83.0977ZM96.4238 78.8447V83H95.5205V77.7168H96.375L96.4238 78.8447ZM96.209 80.1582L95.833 80.1436C95.8363 79.7822 95.89 79.4486 95.9941 79.1426C96.0983 78.8333 96.2448 78.5648 96.4336 78.3369C96.6224 78.109 96.847 77.9333 97.1074 77.8096C97.3711 77.6826 97.6624 77.6191 97.9814 77.6191C98.2419 77.6191 98.4762 77.6549 98.6846 77.7266C98.8929 77.7949 99.0703 77.9056 99.2168 78.0586C99.3665 78.2116 99.4805 78.4102 99.5586 78.6543C99.6367 78.8952 99.6758 79.1898 99.6758 79.5381V83H98.7676V79.5283C98.7676 79.2516 98.7269 79.0303 98.6455 78.8643C98.5641 78.695 98.4453 78.5729 98.2891 78.498C98.1328 78.4199 97.9408 78.3809 97.7129 78.3809C97.4883 78.3809 97.2832 78.4281 97.0977 78.5225C96.9154 78.6169 96.7575 78.7471 96.624 78.9131C96.4938 79.0791 96.3913 79.2695 96.3164 79.4844C96.2448 79.696 96.209 79.9206 96.209 80.1582ZM100.809 80.417V80.3047C100.809 79.9238 100.864 79.5706 100.975 79.2451C101.085 78.9163 101.245 78.6315 101.453 78.3906C101.661 78.1465 101.914 77.9577 102.21 77.8242C102.506 77.6875 102.838 77.6191 103.206 77.6191C103.577 77.6191 103.911 77.6875 104.207 77.8242C104.507 77.9577 104.76 78.1465 104.969 78.3906C105.18 78.6315 105.341 78.9163 105.452 79.2451C105.563 79.5706 105.618 79.9238 105.618 80.3047V80.417C105.618 80.7979 105.563 81.151 105.452 81.4766C105.341 81.8021 105.18 82.0869 104.969 82.3311C104.76 82.5719 104.508 82.7607 104.212 82.8975C103.919 83.0309 103.587 83.0977 103.216 83.0977C102.845 83.0977 102.511 83.0309 102.215 82.8975C101.919 82.7607 101.665 82.5719 101.453 82.3311C101.245 82.0869 101.085 81.8021 100.975 81.4766C100.864 81.151 100.809 80.7979 100.809 80.417ZM101.712 80.3047V80.417C101.712 80.6807 101.743 80.9297 101.805 81.1641C101.867 81.3952 101.959 81.6003 102.083 81.7793C102.21 81.9583 102.368 82.0999 102.557 82.2041C102.745 82.305 102.965 82.3555 103.216 82.3555C103.463 82.3555 103.68 82.305 103.865 82.2041C104.054 82.0999 104.21 81.9583 104.334 81.7793C104.458 81.6003 104.55 81.3952 104.612 81.1641C104.677 80.9297 104.71 80.6807 104.71 80.417V80.3047C104.71 80.0443 104.677 79.7985 104.612 79.5674C104.55 79.333 104.456 79.1263 104.329 78.9473C104.205 78.765 104.049 78.6217 103.86 78.5176C103.675 78.4134 103.457 78.3613 103.206 78.3613C102.959 78.3613 102.741 78.4134 102.552 78.5176C102.366 78.6217 102.21 78.765 102.083 78.9473C101.959 79.1263 101.867 79.333 101.805 79.5674C101.743 79.7985 101.712 80.0443 101.712 80.3047ZM108.963 77.7168V78.4102H106.106V77.7168H108.963ZM107.073 76.4326H107.977V81.6914C107.977 81.8704 108.004 82.0055 108.06 82.0967C108.115 82.1878 108.187 82.248 108.274 82.2773C108.362 82.3066 108.457 82.3213 108.558 82.3213C108.632 82.3213 108.711 82.3148 108.792 82.3018C108.877 82.2855 108.94 82.2725 108.982 82.2627L108.987 83C108.916 83.0228 108.821 83.0439 108.704 83.0635C108.59 83.0863 108.452 83.0977 108.289 83.0977C108.068 83.0977 107.864 83.0537 107.679 82.9658C107.493 82.8779 107.345 82.7314 107.234 82.5264C107.127 82.318 107.073 82.0381 107.073 81.6865V76.4326ZM115.618 82.0967V79.377C115.618 79.1686 115.576 78.988 115.491 78.835C115.41 78.6787 115.286 78.5583 115.12 78.4736C114.954 78.389 114.749 78.3467 114.505 78.3467C114.277 78.3467 114.077 78.3857 113.904 78.4639C113.735 78.542 113.602 78.6445 113.504 78.7715C113.41 78.8984 113.362 79.0352 113.362 79.1816H112.459C112.459 78.9928 112.508 78.8057 112.605 78.6201C112.703 78.4346 112.843 78.2669 113.025 78.1172C113.211 77.9642 113.432 77.8438 113.689 77.7559C113.95 77.6647 114.24 77.6191 114.559 77.6191C114.943 77.6191 115.281 77.6842 115.574 77.8145C115.87 77.9447 116.102 78.1416 116.268 78.4053C116.437 78.6657 116.521 78.9928 116.521 79.3867V81.8477C116.521 82.0234 116.536 82.2106 116.565 82.4092C116.598 82.6077 116.645 82.7786 116.707 82.9219V83H115.765C115.719 82.8958 115.683 82.7575 115.657 82.585C115.631 82.4092 115.618 82.2464 115.618 82.0967ZM115.774 79.7969L115.784 80.4316H114.871C114.614 80.4316 114.384 80.4528 114.183 80.4951C113.981 80.5342 113.812 80.5944 113.675 80.6758C113.538 80.7572 113.434 80.8597 113.362 80.9834C113.291 81.1038 113.255 81.2454 113.255 81.4082C113.255 81.5742 113.292 81.7256 113.367 81.8623C113.442 81.999 113.554 82.1081 113.704 82.1895C113.857 82.2676 114.044 82.3066 114.266 82.3066C114.542 82.3066 114.786 82.248 114.998 82.1309C115.21 82.0137 115.377 81.8704 115.501 81.7012C115.628 81.5319 115.696 81.3675 115.706 81.208L116.092 81.6426C116.069 81.7793 116.007 81.9307 115.906 82.0967C115.805 82.2627 115.67 82.4222 115.501 82.5752C115.335 82.7249 115.136 82.8503 114.905 82.9512C114.677 83.0488 114.42 83.0977 114.134 83.0977C113.776 83.0977 113.462 83.0277 113.191 82.8877C112.924 82.7477 112.716 82.5605 112.566 82.3262C112.42 82.0885 112.347 81.8232 112.347 81.5303C112.347 81.2471 112.402 80.998 112.513 80.7832C112.623 80.5651 112.783 80.3844 112.991 80.2412C113.2 80.0947 113.45 79.984 113.743 79.9092C114.036 79.8343 114.363 79.7969 114.725 79.7969H115.774ZM119.471 82.1846L120.916 77.7168H121.839L119.939 83H119.334L119.471 82.1846ZM118.265 77.7168L119.754 82.209L119.856 83H119.251L117.337 77.7168H118.265ZM125.745 82.0967V79.377C125.745 79.1686 125.703 78.988 125.618 78.835C125.537 78.6787 125.413 78.5583 125.247 78.4736C125.081 78.389 124.876 78.3467 124.632 78.3467C124.404 78.3467 124.204 78.3857 124.031 78.4639C123.862 78.542 123.729 78.6445 123.631 78.7715C123.536 78.8984 123.489 79.0352 123.489 79.1816H122.586C122.586 78.9928 122.635 78.8057 122.732 78.6201C122.83 78.4346 122.97 78.2669 123.152 78.1172C123.338 77.9642 123.559 77.8438 123.816 77.7559C124.077 77.6647 124.367 77.6191 124.686 77.6191C125.07 77.6191 125.408 77.6842 125.701 77.8145C125.997 77.9447 126.229 78.1416 126.395 78.4053C126.564 78.6657 126.648 78.9928 126.648 79.3867V81.8477C126.648 82.0234 126.663 82.2106 126.692 82.4092C126.725 82.6077 126.772 82.7786 126.834 82.9219V83H125.892C125.846 82.8958 125.81 82.7575 125.784 82.585C125.758 82.4092 125.745 82.2464 125.745 82.0967ZM125.901 79.7969L125.911 80.4316H124.998C124.741 80.4316 124.511 80.4528 124.31 80.4951C124.108 80.5342 123.938 80.5944 123.802 80.6758C123.665 80.7572 123.561 80.8597 123.489 80.9834C123.418 81.1038 123.382 81.2454 123.382 81.4082C123.382 81.5742 123.419 81.7256 123.494 81.8623C123.569 81.999 123.681 82.1081 123.831 82.1895C123.984 82.2676 124.171 82.3066 124.393 82.3066C124.669 82.3066 124.913 82.248 125.125 82.1309C125.337 82.0137 125.504 81.8704 125.628 81.7012C125.755 81.5319 125.823 81.3675 125.833 81.208L126.219 81.6426C126.196 81.7793 126.134 81.9307 126.033 82.0967C125.932 82.2627 125.797 82.4222 125.628 82.5752C125.462 82.7249 125.263 82.8503 125.032 82.9512C124.804 83.0488 124.547 83.0977 124.261 83.0977C123.903 83.0977 123.589 83.0277 123.318 82.8877C123.051 82.7477 122.843 82.5605 122.693 82.3262C122.547 82.0885 122.474 81.8232 122.474 81.5303C122.474 81.2471 122.529 80.998 122.64 80.7832C122.75 80.5651 122.91 80.3844 123.118 80.2412C123.326 80.0947 123.577 79.984 123.87 79.9092C124.163 79.8343 124.49 79.7969 124.852 79.7969H125.901ZM129.051 77.7168V83H128.143V77.7168H129.051ZM128.074 76.3154C128.074 76.1689 128.118 76.0452 128.206 75.9443C128.297 75.8434 128.431 75.793 128.606 75.793C128.779 75.793 128.911 75.8434 129.002 75.9443C129.096 76.0452 129.144 76.1689 129.144 76.3154C129.144 76.4554 129.096 76.5758 129.002 76.6768C128.911 76.7744 128.779 76.8232 128.606 76.8232C128.431 76.8232 128.297 76.7744 128.206 76.6768C128.118 76.5758 128.074 76.4554 128.074 76.3154ZM131.482 75.5V83H130.574V75.5H131.482ZM136.048 82.0967V79.377C136.048 79.1686 136.006 78.988 135.921 78.835C135.84 78.6787 135.716 78.5583 135.55 78.4736C135.384 78.389 135.179 78.3467 134.935 78.3467C134.707 78.3467 134.507 78.3857 134.334 78.4639C134.165 78.542 134.031 78.6445 133.934 78.7715C133.839 78.8984 133.792 79.0352 133.792 79.1816H132.889C132.889 78.9928 132.938 78.8057 133.035 78.6201C133.133 78.4346 133.273 78.2669 133.455 78.1172C133.641 77.9642 133.862 77.8438 134.119 77.7559C134.38 77.6647 134.669 77.6191 134.988 77.6191C135.372 77.6191 135.711 77.6842 136.004 77.8145C136.3 77.9447 136.531 78.1416 136.697 78.4053C136.867 78.6657 136.951 78.9928 136.951 79.3867V81.8477C136.951 82.0234 136.966 82.2106 136.995 82.4092C137.028 82.6077 137.075 82.7786 137.137 82.9219V83H136.194C136.149 82.8958 136.113 82.7575 136.087 82.585C136.061 82.4092 136.048 82.2464 136.048 82.0967ZM136.204 79.7969L136.214 80.4316H135.301C135.044 80.4316 134.814 80.4528 134.612 80.4951C134.41 80.5342 134.241 80.5944 134.104 80.6758C133.968 80.7572 133.864 80.8597 133.792 80.9834C133.72 81.1038 133.685 81.2454 133.685 81.4082C133.685 81.5742 133.722 81.7256 133.797 81.8623C133.872 81.999 133.984 82.1081 134.134 82.1895C134.287 82.2676 134.474 82.3066 134.695 82.3066C134.972 82.3066 135.216 82.248 135.428 82.1309C135.639 82.0137 135.807 81.8704 135.931 81.7012C136.058 81.5319 136.126 81.3675 136.136 81.208L136.521 81.6426C136.499 81.7793 136.437 81.9307 136.336 82.0967C136.235 82.2627 136.1 82.4222 135.931 82.5752C135.765 82.7249 135.566 82.8503 135.335 82.9512C135.107 83.0488 134.85 83.0977 134.563 83.0977C134.205 83.0977 133.891 83.0277 133.621 82.8877C133.354 82.7477 133.146 82.5605 132.996 82.3262C132.85 82.0885 132.776 81.8232 132.776 81.5303C132.776 81.2471 132.832 80.998 132.942 80.7832C133.053 80.5651 133.213 80.3844 133.421 80.2412C133.629 80.0947 133.88 79.984 134.173 79.9092C134.466 79.8343 134.793 79.7969 135.154 79.7969H136.204ZM138.367 75.5H139.275V81.9746L139.197 83H138.367V75.5ZM142.845 80.3145V80.417C142.845 80.8011 142.799 81.1576 142.708 81.4863C142.617 81.8118 142.483 82.0951 142.308 82.3359C142.132 82.5768 141.917 82.764 141.663 82.8975C141.409 83.0309 141.118 83.0977 140.789 83.0977C140.454 83.0977 140.159 83.0407 139.905 82.9268C139.655 82.8096 139.443 82.6419 139.271 82.4238C139.098 82.2057 138.96 81.9421 138.855 81.6328C138.755 81.3236 138.685 80.9753 138.646 80.5879V80.1387C138.685 79.748 138.755 79.3981 138.855 79.0889C138.96 78.7796 139.098 78.516 139.271 78.2979C139.443 78.0765 139.655 77.9089 139.905 77.7949C140.156 77.6777 140.447 77.6191 140.779 77.6191C141.111 77.6191 141.406 77.6842 141.663 77.8145C141.92 77.9414 142.135 78.1237 142.308 78.3613C142.483 78.599 142.617 78.8838 142.708 79.2158C142.799 79.5446 142.845 79.9108 142.845 80.3145ZM141.937 80.417V80.3145C141.937 80.0508 141.912 79.8034 141.863 79.5723C141.814 79.3379 141.736 79.1328 141.629 78.957C141.521 78.778 141.38 78.638 141.204 78.5371C141.028 78.4329 140.812 78.3809 140.555 78.3809C140.327 78.3809 140.128 78.4199 139.959 78.498C139.793 78.5762 139.651 78.682 139.534 78.8154C139.417 78.9456 139.321 79.0954 139.246 79.2646C139.174 79.4307 139.121 79.6032 139.085 79.7822V80.959C139.137 81.1868 139.222 81.4066 139.339 81.6182C139.459 81.8265 139.619 81.9974 139.817 82.1309C140.019 82.2643 140.268 82.3311 140.564 82.3311C140.809 82.3311 141.017 82.2822 141.189 82.1846C141.365 82.0837 141.507 81.9453 141.614 81.7695C141.725 81.5938 141.806 81.3903 141.858 81.1592C141.91 80.9281 141.937 80.6807 141.937 80.417ZM144.969 75.5V83H144.061V75.5H144.969ZM148.611 83.0977C148.243 83.0977 147.91 83.0358 147.61 82.9121C147.314 82.7852 147.059 82.6077 146.844 82.3799C146.632 82.152 146.469 81.8818 146.355 81.5693C146.242 81.2568 146.185 80.915 146.185 80.5439V80.3389C146.185 79.9092 146.248 79.5267 146.375 79.1914C146.502 78.8529 146.674 78.5664 146.893 78.332C147.111 78.0977 147.358 77.9202 147.635 77.7998C147.911 77.6794 148.198 77.6191 148.494 77.6191C148.872 77.6191 149.197 77.6842 149.471 77.8145C149.747 77.9447 149.974 78.127 150.149 78.3613C150.325 78.5924 150.455 78.8659 150.54 79.1816C150.625 79.4941 150.667 79.8359 150.667 80.207V80.6123H146.722V79.875H149.764V79.8066C149.751 79.5723 149.702 79.3444 149.617 79.123C149.536 78.9017 149.406 78.7194 149.227 78.5762C149.048 78.4329 148.803 78.3613 148.494 78.3613C148.289 78.3613 148.1 78.4053 147.928 78.4932C147.755 78.5778 147.607 78.7048 147.483 78.874C147.36 79.0433 147.264 79.25 147.195 79.4941C147.127 79.7383 147.093 80.0199 147.093 80.3389V80.5439C147.093 80.7946 147.127 81.0306 147.195 81.252C147.267 81.4701 147.369 81.6621 147.503 81.8281C147.64 81.9941 147.804 82.1243 147.996 82.2188C148.191 82.3132 148.413 82.3604 148.66 82.3604C148.979 82.3604 149.249 82.2952 149.471 82.165C149.692 82.0348 149.886 81.8607 150.052 81.6426L150.599 82.0771C150.485 82.2497 150.34 82.4141 150.164 82.5703C149.988 82.7266 149.772 82.8535 149.515 82.9512C149.261 83.0488 148.96 83.0977 148.611 83.0977Z" fill="#6C757D"/>
<rect x="0.5" y="0.5" width="215" height="131" rx="3.5" stroke="#DEE2E6"/>
</svg>
