<svg width="16" height="14" viewBox="0 0 16 14" fill="none" xmlns="http://www.w3.org/2000/svg">
<path d="M4.85 3.5002H6.775M4.85 6.3002H6.775M4.85 9.1002H6.775M9.225 3.5002H11.15M9.225 6.3002H11.15M9.225 9.1002H11.15M13.6 13.3002V2.9402C13.6 2.15612 13.6 1.76409 13.4474 1.46461C13.3132 1.20118 13.099 0.987009 12.8356 0.852786C12.5361 0.700195 12.1441 0.700195 11.36 0.700195H4.64C3.85593 0.700195 3.46389 0.700195 3.16441 0.852786C2.90099 0.987009 2.68681 1.20118 2.55259 1.46461C2.4 1.76409 2.4 2.15612 2.4 2.9402V13.3002M15 13.3002H1" stroke="#008582" stroke-linecap="round" stroke-linejoin="round"/>
</svg>
