<svg width="16" height="14" viewBox="0 0 16 14" fill="none" xmlns="http://www.w3.org/2000/svg">
<path d="M12.2341 9.70279C13.2598 10.218 14.1392 11.0449 14.781 12.0789C14.9081 12.2837 14.9717 12.386 14.9937 12.5278C15.0383 12.8159 14.8413 13.1701 14.573 13.2841C14.4409 13.3402 14.2924 13.3402 13.9953 13.3402M10.8251 6.67016C11.869 6.1514 12.5863 5.0742 12.5863 3.82944C12.5863 2.58468 11.869 1.50748 10.8251 0.988718M9.41607 3.82944C9.41607 5.58033 7.9967 6.9997 6.24581 6.9997C4.49493 6.9997 3.07555 5.58033 3.07555 3.82944C3.07555 2.07855 4.49493 0.65918 6.24581 0.65918C7.9967 0.65918 9.41607 2.07855 9.41607 3.82944ZM1.35602 11.8878C2.47922 10.2013 4.25163 9.11321 6.24581 9.11321C8.24 9.11321 10.0124 10.2013 11.1356 11.8878C11.3817 12.2572 11.5047 12.442 11.4905 12.6779C11.4795 12.8617 11.3591 13.0866 11.2122 13.1976C11.0237 13.3402 10.7644 13.3402 10.2457 13.3402H2.2459C1.72726 13.3402 1.46793 13.3402 1.27938 13.1976C1.13257 13.0866 1.01213 12.8617 1.0011 12.6779C0.986935 12.442 1.10996 12.2572 1.35602 11.8878Z" stroke="#344054" stroke-linecap="round" stroke-linejoin="round"/>
</svg>
