<svg width="16" height="14" viewBox="0 0 16 14" fill="none" xmlns="http://www.w3.org/2000/svg">
<path d="M7.3 6.3002H3.94C3.15593 6.3002 2.76389 6.3002 2.46441 6.45279C2.20099 6.58701 1.98681 6.80118 1.85259 7.06461C1.7 7.36409 1.7 7.75612 1.7 8.5402V13.3002M14.3 13.3002V2.9402C14.3 2.15612 14.3 1.76409 14.1474 1.46461C14.0132 1.20118 13.799 0.987009 13.5356 0.852786C13.2361 0.700195 12.8441 0.700195 12.06 0.700195H9.54C8.75593 0.700195 8.36389 0.700195 8.06441 0.852786C7.80099 0.987009 7.58681 1.20118 7.45259 1.46461C7.3 1.76409 7.3 2.15612 7.3 2.9402V13.3002M15 13.3002H1M9.75 3.5002H11.85M9.75 6.3002H11.85M9.75 9.1002H11.85" stroke="#344054" stroke-linecap="round" stroke-linejoin="round"/>
</svg>
