<svg width="1440" height="270" viewBox="0 0 1440 270" fill="none" xmlns="http://www.w3.org/2000/svg">
<g clip-path="url(#clip0_3297_58762)">
<path d="M1443 -0.5H-3V270.5H1443V-0.5Z" fill="#1D3159"/>
<g opacity="0.9">
<mask id="mask0_3297_58762" style="mask-type:luminance" maskUnits="userSpaceOnUse" x="-2" y="-1" width="1445" height="272">
<path d="M1443 -0.5H-2V270.5H1443V-0.5Z" fill="white"/>
</mask>
<g mask="url(#mask0_3297_58762)">
<g opacity="0.9">
<g opacity="0.15">
<path d="M0.73999 79.9299H1440.26" stroke="white" stroke-width="0.25" stroke-miterlimit="10" stroke-linecap="round"/>
<path d="M0.73999 191.83H1440.26" stroke="white" stroke-width="0.25" stroke-miterlimit="10" stroke-linecap="round"/>
<path d="M0.73999 -245.97V519.84" stroke="white" stroke-width="0.25" stroke-miterlimit="10" stroke-linecap="round"/>
<path d="M111.49 -245.97V519.84" stroke="white" stroke-width="0.25" stroke-miterlimit="10" stroke-linecap="round"/>
<path d="M222.21 -245.97V519.84" stroke="white" stroke-width="0.25" stroke-miterlimit="10" stroke-linecap="round"/>
<path d="M332.94 -245.97V519.84" stroke="white" stroke-width="0.25" stroke-miterlimit="10" stroke-linecap="round"/>
<path d="M443.67 -245.97V519.84" stroke="white" stroke-width="0.25" stroke-miterlimit="10" stroke-linecap="round"/>
<path d="M554.42 -245.97V519.84" stroke="white" stroke-width="0.25" stroke-miterlimit="10" stroke-linecap="round"/>
<path d="M665.15 -245.97V519.84" stroke="white" stroke-width="0.25" stroke-miterlimit="10" stroke-linecap="round"/>
<path d="M775.87 -245.97V519.84" stroke="white" stroke-width="0.25" stroke-miterlimit="10" stroke-linecap="round"/>
<path d="M886.6 -245.97V519.84" stroke="white" stroke-width="0.25" stroke-miterlimit="10" stroke-linecap="round"/>
<path d="M997.35 -245.97V519.84" stroke="white" stroke-width="0.25" stroke-miterlimit="10" stroke-linecap="round"/>
<path d="M1108.08 -245.97V519.84" stroke="white" stroke-width="0.25" stroke-miterlimit="10" stroke-linecap="round"/>
<path d="M1218.8 -245.97V519.84" stroke="white" stroke-width="0.25" stroke-miterlimit="10" stroke-linecap="round"/>
<path d="M1329.53 -245.97V519.84" stroke="white" stroke-width="0.25" stroke-miterlimit="10" stroke-linecap="round"/>
</g>
<g opacity="0.7">
<path d="M1294.75 236.54V236.22H1295.65V235.29H1295.99V236.22H1296.9V236.54H1295.99V237.48H1295.65V236.54H1294.75ZM1299.44 234.42V234.75H1297.91L1297.82 235.78C1298.06 235.65 1298.31 235.58 1298.56 235.58C1299.23 235.58 1299.56 235.89 1299.56 236.51C1299.56 236.87 1299.47 237.14 1299.29 237.33C1299.1 237.52 1298.84 237.61 1298.51 237.61C1298.24 237.61 1297.94 237.58 1297.62 237.5L1297.46 237.47L1297.5 237.18C1297.87 237.25 1298.18 237.29 1298.43 237.29C1298.68 237.29 1298.87 237.23 1299 237.1C1299.12 236.97 1299.19 236.79 1299.19 236.56C1299.19 236.33 1299.13 236.16 1299.01 236.07C1298.89 235.97 1298.73 235.92 1298.52 235.92C1298.4 235.92 1298.28 235.94 1298.15 235.97C1298.03 236 1297.93 236.03 1297.87 236.07L1297.77 236.12L1297.51 236.07L1297.6 234.43H1299.44V234.42ZM1300.15 237.57V237.03H1300.55V237.57H1300.15ZM1301.21 234.5C1301.51 234.41 1301.83 234.37 1302.17 234.37C1302.51 234.37 1302.76 234.44 1302.92 234.57C1303.07 234.7 1303.15 234.91 1303.15 235.2C1303.15 235.35 1303.13 235.45 1303.08 235.52C1303.05 235.58 1303.01 235.63 1302.99 235.67C1302.97 235.71 1302.94 235.74 1302.9 235.77C1302.83 235.82 1302.77 235.86 1302.73 235.88L1302.68 235.91C1302.86 235.98 1303 236.06 1303.09 236.17C1303.18 236.27 1303.22 236.44 1303.22 236.68C1303.22 237 1303.14 237.24 1302.97 237.4C1302.81 237.56 1302.55 237.63 1302.2 237.63C1301.92 237.63 1301.62 237.6 1301.31 237.53L1301.16 237.5L1301.2 237.2C1301.54 237.27 1301.86 237.3 1302.16 237.3C1302.62 237.3 1302.84 237.09 1302.84 236.69C1302.84 236.31 1302.63 236.11 1302.19 236.1H1301.56V235.78H1302.19C1302.33 235.78 1302.46 235.73 1302.58 235.62C1302.71 235.51 1302.77 235.37 1302.77 235.19C1302.77 235.01 1302.72 234.89 1302.62 234.81C1302.52 234.73 1302.36 234.69 1302.12 234.69C1301.88 234.69 1301.62 234.71 1301.37 234.76L1301.24 234.78L1301.21 234.49V234.5ZM1304.28 237.59L1305.26 234.31L1305.49 234.39L1304.51 237.66L1304.28 237.59ZM1303.67 235.03C1303.67 234.59 1303.85 234.37 1304.2 234.37C1304.55 234.37 1304.73 234.59 1304.73 235.03C1304.73 235.26 1304.68 235.43 1304.59 235.54C1304.5 235.65 1304.37 235.71 1304.2 235.71C1304.03 235.71 1303.91 235.65 1303.81 235.54C1303.72 235.43 1303.67 235.26 1303.67 235.03ZM1303.97 235.03C1303.97 235.32 1304.04 235.46 1304.2 235.46C1304.36 235.46 1304.44 235.32 1304.44 235.03C1304.44 234.89 1304.42 234.78 1304.38 234.71C1304.35 234.64 1304.29 234.61 1304.2 234.61C1304.12 234.61 1304.06 234.64 1304.02 234.71C1303.98 234.78 1303.97 234.88 1303.97 235.03ZM1305.04 236.94C1305.04 236.5 1305.21 236.29 1305.56 236.29C1305.91 236.29 1306.08 236.51 1306.08 236.95C1306.08 237.17 1306.04 237.34 1305.94 237.46C1305.85 237.57 1305.72 237.63 1305.56 237.63C1305.39 237.63 1305.26 237.57 1305.17 237.46C1305.08 237.34 1305.04 237.17 1305.04 236.95V236.94ZM1305.32 236.94C1305.32 237.23 1305.4 237.37 1305.56 237.37C1305.65 237.37 1305.71 237.34 1305.74 237.26C1305.78 237.19 1305.8 237.08 1305.8 236.93C1305.8 236.78 1305.78 236.68 1305.74 236.62C1305.71 236.55 1305.65 236.52 1305.56 236.52C1305.48 236.52 1305.41 236.55 1305.38 236.62C1305.34 236.68 1305.32 236.79 1305.32 236.93V236.94Z" fill="white"/>
<path d="M1370.08 188.37V188.05H1370.99V187.12H1371.32V188.05H1372.23V188.37H1371.32V189.31H1370.99V188.37H1370.08ZM1374.8 186.59C1374.51 186.55 1374.23 186.53 1373.96 186.53C1373.69 186.53 1373.48 186.62 1373.34 186.81C1373.19 187 1373.12 187.27 1373.12 187.62L1373.24 187.57C1373.32 187.54 1373.42 187.51 1373.55 187.48C1373.68 187.45 1373.8 187.43 1373.9 187.43C1374.61 187.43 1374.97 187.76 1374.97 188.41C1374.97 188.74 1374.87 189 1374.67 189.18C1374.48 189.36 1374.21 189.45 1373.86 189.45C1373.11 189.45 1372.73 188.9 1372.73 187.81C1372.73 187.26 1372.84 186.85 1373.05 186.59C1373.27 186.33 1373.57 186.2 1373.97 186.2C1374.22 186.2 1374.47 186.22 1374.7 186.26L1374.83 186.28L1374.8 186.58V186.59ZM1373.88 187.77C1373.77 187.77 1373.65 187.79 1373.52 187.82C1373.39 187.85 1373.29 187.88 1373.22 187.91L1373.11 187.96C1373.11 188.32 1373.17 188.61 1373.29 188.83C1373.41 189.04 1373.6 189.15 1373.84 189.15C1374.08 189.15 1374.27 189.09 1374.4 188.97C1374.52 188.85 1374.58 188.67 1374.58 188.45C1374.58 188.23 1374.52 188.06 1374.4 187.95C1374.28 187.84 1374.1 187.79 1373.88 187.79V187.77ZM1375.49 189.42V188.88H1375.88V189.42H1375.49ZM1377.53 186.21C1377.8 186.21 1378.01 186.26 1378.17 186.36C1378.51 186.56 1378.69 187.07 1378.69 187.89C1378.69 188.47 1378.59 188.88 1378.4 189.11C1378.21 189.35 1377.92 189.46 1377.54 189.46C1377.16 189.46 1376.87 189.34 1376.67 189.11C1376.48 188.87 1376.39 188.46 1376.39 187.86C1376.39 187.26 1376.48 186.83 1376.67 186.58C1376.86 186.33 1377.15 186.2 1377.53 186.2V186.21ZM1377.54 186.54C1377.36 186.54 1377.21 186.58 1377.11 186.66C1376.88 186.82 1376.77 187.23 1376.77 187.9C1376.77 188.37 1376.83 188.7 1376.96 188.88C1377.08 189.06 1377.27 189.15 1377.54 189.15C1377.81 189.15 1378 189.06 1378.12 188.88C1378.25 188.7 1378.31 188.36 1378.31 187.87C1378.31 187.38 1378.25 187.03 1378.13 186.84C1378.01 186.64 1377.81 186.55 1377.54 186.55V186.54ZM1379.62 189.44L1380.6 186.17L1380.83 186.25L1379.85 189.51L1379.62 189.44ZM1379.01 186.88C1379.01 186.44 1379.18 186.22 1379.54 186.22C1379.9 186.22 1380.06 186.44 1380.06 186.88C1380.06 187.11 1380.01 187.28 1379.92 187.39C1379.83 187.5 1379.7 187.56 1379.54 187.56C1379.37 187.56 1379.24 187.5 1379.15 187.39C1379.06 187.28 1379.01 187.11 1379.01 186.88ZM1379.3 186.88C1379.3 187.17 1379.38 187.31 1379.54 187.31C1379.69 187.31 1379.77 187.17 1379.77 186.88C1379.77 186.74 1379.76 186.63 1379.72 186.56C1379.68 186.49 1379.62 186.46 1379.54 186.46C1379.45 186.46 1379.39 186.49 1379.35 186.56C1379.32 186.63 1379.3 186.73 1379.3 186.88ZM1380.37 188.79C1380.37 188.35 1380.55 188.14 1380.89 188.14C1381.23 188.14 1381.42 188.36 1381.42 188.8C1381.42 189.02 1381.37 189.19 1381.28 189.31C1381.19 189.42 1381.06 189.48 1380.89 189.48C1380.73 189.48 1380.6 189.43 1380.51 189.31C1380.42 189.19 1380.37 189.02 1380.37 188.8V188.79ZM1380.66 188.79C1380.66 189.08 1380.74 189.22 1380.89 189.22C1380.98 189.22 1381.04 189.18 1381.08 189.11C1381.11 189.04 1381.13 188.93 1381.13 188.79C1381.13 188.65 1381.11 188.54 1381.08 188.47C1381.04 188.4 1380.98 188.37 1380.9 188.37C1380.81 188.37 1380.75 188.4 1380.71 188.47C1380.68 188.53 1380.66 188.64 1380.66 188.78V188.79Z" fill="white"/>
<path d="M1257.07 180.9V180.58H1257.97V179.65H1258.31V180.58H1259.22V180.9H1258.31V181.84H1257.97V180.9H1257.07ZM1261.76 178.78V179.11H1260.23L1260.14 180.14C1260.39 180.01 1260.63 179.94 1260.88 179.94C1261.55 179.94 1261.89 180.25 1261.89 180.87C1261.89 181.23 1261.79 181.5 1261.61 181.69C1261.42 181.88 1261.17 181.97 1260.83 181.97C1260.56 181.97 1260.27 181.93 1259.94 181.87L1259.78 181.84L1259.83 181.55C1260.19 181.62 1260.5 181.66 1260.75 181.66C1261 181.66 1261.19 181.6 1261.32 181.47C1261.45 181.34 1261.51 181.16 1261.51 180.93C1261.51 180.7 1261.45 180.53 1261.33 180.44C1261.22 180.34 1261.05 180.29 1260.84 180.29C1260.73 180.29 1260.6 180.31 1260.48 180.34C1260.35 180.37 1260.26 180.4 1260.19 180.44L1260.09 180.49L1259.84 180.44L1259.92 178.8H1261.76V178.78ZM1262.48 181.93V181.39H1262.87V181.93H1262.48ZM1263.53 178.86C1263.83 178.77 1264.15 178.73 1264.49 178.73C1264.83 178.73 1265.09 178.8 1265.24 178.93C1265.39 179.06 1265.47 179.27 1265.47 179.56C1265.47 179.71 1265.45 179.81 1265.41 179.88C1265.37 179.94 1265.34 179.99 1265.31 180.03C1265.29 180.07 1265.26 180.1 1265.22 180.13C1265.15 180.18 1265.09 180.22 1265.05 180.25L1265 180.28C1265.19 180.35 1265.32 180.43 1265.41 180.54C1265.5 180.64 1265.55 180.81 1265.55 181.05C1265.55 181.37 1265.46 181.61 1265.3 181.77C1265.13 181.93 1264.88 182 1264.52 182C1264.24 182 1263.95 181.97 1263.63 181.9L1263.49 181.87L1263.52 181.57C1263.86 181.64 1264.18 181.67 1264.48 181.67C1264.94 181.67 1265.17 181.46 1265.17 181.06C1265.17 180.68 1264.95 180.48 1264.52 180.47H1263.88V180.16H1264.52C1264.65 180.16 1264.78 180.11 1264.9 180C1265.03 179.89 1265.09 179.75 1265.09 179.57C1265.09 179.39 1265.04 179.27 1264.94 179.19C1264.84 179.11 1264.68 179.07 1264.45 179.07C1264.19 179.07 1263.94 179.09 1263.69 179.14L1263.57 179.16L1263.53 178.87V178.86ZM1266.6 181.95L1267.58 178.68L1267.81 178.76L1266.83 182.02L1266.6 181.95ZM1266 179.39C1266 178.95 1266.17 178.73 1266.52 178.73C1266.87 178.73 1267.05 178.95 1267.05 179.39C1267.05 179.62 1267 179.78 1266.91 179.9C1266.82 180.01 1266.69 180.07 1266.52 180.07C1266.36 180.07 1266.23 180.01 1266.14 179.9C1266.04 179.79 1266 179.62 1266 179.39ZM1266.29 179.39C1266.29 179.68 1266.37 179.82 1266.52 179.82C1266.68 179.82 1266.76 179.68 1266.76 179.39C1266.76 179.25 1266.74 179.14 1266.7 179.07C1266.67 179 1266.61 178.97 1266.52 178.97C1266.44 178.97 1266.38 179 1266.34 179.07C1266.31 179.14 1266.29 179.24 1266.29 179.39ZM1267.36 181.3C1267.36 180.86 1267.53 180.64 1267.88 180.64C1268.23 180.64 1268.41 180.86 1268.41 181.3C1268.41 181.52 1268.36 181.69 1268.27 181.81C1268.18 181.92 1268.05 181.98 1267.88 181.98C1267.72 181.98 1267.59 181.92 1267.49 181.81C1267.4 181.69 1267.36 181.52 1267.36 181.3ZM1267.65 181.3C1267.65 181.59 1267.72 181.73 1267.88 181.73C1267.97 181.73 1268.03 181.69 1268.07 181.62C1268.1 181.55 1268.12 181.44 1268.12 181.3C1268.12 181.16 1268.1 181.05 1268.07 180.98C1268.03 180.91 1267.97 180.88 1267.89 180.88C1267.8 180.88 1267.74 180.91 1267.7 180.98C1267.66 181.04 1267.65 181.15 1267.65 181.29V181.3Z" fill="white"/>
<path d="M1332.41 154.84V154.52H1333.31V153.59H1333.64V154.52H1334.56V154.84H1333.64V155.78H1333.31V154.84H1332.41ZM1335.16 152.8C1335.46 152.71 1335.78 152.67 1336.12 152.67C1336.46 152.67 1336.71 152.74 1336.87 152.87C1337.02 153 1337.1 153.21 1337.1 153.5C1337.1 153.65 1337.08 153.75 1337.04 153.82C1337 153.88 1336.97 153.93 1336.94 153.97C1336.92 154.01 1336.89 154.04 1336.85 154.07C1336.78 154.12 1336.72 154.16 1336.68 154.18L1336.63 154.21C1336.81 154.28 1336.95 154.36 1337.04 154.47C1337.13 154.57 1337.17 154.74 1337.17 154.98C1337.17 155.3 1337.09 155.54 1336.93 155.7C1336.76 155.86 1336.5 155.93 1336.15 155.93C1335.87 155.93 1335.57 155.9 1335.26 155.83L1335.11 155.8L1335.15 155.5C1335.49 155.57 1335.81 155.6 1336.11 155.6C1336.57 155.6 1336.8 155.39 1336.8 154.99C1336.8 154.61 1336.58 154.41 1336.15 154.4H1335.51V154.08H1336.15C1336.28 154.08 1336.41 154.03 1336.53 153.92C1336.66 153.81 1336.72 153.67 1336.72 153.49C1336.72 153.31 1336.67 153.19 1336.57 153.11C1336.47 153.03 1336.31 152.99 1336.07 152.99C1335.83 152.99 1335.57 153.01 1335.32 153.06L1335.19 153.08L1335.16 152.79V152.8ZM1337.81 155.87V155.33H1338.2V155.87H1337.81ZM1339.7 155.59C1340.28 155.59 1340.57 155.22 1340.57 154.49C1340.26 154.61 1339.98 154.67 1339.75 154.67C1339.06 154.67 1338.72 154.35 1338.72 153.71C1338.72 153.39 1338.82 153.13 1339.02 152.95C1339.21 152.76 1339.48 152.67 1339.81 152.67C1340.2 152.67 1340.49 152.81 1340.67 153.1C1340.86 153.38 1340.96 153.8 1340.96 154.36C1340.96 154.92 1340.85 155.31 1340.64 155.55C1340.43 155.8 1340.12 155.92 1339.7 155.92C1339.47 155.92 1339.22 155.9 1338.96 155.85L1338.84 155.83L1338.87 155.53C1339.16 155.57 1339.44 155.59 1339.7 155.59ZM1339.78 154.35C1339.98 154.35 1340.2 154.31 1340.45 154.22L1340.58 154.18C1340.57 153.39 1340.31 153 1339.81 153C1339.59 153 1339.42 153.07 1339.29 153.2C1339.16 153.33 1339.1 153.5 1339.1 153.73C1339.1 154.15 1339.33 154.36 1339.78 154.36V154.35ZM1341.94 155.89L1342.92 152.62L1343.15 152.7L1342.17 155.96L1341.94 155.89ZM1341.33 153.33C1341.33 152.89 1341.51 152.67 1341.86 152.67C1342.21 152.67 1342.38 152.89 1342.38 153.33C1342.38 153.56 1342.34 153.73 1342.25 153.84C1342.15 153.95 1342.02 154.01 1341.86 154.01C1341.69 154.01 1341.56 153.96 1341.47 153.84C1341.38 153.73 1341.33 153.56 1341.33 153.33ZM1341.62 153.33C1341.62 153.62 1341.7 153.76 1341.86 153.76C1342.02 153.76 1342.1 153.62 1342.1 153.33C1342.1 153.19 1342.08 153.08 1342.04 153.01C1342 152.94 1341.94 152.91 1341.86 152.91C1341.78 152.91 1341.71 152.94 1341.68 153.01C1341.64 153.08 1341.62 153.18 1341.62 153.33ZM1342.69 155.24C1342.69 154.8 1342.87 154.59 1343.22 154.59C1343.57 154.59 1343.74 154.81 1343.74 155.25C1343.74 155.47 1343.7 155.64 1343.6 155.76C1343.51 155.87 1343.38 155.93 1343.22 155.93C1343.05 155.93 1342.92 155.87 1342.83 155.76C1342.74 155.65 1342.69 155.47 1342.69 155.25V155.24ZM1342.98 155.24C1342.98 155.53 1343.06 155.67 1343.22 155.67C1343.3 155.67 1343.37 155.63 1343.4 155.57C1343.44 155.5 1343.45 155.39 1343.45 155.24C1343.45 155.09 1343.44 154.99 1343.4 154.93C1343.37 154.86 1343.31 154.83 1343.22 154.83C1343.13 154.83 1343.07 154.86 1343.03 154.93C1343 154.99 1342.98 155.1 1342.98 155.24Z" fill="white"/>
<path d="M767.38 235.37V235.05H768.28V234.12H768.61V235.05H769.52V235.37H768.61V236.31H768.28V235.37H767.38ZM770.16 233.59V233.26H772.12V233.74L770.91 236.46L770.56 236.35L771.75 233.72V233.6H770.16V233.59ZM772.79 236.41V235.87H773.18V236.41H772.79ZM775.36 233.26V236.41H774.99V233.67L774.18 234.21L774.01 233.93L775.01 233.26H775.35H775.36ZM776.92 236.43L777.9 233.16L778.13 233.24L777.15 236.5L776.92 236.43ZM776.31 233.87C776.31 233.43 776.49 233.21 776.84 233.21C777.19 233.21 777.37 233.43 777.37 233.87C777.37 234.1 777.32 234.26 777.23 234.38C777.14 234.49 777.01 234.55 776.84 234.55C776.67 234.55 776.55 234.49 776.45 234.38C776.36 234.27 776.31 234.1 776.31 233.87ZM776.6 233.87C776.6 234.16 776.68 234.3 776.83 234.3C776.98 234.3 777.07 234.16 777.07 233.87C777.07 233.73 777.05 233.62 777.01 233.55C776.97 233.48 776.91 233.45 776.83 233.45C776.75 233.45 776.69 233.48 776.65 233.55C776.61 233.62 776.6 233.72 776.6 233.87ZM777.67 235.78C777.67 235.34 777.84 235.12 778.19 235.12C778.54 235.12 778.72 235.34 778.72 235.78C778.72 236 778.67 236.17 778.58 236.29C778.49 236.4 778.36 236.46 778.19 236.46C778.02 236.46 777.9 236.4 777.8 236.29C777.71 236.18 777.67 236.01 777.67 235.78ZM777.96 235.78C777.96 236.07 778.04 236.21 778.19 236.21C778.28 236.21 778.34 236.17 778.38 236.1C778.42 236.03 778.43 235.92 778.43 235.77C778.43 235.62 778.41 235.52 778.38 235.45C778.35 235.38 778.28 235.35 778.2 235.35C778.12 235.35 778.05 235.38 778.01 235.45C777.98 235.51 777.96 235.62 777.96 235.76V235.78Z" fill="white"/>
<path d="M843.72 210.21V209.88H844.62V208.95H844.95V209.88H845.86V210.21H844.95V211.15H844.62V210.21H843.72ZM847.99 208.09V211.24H847.62V208.5L846.81 209.03L846.64 208.75L847.64 208.08H847.99V208.09ZM850.14 208.04C850.4 208.04 850.61 208.09 850.78 208.19C851.12 208.39 851.3 208.9 851.3 209.72C851.3 210.3 851.2 210.71 851.01 210.94C850.82 211.18 850.53 211.29 850.15 211.29C849.77 211.29 849.48 211.17 849.28 210.94C849.09 210.7 848.99 210.29 848.99 209.69C848.99 209.09 849.08 208.66 849.27 208.41C849.46 208.16 849.75 208.03 850.14 208.03V208.04ZM850.14 208.37C849.96 208.37 849.81 208.41 849.71 208.48C849.48 208.64 849.37 209.05 849.37 209.72C849.37 210.19 849.43 210.52 849.56 210.7C849.68 210.88 849.88 210.97 850.14 210.97C850.4 210.97 850.6 210.88 850.72 210.7C850.84 210.52 850.91 210.18 850.91 209.69C850.91 209.2 850.85 208.85 850.73 208.66C850.61 208.47 850.42 208.37 850.14 208.37ZM852.22 211.27L853.2 208L853.43 208.08L852.45 211.34L852.22 211.27ZM851.61 208.71C851.61 208.27 851.79 208.05 852.14 208.05C852.49 208.05 852.67 208.27 852.67 208.71C852.67 208.94 852.62 209.11 852.53 209.22C852.44 209.33 852.31 209.39 852.14 209.39C851.97 209.39 851.85 209.33 851.75 209.22C851.66 209.11 851.61 208.94 851.61 208.71ZM851.9 208.71C851.9 209 851.98 209.14 852.13 209.14C852.28 209.14 852.37 209 852.37 208.71C852.37 208.57 852.35 208.46 852.31 208.39C852.27 208.32 852.21 208.29 852.13 208.29C852.05 208.29 851.99 208.32 851.95 208.39C851.92 208.46 851.9 208.56 851.9 208.71ZM852.97 210.62C852.97 210.18 853.14 209.97 853.49 209.97C853.84 209.97 854.02 210.19 854.02 210.63C854.02 210.85 853.97 211.02 853.88 211.14C853.79 211.25 853.66 211.31 853.49 211.31C853.32 211.31 853.2 211.25 853.1 211.14C853.01 211.03 852.97 210.85 852.97 210.63V210.62ZM853.26 210.62C853.26 210.91 853.34 211.05 853.49 211.05C853.58 211.05 853.64 211.02 853.68 210.95C853.71 210.88 853.73 210.77 853.73 210.63C853.73 210.49 853.71 210.38 853.68 210.31C853.64 210.24 853.58 210.21 853.5 210.21C853.42 210.21 853.35 210.24 853.31 210.31C853.27 210.37 853.26 210.48 853.26 210.62Z" fill="white"/>
<path d="M692.05 137.5V137.18H692.95V136.25H693.28V137.18H694.19V137.5H693.28V138.44H692.95V137.5H692.05ZM694.83 135.72V135.39H696.79V135.87L695.58 138.59L695.23 138.48L696.42 135.85V135.73H694.83V135.72ZM697.46 138.54V137.99H697.85V138.54H697.46ZM700.03 135.38V138.54H699.66V135.8L698.85 136.33L698.68 136.05L699.68 135.38H700.02H700.03ZM701.59 138.55L702.57 135.27L702.8 135.35L701.82 138.61L701.59 138.54V138.55ZM700.98 135.99C700.98 135.55 701.15 135.33 701.51 135.33C701.87 135.33 702.04 135.55 702.04 135.99C702.04 136.22 701.99 136.39 701.9 136.5C701.81 136.61 701.68 136.67 701.51 136.67C701.34 136.67 701.21 136.61 701.12 136.5C701.03 136.39 700.98 136.22 700.98 135.99ZM701.27 135.99C701.27 136.28 701.35 136.42 701.5 136.42C701.65 136.42 701.74 136.28 701.74 135.99C701.74 135.85 701.72 135.74 701.68 135.67C701.64 135.6 701.58 135.57 701.5 135.57C701.42 135.57 701.36 135.6 701.32 135.67C701.28 135.74 701.27 135.84 701.27 135.99ZM702.34 137.9C702.34 137.46 702.51 137.25 702.86 137.25C703.21 137.25 703.39 137.47 703.39 137.91C703.39 138.13 703.34 138.3 703.25 138.42C703.16 138.53 703.03 138.59 702.86 138.59C702.69 138.59 702.57 138.53 702.47 138.42C702.38 138.31 702.34 138.13 702.34 137.91V137.9ZM702.63 137.9C702.63 138.19 702.71 138.33 702.86 138.33C702.95 138.33 703.01 138.29 703.05 138.22C703.08 138.15 703.1 138.04 703.1 137.89C703.1 137.74 703.08 137.64 703.05 137.58C703.01 137.51 702.95 137.48 702.87 137.48C702.79 137.48 702.72 137.51 702.68 137.58C702.65 137.64 702.63 137.75 702.63 137.89V137.9Z" fill="white"/>
<path d="M1219.41 235.37V235.05H1220.32V234.12H1220.65V235.05H1221.56V235.37H1220.65V236.31H1220.32V235.37H1219.41ZM1222.19 233.59V233.26H1224.15V233.74L1222.94 236.46L1222.59 236.35L1223.78 233.72V233.6H1222.19V233.59ZM1224.82 236.41V235.87H1225.21V236.41H1224.82ZM1227.39 233.26V236.41H1227.02V233.67L1226.21 234.21L1226.04 233.93L1227.05 233.26H1227.39ZM1228.95 236.43L1229.93 233.16L1230.16 233.24L1229.18 236.5L1228.95 236.43ZM1228.34 233.87C1228.34 233.43 1228.51 233.21 1228.87 233.21C1229.23 233.21 1229.39 233.43 1229.39 233.87C1229.39 234.1 1229.34 234.26 1229.25 234.38C1229.16 234.49 1229.03 234.55 1228.87 234.55C1228.7 234.55 1228.57 234.49 1228.48 234.38C1228.39 234.27 1228.34 234.1 1228.34 233.87ZM1228.63 233.87C1228.63 234.16 1228.71 234.3 1228.87 234.3C1229.02 234.3 1229.1 234.16 1229.1 233.87C1229.1 233.73 1229.09 233.62 1229.05 233.55C1229.01 233.48 1228.95 233.45 1228.87 233.45C1228.78 233.45 1228.72 233.48 1228.68 233.55C1228.65 233.62 1228.63 233.72 1228.63 233.87ZM1229.7 235.78C1229.7 235.34 1229.88 235.12 1230.22 235.12C1230.56 235.12 1230.75 235.34 1230.75 235.78C1230.75 236 1230.7 236.17 1230.61 236.29C1230.52 236.4 1230.39 236.46 1230.22 236.46C1230.06 236.46 1229.93 236.4 1229.84 236.29C1229.75 236.18 1229.7 236.01 1229.7 235.78ZM1229.99 235.78C1229.99 236.07 1230.07 236.21 1230.22 236.21C1230.31 236.21 1230.37 236.17 1230.41 236.1C1230.44 236.03 1230.46 235.92 1230.46 235.77C1230.46 235.62 1230.44 235.52 1230.41 235.45C1230.37 235.38 1230.31 235.35 1230.23 235.35C1230.14 235.35 1230.08 235.38 1230.04 235.45C1230.01 235.51 1229.99 235.62 1229.99 235.76V235.78Z" fill="white"/>
<path d="M1181.74 186.68V186.36H1182.64V185.43H1182.97V186.36H1183.89V186.68H1182.97V187.62H1182.64V186.68H1181.74ZM1184.65 184.72C1184.85 184.58 1185.13 184.51 1185.48 184.51C1185.83 184.51 1186.1 184.58 1186.31 184.72C1186.52 184.86 1186.62 185.06 1186.62 185.33C1186.62 185.53 1186.58 185.68 1186.5 185.78C1186.42 185.88 1186.28 185.98 1186.09 186.06C1186.28 186.15 1186.43 186.25 1186.52 186.37C1186.62 186.49 1186.67 186.65 1186.67 186.86C1186.67 187.46 1186.27 187.76 1185.48 187.76C1184.69 187.76 1184.3 187.48 1184.3 186.91C1184.3 186.68 1184.34 186.51 1184.43 186.39C1184.52 186.27 1184.66 186.16 1184.85 186.06C1184.67 185.97 1184.55 185.88 1184.47 185.77C1184.39 185.66 1184.35 185.51 1184.35 185.32C1184.35 185.05 1184.45 184.85 1184.65 184.71V184.72ZM1184.69 186.85C1184.69 187.24 1184.96 187.43 1185.48 187.43C1186 187.43 1186.27 187.23 1186.27 186.82C1186.27 186.65 1186.23 186.53 1186.13 186.45C1186.04 186.37 1185.9 186.3 1185.72 186.24H1185.21C1185.04 186.29 1184.91 186.36 1184.82 186.45C1184.74 186.54 1184.69 186.67 1184.69 186.84V186.85ZM1186.23 185.37C1186.23 185.02 1185.98 184.84 1185.49 184.84C1185 184.84 1184.74 185.02 1184.74 185.37C1184.74 185.51 1184.78 185.62 1184.86 185.71C1184.94 185.8 1185.05 185.87 1185.21 185.93H1185.72C1185.89 185.88 1186.01 185.81 1186.1 185.72C1186.18 185.63 1186.23 185.52 1186.23 185.38V185.37ZM1187.14 187.71V187.17H1187.53V187.71H1187.14ZM1189.03 187.43C1189.61 187.43 1189.9 187.06 1189.9 186.33C1189.59 186.45 1189.31 186.51 1189.08 186.51C1188.39 186.51 1188.05 186.19 1188.05 185.55C1188.05 185.23 1188.15 184.97 1188.35 184.79C1188.54 184.6 1188.81 184.51 1189.14 184.51C1189.53 184.51 1189.82 184.65 1190 184.94C1190.19 185.22 1190.29 185.64 1190.29 186.2C1190.29 186.76 1190.18 187.15 1189.97 187.4C1189.76 187.65 1189.45 187.77 1189.03 187.77C1188.8 187.77 1188.55 187.75 1188.29 187.7L1188.17 187.68L1188.2 187.38C1188.49 187.42 1188.77 187.44 1189.03 187.44V187.43ZM1189.11 186.19C1189.31 186.19 1189.53 186.15 1189.78 186.06L1189.91 186.02C1189.9 185.23 1189.64 184.84 1189.14 184.84C1188.92 184.84 1188.75 184.91 1188.62 185.04C1188.49 185.17 1188.43 185.34 1188.43 185.57C1188.43 185.99 1188.66 186.21 1189.11 186.21V186.19ZM1191.27 187.73L1192.25 184.46L1192.48 184.54L1191.5 187.8L1191.27 187.73ZM1190.66 185.17C1190.66 184.73 1190.84 184.51 1191.19 184.51C1191.54 184.51 1191.71 184.73 1191.71 185.17C1191.71 185.4 1191.67 185.56 1191.58 185.68C1191.48 185.79 1191.35 185.85 1191.19 185.85C1191.02 185.85 1190.89 185.79 1190.8 185.68C1190.71 185.57 1190.66 185.4 1190.66 185.17ZM1190.95 185.17C1190.95 185.46 1191.03 185.6 1191.19 185.6C1191.35 185.6 1191.43 185.46 1191.43 185.17C1191.43 185.03 1191.41 184.92 1191.37 184.85C1191.33 184.78 1191.27 184.75 1191.19 184.75C1191.11 184.75 1191.04 184.78 1191.01 184.85C1190.97 184.92 1190.95 185.02 1190.95 185.17ZM1192.02 187.08C1192.02 186.64 1192.2 186.42 1192.55 186.42C1192.9 186.42 1193.07 186.64 1193.07 187.08C1193.07 187.3 1193.03 187.47 1192.93 187.59C1192.84 187.7 1192.71 187.76 1192.55 187.76C1192.38 187.76 1192.25 187.7 1192.16 187.59C1192.07 187.48 1192.02 187.31 1192.02 187.08ZM1192.31 187.08C1192.31 187.37 1192.39 187.51 1192.55 187.51C1192.63 187.51 1192.7 187.47 1192.73 187.4C1192.77 187.33 1192.78 187.22 1192.78 187.08C1192.78 186.94 1192.77 186.83 1192.73 186.76C1192.7 186.69 1192.64 186.66 1192.55 186.66C1192.46 186.66 1192.4 186.69 1192.36 186.76C1192.33 186.82 1192.31 186.93 1192.31 187.07V187.08Z" fill="white"/>
<path d="M654.39 224.28V223.95H655.29V223.02H655.63V223.95H656.54V224.28H655.63V225.22H655.29V224.28H654.39ZM659.08 222.16V222.5H657.55L657.46 223.53C657.7 223.4 657.95 223.33 658.2 223.33C658.87 223.33 659.2 223.64 659.2 224.26C659.2 224.62 659.11 224.89 658.92 225.08C658.73 225.27 658.47 225.36 658.14 225.36C657.87 225.36 657.58 225.33 657.25 225.26L657.09 225.23L657.13 224.94C657.5 225.01 657.8 225.04 658.05 225.04C658.3 225.04 658.49 224.98 658.62 224.85C658.75 224.72 658.81 224.54 658.81 224.31C658.81 224.08 658.75 223.91 658.63 223.82C658.52 223.72 658.35 223.67 658.14 223.67C658.03 223.67 657.9 223.69 657.78 223.72C657.66 223.75 657.56 223.78 657.49 223.82L657.39 223.87L657.14 223.82L657.23 222.18H659.07L659.08 222.16ZM659.79 225.31V224.77H660.18V225.31H659.79ZM662.85 225.31H660.83V225L661.75 224.03C661.91 223.86 662.03 223.74 662.1 223.65C662.17 223.56 662.24 223.46 662.3 223.34C662.36 223.22 662.39 223.1 662.39 222.99C662.39 222.79 662.33 222.64 662.22 222.56C662.11 222.48 661.93 222.44 661.7 222.44C661.49 222.44 661.26 222.47 661.01 222.52L660.89 222.54L660.86 222.23C661.16 222.14 661.48 222.1 661.8 222.1C662.12 222.1 662.36 222.17 662.53 222.31C662.7 222.44 662.78 222.66 662.78 222.95C662.78 223.17 662.73 223.37 662.63 223.53C662.53 223.69 662.36 223.89 662.12 224.13L661.28 224.99H662.86V225.31H662.85ZM663.92 225.33L664.9 222.06L665.13 222.14L664.15 225.4L663.92 225.33ZM663.31 222.77C663.31 222.33 663.49 222.11 663.84 222.11C664.19 222.11 664.37 222.33 664.37 222.77C664.37 223 664.32 223.17 664.23 223.28C664.14 223.39 664.01 223.45 663.84 223.45C663.67 223.45 663.55 223.39 663.45 223.28C663.36 223.17 663.31 223 663.31 222.77ZM663.6 222.77C663.6 223.06 663.68 223.2 663.83 223.2C663.98 223.2 664.07 223.06 664.07 222.77C664.07 222.63 664.05 222.52 664.01 222.45C663.98 222.38 663.91 222.35 663.83 222.35C663.75 222.35 663.69 222.38 663.65 222.45C663.61 222.52 663.6 222.62 663.6 222.77ZM664.67 224.68C664.67 224.24 664.84 224.03 665.19 224.03C665.54 224.03 665.71 224.25 665.71 224.69C665.71 224.91 665.66 225.08 665.57 225.2C665.48 225.31 665.35 225.37 665.18 225.37C665.01 225.37 664.88 225.31 664.79 225.2C664.7 225.09 664.66 224.91 664.66 224.69L664.67 224.68ZM664.96 224.68C664.96 224.97 665.04 225.11 665.2 225.11C665.29 225.11 665.35 225.08 665.39 225.01C665.42 224.94 665.44 224.83 665.44 224.69C665.44 224.55 665.42 224.44 665.39 224.37C665.36 224.3 665.3 224.27 665.21 224.27C665.12 224.27 665.06 224.3 665.02 224.37C664.98 224.43 664.97 224.54 664.97 224.68H664.96Z" fill="white"/>
<path d="M616.72 121.65V121.32H617.62V120.39H617.96V121.32H618.87V121.65H617.96V122.59H617.62V121.65H616.72ZM620.85 122.69V122.07H619.32V121.78L620.22 119.53H620.62L619.71 121.74H620.85V120.75H621.22V121.74H621.62V122.06H621.22V122.68H620.85V122.69ZM622.12 122.69V122.14H622.51V122.69H622.12ZM623.18 119.62C623.48 119.53 623.8 119.49 624.14 119.49C624.48 119.49 624.73 119.56 624.88 119.69C625.03 119.82 625.11 120.03 625.11 120.32C625.11 120.47 625.09 120.57 625.05 120.64C625.01 120.7 624.98 120.75 624.95 120.79C624.93 120.82 624.9 120.86 624.86 120.89C624.79 120.95 624.73 120.98 624.69 121L624.64 121.03C624.82 121.1 624.96 121.18 625.05 121.29C625.14 121.39 625.18 121.56 625.18 121.8C625.18 122.12 625.1 122.36 624.93 122.52C624.77 122.68 624.51 122.76 624.16 122.76C623.88 122.76 623.58 122.73 623.27 122.66L623.12 122.63L623.15 122.33C623.49 122.4 623.82 122.44 624.11 122.44C624.57 122.44 624.79 122.23 624.79 121.83C624.79 121.45 624.57 121.25 624.14 121.24H623.5V120.92H624.14C624.27 120.92 624.4 120.87 624.53 120.76C624.65 120.65 624.72 120.51 624.72 120.33C624.72 120.15 624.67 120.03 624.57 119.95C624.47 119.87 624.31 119.83 624.07 119.83C623.81 119.83 623.56 119.85 623.31 119.9L623.19 119.92L623.16 119.63L623.18 119.62ZM626.25 122.71L627.23 119.44L627.46 119.52L626.48 122.78L626.25 122.71ZM625.64 120.15C625.64 119.71 625.82 119.49 626.17 119.49C626.52 119.49 626.7 119.71 626.7 120.15C626.7 120.38 626.65 120.55 626.56 120.66C626.47 120.77 626.34 120.83 626.17 120.83C626 120.83 625.88 120.77 625.78 120.66C625.69 120.55 625.64 120.38 625.64 120.15ZM625.93 120.15C625.93 120.44 626.01 120.58 626.16 120.58C626.31 120.58 626.4 120.44 626.4 120.15C626.4 120.01 626.38 119.9 626.34 119.83C626.31 119.76 626.24 119.73 626.16 119.73C626.08 119.73 626.02 119.76 625.98 119.83C625.94 119.9 625.93 120 625.93 120.15ZM627 122.06C627 121.62 627.17 121.41 627.52 121.41C627.87 121.41 628.04 121.63 628.04 122.07C628.04 122.29 627.99 122.46 627.9 122.58C627.81 122.69 627.68 122.75 627.51 122.75C627.34 122.75 627.21 122.69 627.12 122.58C627.03 122.47 626.99 122.29 626.99 122.07L627 122.06ZM627.29 122.06C627.29 122.35 627.37 122.49 627.53 122.49C627.62 122.49 627.68 122.46 627.72 122.39C627.75 122.32 627.77 122.21 627.77 122.06C627.77 121.91 627.75 121.81 627.72 121.74C627.69 121.67 627.62 121.64 627.54 121.64C627.46 121.64 627.39 121.67 627.35 121.74C627.31 121.8 627.3 121.91 627.3 122.05L627.29 122.06Z" fill="white"/>
<path d="M918.05 100.54V100.21H918.95V99.2801H919.29V100.21H920.2V100.54H919.29V101.48H918.95V100.54H918.05ZM922.81 101.58H920.79V101.27L921.71 100.3C921.87 100.13 921.99 100.01 922.06 99.9201C922.13 99.8301 922.2 99.7301 922.26 99.6101C922.32 99.4901 922.35 99.3701 922.35 99.2601C922.35 99.0601 922.29 98.9101 922.18 98.8301C922.07 98.7501 921.89 98.7101 921.66 98.7101C921.45 98.7101 921.22 98.7401 920.97 98.7901L920.85 98.8101L920.82 98.5001C921.12 98.4101 921.44 98.3701 921.76 98.3701C922.08 98.3701 922.32 98.4401 922.49 98.5801C922.66 98.7101 922.74 98.9301 922.74 99.2201C922.74 99.4401 922.69 99.6401 922.59 99.8001C922.49 99.9701 922.32 100.16 922.08 100.4L921.24 101.25H922.82V101.57L922.81 101.58ZM923.46 101.58V101.04H923.85V101.58H923.46ZM924.51 98.5101C924.81 98.4201 925.13 98.3801 925.47 98.3801C925.81 98.3801 926.06 98.4501 926.22 98.5801C926.37 98.7101 926.45 98.9201 926.45 99.2101C926.45 99.3601 926.43 99.4601 926.39 99.5301C926.35 99.5901 926.32 99.6401 926.29 99.6801C926.27 99.7201 926.24 99.7501 926.2 99.7801C926.13 99.8301 926.07 99.8701 926.03 99.8901L925.98 99.9201C926.16 99.9901 926.3 100.07 926.39 100.18C926.48 100.28 926.52 100.45 926.52 100.69C926.52 101.01 926.44 101.25 926.27 101.41C926.11 101.57 925.85 101.65 925.5 101.65C925.22 101.65 924.92 101.62 924.61 101.55L924.46 101.52L924.49 101.22C924.83 101.29 925.16 101.32 925.46 101.32C925.91 101.32 926.14 101.11 926.14 100.71C926.14 100.33 925.92 100.13 925.49 100.12H924.85V99.8001H925.49C925.62 99.8001 925.75 99.7501 925.88 99.6401C926 99.5301 926.07 99.3901 926.07 99.2101C926.07 99.0301 926.02 98.9101 925.92 98.8301C925.82 98.7501 925.66 98.7101 925.42 98.7101C925.16 98.7101 924.91 98.7301 924.66 98.7801L924.54 98.8001L924.51 98.5101ZM927.58 101.6L928.56 98.3301L928.79 98.4101L927.81 101.67L927.58 101.6ZM926.97 99.0401C926.97 98.6001 927.14 98.3801 927.5 98.3801C927.86 98.3801 928.02 98.6001 928.02 99.0401C928.02 99.2701 927.97 99.4401 927.88 99.5501C927.79 99.6601 927.66 99.7201 927.49 99.7201C927.32 99.7201 927.19 99.6601 927.1 99.5501C927.01 99.4401 926.96 99.2701 926.96 99.0401H926.97ZM927.26 99.0401C927.26 99.3301 927.34 99.4701 927.5 99.4701C927.66 99.4701 927.74 99.3301 927.74 99.0401C927.74 98.9001 927.72 98.7901 927.68 98.7201C927.65 98.6501 927.59 98.6201 927.5 98.6201C927.41 98.6201 927.36 98.6501 927.32 98.7201C927.28 98.7901 927.27 98.8901 927.27 99.0401H927.26ZM928.33 100.95C928.33 100.51 928.5 100.3 928.85 100.3C929.2 100.3 929.38 100.52 929.38 100.96C929.38 101.18 929.33 101.35 929.24 101.47C929.15 101.58 929.02 101.64 928.85 101.64C928.68 101.64 928.55 101.58 928.46 101.47C928.37 101.35 928.33 101.18 928.33 100.96V100.95ZM928.62 100.95C928.62 101.24 928.7 101.38 928.85 101.38C928.94 101.38 929 101.35 929.04 101.28C929.08 101.21 929.09 101.1 929.09 100.95C929.09 100.8 929.07 100.7 929.04 100.63C929.01 100.56 928.95 100.53 928.86 100.53C928.77 100.53 928.71 100.56 928.67 100.63C928.63 100.69 928.62 100.8 928.62 100.94V100.95Z" fill="white"/>
<path d="M466.66 241.17V240.84H468.11V241.17H466.66ZM470.71 239.16V239.5H469.18L469.09 240.53C469.33 240.4 469.58 240.33 469.83 240.33C470.5 240.33 470.83 240.64 470.83 241.26C470.83 241.62 470.74 241.89 470.55 242.08C470.37 242.27 470.11 242.36 469.77 242.36C469.5 242.36 469.21 242.32 468.88 242.26L468.72 242.23L468.76 241.94C469.13 242.01 469.43 242.04 469.68 242.04C469.93 242.04 470.12 241.98 470.25 241.85C470.38 241.72 470.44 241.54 470.44 241.3C470.44 241.06 470.38 240.9 470.26 240.81C470.15 240.71 469.98 240.66 469.77 240.66C469.66 240.66 469.53 240.68 469.41 240.71C469.29 240.74 469.19 240.77 469.12 240.81L469.02 240.86L468.77 240.81L468.86 239.17H470.7L470.71 239.16ZM471.42 242.31V241.77H471.81V242.31H471.42ZM472.48 239.24C472.78 239.15 473.1 239.11 473.44 239.11C473.78 239.11 474.03 239.18 474.18 239.31C474.33 239.44 474.41 239.65 474.41 239.94C474.41 240.09 474.39 240.19 474.35 240.26C474.31 240.32 474.28 240.37 474.25 240.41C474.23 240.45 474.2 240.48 474.16 240.51C474.09 240.56 474.03 240.6 473.99 240.62L473.94 240.65C474.12 240.72 474.26 240.8 474.35 240.91C474.44 241.01 474.48 241.18 474.48 241.42C474.48 241.74 474.4 241.98 474.23 242.14C474.07 242.3 473.81 242.37 473.46 242.37C473.18 242.37 472.88 242.34 472.57 242.27L472.42 242.24L472.45 241.94C472.8 242.01 473.12 242.05 473.42 242.05C473.88 242.05 474.1 241.84 474.1 241.44C474.1 241.06 473.88 240.86 473.45 240.85H472.81V240.53H473.45C473.58 240.53 473.71 240.48 473.84 240.37C473.96 240.26 474.03 240.12 474.03 239.94C474.03 239.76 473.98 239.64 473.88 239.56C473.78 239.48 473.62 239.44 473.38 239.44C473.12 239.44 472.87 239.46 472.62 239.51L472.5 239.53L472.47 239.24H472.48ZM475.55 242.33L476.53 239.06L476.76 239.14L475.78 242.4L475.55 242.33ZM474.94 239.77C474.94 239.33 475.12 239.11 475.47 239.11C475.82 239.11 476 239.33 476 239.77C476 240 475.95 240.17 475.86 240.28C475.77 240.39 475.64 240.45 475.47 240.45C475.3 240.45 475.17 240.4 475.08 240.28C474.99 240.17 474.94 240 474.94 239.77ZM475.23 239.77C475.23 240.06 475.31 240.2 475.46 240.2C475.61 240.2 475.7 240.06 475.7 239.77C475.7 239.63 475.68 239.52 475.64 239.45C475.6 239.38 475.54 239.35 475.46 239.35C475.38 239.35 475.32 239.38 475.28 239.45C475.24 239.52 475.23 239.62 475.23 239.77ZM476.3 241.68C476.3 241.24 476.47 241.03 476.82 241.03C477.17 241.03 477.34 241.25 477.34 241.69C477.34 241.91 477.29 242.08 477.2 242.2C477.11 242.31 476.98 242.37 476.81 242.37C476.64 242.37 476.51 242.31 476.42 242.2C476.33 242.09 476.29 241.92 476.29 241.69L476.3 241.68ZM476.59 241.68C476.59 241.97 476.67 242.11 476.83 242.11C476.92 242.11 476.98 242.07 477.02 242.01C477.05 241.94 477.07 241.83 477.07 241.69C477.07 241.55 477.05 241.44 477.02 241.37C476.98 241.3 476.92 241.27 476.84 241.27C476.76 241.27 476.69 241.3 476.65 241.37C476.61 241.43 476.6 241.54 476.6 241.68H476.59Z" fill="white"/>
<path d="M391.33 226.2V225.87H392.78V226.2H391.33ZM393.6 224.35C393.8 224.21 394.08 224.14 394.43 224.14C394.78 224.14 395.06 224.21 395.26 224.35C395.47 224.49 395.57 224.69 395.57 224.96C395.57 225.16 395.53 225.31 395.45 225.41C395.37 225.51 395.24 225.61 395.04 225.69C395.23 225.78 395.37 225.88 395.47 226C395.57 226.11 395.61 226.28 395.61 226.49C395.61 227.09 395.21 227.39 394.43 227.39C393.65 227.39 393.25 227.11 393.25 226.54C393.25 226.31 393.29 226.14 393.38 226.02C393.47 225.9 393.61 225.79 393.8 225.69C393.63 225.6 393.5 225.51 393.42 225.4C393.34 225.29 393.3 225.14 393.3 224.95C393.3 224.68 393.4 224.48 393.6 224.34V224.35ZM393.64 226.48C393.64 226.87 393.9 227.06 394.43 227.06C394.96 227.06 395.22 226.86 395.22 226.45C395.22 226.28 395.17 226.16 395.08 226.08C394.99 226 394.85 225.93 394.66 225.87H394.16C393.98 225.92 393.85 225.99 393.77 226.08C393.68 226.17 393.64 226.3 393.64 226.47V226.48ZM395.17 225C395.17 224.65 394.92 224.47 394.43 224.47C393.94 224.47 393.69 224.65 393.69 225C393.69 225.14 393.73 225.25 393.81 225.34C393.89 225.43 394 225.5 394.16 225.55H394.66C394.83 225.5 394.96 225.43 395.04 225.34C395.13 225.25 395.17 225.14 395.17 225ZM396.09 227.34V226.79H396.48V227.34H396.09ZM397.15 224.27C397.45 224.18 397.77 224.14 398.11 224.14C398.45 224.14 398.7 224.2 398.85 224.34C399 224.47 399.08 224.68 399.08 224.97C399.08 225.12 399.06 225.22 399.02 225.29C398.98 225.35 398.95 225.4 398.92 225.44C398.9 225.47 398.87 225.51 398.83 225.54C398.76 225.59 398.7 225.63 398.66 225.66L398.61 225.69C398.79 225.76 398.93 225.84 399.02 225.95C399.11 226.05 399.15 226.22 399.15 226.46C399.15 226.78 399.07 227.02 398.9 227.18C398.74 227.34 398.48 227.41 398.13 227.41C397.85 227.41 397.55 227.38 397.24 227.31L397.09 227.28L397.12 226.98C397.46 227.05 397.79 227.08 398.09 227.08C398.55 227.08 398.77 226.87 398.77 226.47C398.77 226.09 398.55 225.89 398.12 225.88H397.48V225.56H398.12C398.25 225.56 398.38 225.51 398.51 225.4C398.63 225.29 398.7 225.15 398.7 224.97C398.7 224.79 398.65 224.67 398.55 224.59C398.45 224.51 398.29 224.47 398.05 224.47C397.8 224.47 397.54 224.49 397.3 224.54L397.18 224.56L397.15 224.27ZM400.22 227.36L401.2 224.09L401.43 224.17L400.45 227.43L400.22 227.36ZM399.61 224.8C399.61 224.36 399.79 224.14 400.14 224.14C400.49 224.14 400.67 224.36 400.67 224.8C400.67 225.03 400.62 225.2 400.53 225.31C400.44 225.42 400.31 225.48 400.14 225.48C399.97 225.48 399.84 225.42 399.75 225.31C399.66 225.2 399.61 225.03 399.61 224.8ZM399.9 224.8C399.9 225.09 399.98 225.23 400.13 225.23C400.28 225.23 400.37 225.09 400.37 224.8C400.37 224.66 400.35 224.55 400.31 224.48C400.27 224.41 400.21 224.38 400.13 224.38C400.05 224.38 399.99 224.41 399.95 224.48C399.91 224.55 399.9 224.65 399.9 224.8ZM400.97 226.71C400.97 226.27 401.14 226.06 401.49 226.06C401.84 226.06 402.02 226.28 402.02 226.72C402.02 226.94 401.97 227.11 401.88 227.23C401.79 227.34 401.66 227.4 401.49 227.4C401.32 227.4 401.2 227.34 401.1 227.23C401.01 227.11 400.97 226.94 400.97 226.72V226.71ZM401.26 226.71C401.26 227 401.34 227.15 401.49 227.15C401.58 227.15 401.64 227.11 401.68 227.04C401.72 226.97 401.73 226.86 401.73 226.72C401.73 226.58 401.71 226.47 401.68 226.4C401.64 226.33 401.58 226.3 401.5 226.3C401.42 226.3 401.35 226.33 401.31 226.4C401.27 226.46 401.26 226.57 401.26 226.71Z" fill="white"/>
<path d="M543 267.24V266.9H544.45V267.24H543ZM546.63 265.23V268.38H546.26V265.64L545.45 266.18L545.28 265.9L546.28 265.23H546.62H546.63ZM549.3 265.23V268.38H548.93V265.64L548.12 266.18L547.95 265.9L548.95 265.23H549.29H549.3ZM550.86 268.4L551.84 265.13L552.07 265.21L551.09 268.47L550.86 268.4ZM550.25 265.84C550.25 265.4 550.43 265.18 550.78 265.18C551.13 265.18 551.31 265.4 551.31 265.84C551.31 266.07 551.26 266.24 551.17 266.35C551.08 266.46 550.95 266.52 550.78 266.52C550.61 266.52 550.49 266.46 550.39 266.35C550.3 266.24 550.25 266.07 550.25 265.84ZM550.54 265.84C550.54 266.13 550.62 266.27 550.77 266.27C550.92 266.27 551.01 266.13 551.01 265.84C551.01 265.7 550.99 265.59 550.95 265.53C550.91 265.46 550.85 265.43 550.77 265.43C550.69 265.43 550.63 265.46 550.59 265.53C550.56 265.6 550.54 265.7 550.54 265.84ZM551.61 267.75C551.61 267.31 551.78 267.1 552.13 267.1C552.48 267.1 552.66 267.32 552.66 267.76C552.66 267.98 552.61 268.15 552.52 268.27C552.43 268.38 552.3 268.44 552.13 268.44C551.96 268.44 551.84 268.38 551.74 268.27C551.65 268.16 551.61 267.98 551.61 267.76V267.75ZM551.9 267.75C551.9 268.04 551.98 268.18 552.13 268.18C552.22 268.18 552.28 268.14 552.32 268.07C552.35 268 552.37 267.89 552.37 267.75C552.37 267.61 552.35 267.5 552.32 267.43C552.28 267.36 552.22 267.33 552.14 267.33C552.06 267.33 551.99 267.36 551.95 267.43C551.91 267.49 551.9 267.6 551.9 267.74V267.75Z" fill="white"/>
<path d="M505.32 203.06V202.72H506.77V203.06H505.32ZM508.95 201.05V204.2H508.58V201.46L507.77 202L507.6 201.72L508.6 201.05H508.94H508.95ZM511.1 201C511.36 201 511.57 201.05 511.74 201.15C512.08 201.35 512.26 201.86 512.26 202.68C512.26 203.26 512.16 203.67 511.97 203.9C511.78 204.14 511.49 204.25 511.11 204.25C510.73 204.25 510.44 204.13 510.24 203.9C510.05 203.66 509.95 203.25 509.95 202.65C509.95 202.05 510.04 201.62 510.23 201.37C510.42 201.12 510.71 200.99 511.1 200.99V201ZM511.1 201.33C510.92 201.33 510.77 201.37 510.67 201.45C510.44 201.61 510.33 202.02 510.33 202.69C510.33 203.16 510.39 203.49 510.52 203.67C510.64 203.85 510.84 203.94 511.1 203.94C511.36 203.94 511.56 203.85 511.68 203.67C511.8 203.49 511.87 203.15 511.87 202.66C511.87 202.17 511.81 201.82 511.69 201.63C511.57 201.44 511.38 201.34 511.1 201.34V201.33ZM513.18 204.23L514.16 200.96L514.39 201.04L513.41 204.3L513.18 204.23ZM512.57 201.67C512.57 201.23 512.75 201.01 513.1 201.01C513.45 201.01 513.63 201.23 513.63 201.67C513.63 201.9 513.58 202.06 513.49 202.18C513.4 202.29 513.27 202.35 513.1 202.35C512.93 202.35 512.81 202.29 512.71 202.18C512.62 202.07 512.57 201.9 512.57 201.67ZM512.86 201.67C512.86 201.96 512.94 202.1 513.09 202.1C513.24 202.1 513.33 201.96 513.33 201.67C513.33 201.53 513.31 201.42 513.27 201.35C513.23 201.28 513.17 201.25 513.09 201.25C513.01 201.25 512.95 201.28 512.91 201.35C512.87 201.42 512.86 201.52 512.86 201.67ZM513.93 203.58C513.93 203.14 514.1 202.93 514.45 202.93C514.8 202.93 514.98 203.15 514.98 203.59C514.98 203.81 514.93 203.98 514.84 204.1C514.75 204.21 514.62 204.27 514.45 204.27C514.28 204.27 514.16 204.21 514.06 204.1C513.97 203.99 513.93 203.82 513.93 203.59V203.58ZM514.22 203.58C514.22 203.87 514.3 204.01 514.45 204.01C514.54 204.01 514.6 203.97 514.64 203.9C514.67 203.83 514.69 203.72 514.69 203.58C514.69 203.44 514.67 203.33 514.64 203.26C514.6 203.19 514.54 203.16 514.46 203.16C514.38 203.16 514.31 203.19 514.27 203.26C514.23 203.32 514.22 203.43 514.22 203.57V203.58Z" fill="white"/>
<path d="M956.35 226.2V225.87H957.8V226.2H956.35ZM958.62 224.35C958.82 224.21 959.1 224.14 959.45 224.14C959.8 224.14 960.08 224.21 960.28 224.35C960.49 224.49 960.59 224.69 960.59 224.96C960.59 225.16 960.55 225.31 960.47 225.41C960.39 225.51 960.26 225.61 960.06 225.69C960.25 225.78 960.4 225.88 960.49 226C960.59 226.11 960.63 226.28 960.63 226.49C960.63 227.09 960.23 227.39 959.44 227.39C958.65 227.39 958.26 227.11 958.26 226.54C958.26 226.31 958.3 226.14 958.39 226.02C958.48 225.9 958.62 225.79 958.8 225.69C958.63 225.6 958.5 225.51 958.42 225.4C958.34 225.29 958.31 225.14 958.31 224.95C958.31 224.68 958.41 224.48 958.61 224.34L958.62 224.35ZM958.66 226.48C958.66 226.87 958.92 227.06 959.45 227.06C959.98 227.06 960.24 226.86 960.24 226.45C960.24 226.28 960.19 226.16 960.1 226.08C960.01 226 959.87 225.93 959.68 225.87H959.18C959 225.92 958.87 225.99 958.79 226.08C958.7 226.17 958.66 226.3 958.66 226.47V226.48ZM960.2 225C960.2 224.65 959.95 224.47 959.46 224.47C958.97 224.47 958.72 224.65 958.72 225C958.72 225.14 958.76 225.25 958.83 225.34C958.91 225.43 959.02 225.5 959.18 225.55H959.68C959.85 225.5 959.98 225.43 960.06 225.34C960.15 225.25 960.19 225.14 960.19 225H960.2ZM961.12 227.34V226.79H961.51V227.34H961.12ZM962.17 224.27C962.47 224.18 962.79 224.14 963.13 224.14C963.47 224.14 963.72 224.2 963.88 224.34C964.03 224.47 964.11 224.68 964.11 224.97C964.11 225.12 964.09 225.22 964.05 225.29C964.01 225.35 963.98 225.4 963.95 225.44C963.93 225.47 963.9 225.51 963.86 225.54C963.79 225.59 963.74 225.63 963.69 225.66L963.64 225.69C963.82 225.76 963.96 225.84 964.05 225.95C964.14 226.05 964.18 226.22 964.18 226.46C964.18 226.78 964.1 227.02 963.93 227.18C963.77 227.34 963.51 227.41 963.16 227.41C962.88 227.41 962.58 227.38 962.27 227.31L962.12 227.28L962.15 226.98C962.49 227.05 962.82 227.08 963.12 227.08C963.58 227.08 963.8 226.87 963.8 226.47C963.8 226.09 963.58 225.89 963.15 225.88H962.51V225.56H963.15C963.28 225.56 963.41 225.51 963.54 225.4C963.66 225.29 963.73 225.15 963.73 224.97C963.73 224.79 963.68 224.67 963.58 224.59C963.48 224.51 963.32 224.47 963.08 224.47C962.82 224.47 962.57 224.49 962.32 224.54L962.2 224.56L962.17 224.27ZM965.24 227.36L966.22 224.09L966.45 224.17L965.47 227.43L965.24 227.36ZM964.63 224.8C964.63 224.36 964.8 224.14 965.16 224.14C965.52 224.14 965.69 224.36 965.69 224.8C965.69 225.03 965.64 225.2 965.55 225.31C965.46 225.42 965.33 225.48 965.16 225.48C964.99 225.48 964.87 225.42 964.77 225.31C964.68 225.2 964.63 225.03 964.63 224.8ZM964.92 224.8C964.92 225.09 965 225.23 965.15 225.23C965.3 225.23 965.39 225.09 965.39 224.8C965.39 224.66 965.37 224.55 965.33 224.48C965.29 224.41 965.23 224.38 965.15 224.38C965.07 224.38 965.01 224.41 964.97 224.48C964.94 224.55 964.92 224.65 964.92 224.8ZM965.99 226.71C965.99 226.27 966.16 226.06 966.51 226.06C966.86 226.06 967.04 226.28 967.04 226.72C967.04 226.94 966.99 227.11 966.9 227.23C966.81 227.34 966.68 227.4 966.51 227.4C966.34 227.4 966.22 227.34 966.12 227.23C966.03 227.11 965.99 226.94 965.99 226.72V226.71ZM966.28 226.71C966.28 227 966.36 227.15 966.51 227.15C966.6 227.15 966.66 227.11 966.7 227.04C966.73 226.97 966.75 226.86 966.75 226.72C966.75 226.58 966.73 226.47 966.7 226.4C966.66 226.33 966.6 226.3 966.52 226.3C966.44 226.3 966.37 226.33 966.33 226.4C966.3 226.46 966.28 226.57 966.28 226.71Z" fill="white"/>
<path d="M1070.34 203.06V202.72H1071.79V203.06H1070.34ZM1073.97 201.05V204.2H1073.6V201.46L1072.79 202L1072.62 201.72L1073.63 201.05H1073.97ZM1076.12 201C1076.38 201 1076.59 201.05 1076.76 201.15C1077.1 201.35 1077.27 201.86 1077.27 202.68C1077.27 203.26 1077.18 203.67 1076.99 203.9C1076.79 204.14 1076.51 204.25 1076.12 204.25C1075.73 204.25 1075.45 204.13 1075.26 203.9C1075.07 203.66 1074.97 203.25 1074.97 202.65C1074.97 202.05 1075.07 201.62 1075.25 201.37C1075.45 201.12 1075.73 200.99 1076.12 200.99V201ZM1076.12 201.33C1075.94 201.33 1075.8 201.37 1075.69 201.45C1075.47 201.61 1075.36 202.02 1075.36 202.69C1075.36 203.16 1075.42 203.49 1075.54 203.67C1075.67 203.85 1075.86 203.94 1076.12 203.94C1076.38 203.94 1076.58 203.85 1076.71 203.67C1076.83 203.49 1076.89 203.15 1076.89 202.66C1076.89 202.17 1076.83 201.82 1076.71 201.63C1076.59 201.44 1076.4 201.34 1076.12 201.34V201.33ZM1078.2 204.23L1079.18 200.96L1079.41 201.04L1078.43 204.3L1078.2 204.23ZM1077.59 201.67C1077.59 201.23 1077.77 201.01 1078.12 201.01C1078.47 201.01 1078.65 201.23 1078.65 201.67C1078.65 201.9 1078.6 202.06 1078.51 202.18C1078.42 202.29 1078.29 202.35 1078.12 202.35C1077.95 202.35 1077.83 202.29 1077.73 202.18C1077.64 202.07 1077.59 201.9 1077.59 201.67ZM1077.89 201.67C1077.89 201.96 1077.96 202.1 1078.12 202.1C1078.28 202.1 1078.36 201.96 1078.36 201.67C1078.36 201.53 1078.34 201.42 1078.3 201.35C1078.27 201.28 1078.21 201.25 1078.12 201.25C1078.04 201.25 1077.98 201.28 1077.94 201.35C1077.9 201.42 1077.89 201.52 1077.89 201.67ZM1078.96 203.58C1078.96 203.14 1079.13 202.93 1079.48 202.93C1079.83 202.93 1080 203.15 1080 203.59C1080 203.81 1079.96 203.98 1079.87 204.1C1079.77 204.21 1079.64 204.27 1079.48 204.27C1079.31 204.27 1079.18 204.21 1079.09 204.1C1079 203.99 1078.96 203.82 1078.96 203.59V203.58ZM1079.24 203.58C1079.24 203.87 1079.32 204.01 1079.48 204.01C1079.57 204.01 1079.63 203.97 1079.66 203.9C1079.7 203.83 1079.72 203.72 1079.72 203.58C1079.72 203.44 1079.7 203.33 1079.66 203.26C1079.63 203.19 1079.57 203.16 1079.48 203.16C1079.4 203.16 1079.33 203.19 1079.3 203.26C1079.26 203.32 1079.24 203.43 1079.24 203.57V203.58Z" fill="white"/>
<path d="M1026.84 79.22V78.68H1029.19V79.22H1026.84ZM1032.72 75.96V81.08H1032.13V76.63L1030.81 77.5L1030.54 77.05L1032.17 75.96H1032.72ZM1036.21 75.87C1036.63 75.87 1036.98 75.95 1037.24 76.11C1037.8 76.44 1038.08 77.27 1038.08 78.59C1038.08 79.53 1037.92 80.19 1037.61 80.57C1037.3 80.95 1036.84 81.14 1036.22 81.14C1035.6 81.14 1035.13 80.95 1034.81 80.57C1034.5 80.19 1034.35 79.51 1034.35 78.54C1034.35 77.57 1034.5 76.87 1034.81 76.47C1035.12 76.06 1035.58 75.86 1036.21 75.86V75.87ZM1036.22 76.4C1035.92 76.4 1035.69 76.46 1035.52 76.59C1035.15 76.84 1034.97 77.51 1034.97 78.6C1034.97 79.36 1035.07 79.89 1035.27 80.19C1035.47 80.48 1035.79 80.62 1036.22 80.62C1036.65 80.62 1036.96 80.47 1037.16 80.18C1037.36 79.89 1037.46 79.34 1037.46 78.54C1037.46 77.74 1037.37 77.18 1037.17 76.87C1036.98 76.55 1036.66 76.4 1036.22 76.4ZM1039.58 81.1L1041.17 75.79L1041.55 75.91L1039.96 81.2L1039.58 81.09V81.1ZM1038.6 76.95C1038.6 76.24 1038.88 75.88 1039.45 75.88C1040.02 75.88 1040.31 76.24 1040.31 76.95C1040.31 77.32 1040.23 77.59 1040.08 77.77C1039.93 77.95 1039.72 78.04 1039.45 78.04C1039.18 78.04 1038.97 77.95 1038.83 77.77C1038.68 77.59 1038.6 77.32 1038.6 76.95ZM1039.07 76.95C1039.07 77.41 1039.2 77.65 1039.45 77.65C1039.7 77.65 1039.84 77.42 1039.84 76.95C1039.84 76.72 1039.81 76.55 1039.75 76.44C1039.69 76.33 1039.59 76.28 1039.45 76.28C1039.32 76.28 1039.22 76.33 1039.16 76.44C1039.1 76.55 1039.07 76.72 1039.07 76.95ZM1040.81 80.05C1040.81 79.34 1041.09 78.99 1041.65 78.99C1042.21 78.99 1042.51 79.35 1042.51 80.06C1042.51 80.42 1042.43 80.7 1042.28 80.88C1042.13 81.06 1041.92 81.15 1041.65 81.15C1041.38 81.15 1041.18 81.06 1041.03 80.88C1040.88 80.69 1040.81 80.42 1040.81 80.05ZM1041.27 80.05C1041.27 80.52 1041.4 80.76 1041.65 80.76C1041.8 80.76 1041.9 80.7 1041.96 80.59C1042.01 80.48 1042.04 80.3 1042.04 80.06C1042.04 79.82 1042.01 79.65 1041.96 79.55C1041.9 79.44 1041.8 79.39 1041.66 79.39C1041.52 79.39 1041.42 79.44 1041.36 79.55C1041.3 79.65 1041.27 79.82 1041.27 80.05Z" fill="white"/>
<path d="M86.33 105.71V105.17H88.68V105.71H86.33ZM92.22 102.46V107.57H91.62V103.12L90.3 103.99L90.03 103.54L91.66 102.46H92.22ZM95.7 102.38C96.12 102.38 96.47 102.46 96.73 102.62C97.29 102.95 97.57 103.78 97.57 105.1C97.57 106.03 97.42 106.7 97.11 107.08C96.8 107.46 96.33 107.65 95.71 107.65C95.09 107.65 94.62 107.46 94.31 107.08C94 106.7 93.85 106.02 93.85 105.05C93.85 104.08 94 103.38 94.31 102.98C94.62 102.57 95.09 102.37 95.71 102.37L95.7 102.38ZM95.7 102.91C95.41 102.91 95.17 102.97 95 103.1C94.63 103.35 94.45 104.02 94.45 105.11C94.45 105.87 94.55 106.4 94.75 106.7C94.95 106.99 95.27 107.13 95.7 107.13C96.13 107.13 96.44 106.98 96.65 106.69C96.85 106.4 96.95 105.85 96.95 105.05C96.95 104.25 96.85 103.69 96.66 103.38C96.47 103.07 96.15 102.91 95.71 102.91H95.7ZM99.07 107.61L100.66 102.3L101.03 102.42L99.44 107.71L99.07 107.6V107.61ZM98.09 103.46C98.09 102.75 98.37 102.39 98.94 102.39C99.51 102.39 99.79 102.75 99.79 103.46C99.79 103.83 99.71 104.1 99.56 104.28C99.41 104.46 99.2 104.55 98.93 104.55C98.66 104.55 98.45 104.46 98.3 104.28C98.15 104.1 98.08 103.83 98.08 103.46H98.09ZM98.56 103.46C98.56 103.93 98.69 104.16 98.94 104.16C99.19 104.16 99.33 103.93 99.33 103.46C99.33 103.23 99.3 103.06 99.24 102.95C99.18 102.84 99.09 102.79 98.95 102.79C98.81 102.79 98.72 102.84 98.66 102.95C98.6 103.06 98.57 103.23 98.57 103.46H98.56ZM100.3 106.56C100.3 105.85 100.58 105.5 101.15 105.5C101.72 105.5 102 105.86 102 106.57C102 106.93 101.93 107.21 101.78 107.39C101.63 107.57 101.42 107.66 101.15 107.66C100.88 107.66 100.67 107.57 100.52 107.39C100.38 107.2 100.3 106.93 100.3 106.56ZM100.76 106.56C100.76 107.03 100.89 107.27 101.14 107.27C101.28 107.27 101.39 107.21 101.44 107.1C101.5 106.99 101.53 106.81 101.53 106.57C101.53 106.33 101.5 106.16 101.44 106.06C101.38 105.95 101.29 105.9 101.15 105.9C101.01 105.9 100.91 105.96 100.85 106.06C100.79 106.16 100.76 106.33 100.76 106.56Z" fill="white"/>
<path d="M315.99 164.61V164.28H317.44V164.61H315.99ZM318.26 162.76C318.46 162.62 318.74 162.55 319.09 162.55C319.44 162.55 319.72 162.62 319.92 162.76C320.13 162.9 320.23 163.1 320.23 163.37C320.23 163.57 320.19 163.72 320.11 163.82C320.03 163.92 319.9 164.02 319.7 164.1C319.89 164.19 320.04 164.29 320.13 164.41C320.23 164.53 320.27 164.69 320.27 164.9C320.27 165.5 319.88 165.8 319.08 165.8C318.28 165.8 317.9 165.52 317.9 164.95C317.9 164.72 317.94 164.55 318.03 164.43C318.12 164.31 318.26 164.2 318.45 164.1C318.28 164.01 318.15 163.92 318.07 163.81C317.99 163.7 317.96 163.55 317.96 163.36C317.96 163.09 318.06 162.89 318.26 162.75V162.76ZM318.3 164.89C318.3 165.27 318.56 165.47 319.09 165.47C319.62 165.47 319.88 165.27 319.88 164.86C319.88 164.69 319.83 164.57 319.74 164.49C319.65 164.41 319.51 164.34 319.32 164.28H318.82C318.64 164.33 318.51 164.4 318.43 164.5C318.34 164.59 318.3 164.72 318.3 164.89ZM319.83 163.41C319.83 163.06 319.58 162.88 319.09 162.88C318.6 162.88 318.35 163.06 318.35 163.41C318.35 163.55 318.39 163.66 318.46 163.75C318.54 163.84 318.65 163.91 318.81 163.97H319.31C319.48 163.91 319.61 163.85 319.69 163.76C319.78 163.67 319.82 163.56 319.82 163.42L319.83 163.41ZM320.75 165.75V165.21H321.14V165.75H320.75ZM322.64 165.47C323.22 165.47 323.51 165.1 323.51 164.37C323.19 164.49 322.92 164.55 322.69 164.55C322 164.55 321.66 164.23 321.66 163.59C321.66 163.27 321.76 163.01 321.96 162.83C322.16 162.64 322.42 162.55 322.76 162.55C323.15 162.55 323.43 162.69 323.62 162.98C323.81 163.26 323.9 163.68 323.9 164.24C323.9 164.8 323.79 165.19 323.58 165.44C323.37 165.68 323.06 165.81 322.65 165.81C322.41 165.81 322.16 165.79 321.91 165.74L321.79 165.72L321.82 165.42C322.11 165.46 322.38 165.48 322.65 165.48L322.64 165.47ZM322.72 164.23C322.92 164.23 323.14 164.19 323.39 164.1L323.51 164.06C323.51 163.27 323.25 162.87 322.75 162.87C322.53 162.87 322.35 162.94 322.22 163.07C322.1 163.2 322.03 163.37 322.03 163.6C322.03 164.02 322.26 164.24 322.71 164.24L322.72 164.23ZM324.88 165.77L325.86 162.5L326.09 162.58L325.11 165.84L324.88 165.77ZM324.27 163.21C324.27 162.77 324.44 162.55 324.79 162.55C325.14 162.55 325.32 162.77 325.32 163.21C325.32 163.44 325.27 163.61 325.18 163.72C325.09 163.83 324.96 163.89 324.79 163.89C324.62 163.89 324.5 163.83 324.4 163.72C324.31 163.61 324.26 163.44 324.26 163.21H324.27ZM324.56 163.21C324.56 163.5 324.64 163.64 324.79 163.64C324.94 163.64 325.03 163.5 325.03 163.21C325.03 163.07 325.01 162.96 324.97 162.89C324.93 162.82 324.87 162.79 324.79 162.79C324.71 162.79 324.65 162.82 324.61 162.89C324.57 162.96 324.56 163.06 324.56 163.21ZM325.63 165.12C325.63 164.68 325.8 164.47 326.15 164.47C326.5 164.47 326.68 164.69 326.68 165.13C326.68 165.35 326.63 165.52 326.54 165.64C326.45 165.75 326.32 165.81 326.15 165.81C325.98 165.81 325.86 165.75 325.76 165.64C325.67 165.52 325.63 165.35 325.63 165.13V165.12ZM325.92 165.12C325.92 165.41 326 165.55 326.15 165.55C326.24 165.55 326.3 165.51 326.34 165.45C326.38 165.38 326.39 165.27 326.39 165.13C326.39 164.99 326.37 164.88 326.34 164.81C326.3 164.74 326.24 164.71 326.16 164.71C326.08 164.71 326.01 164.74 325.97 164.81C325.94 164.87 325.92 164.98 325.92 165.12Z" fill="white"/>
<path d="M900.3 154.34V153.48H904.03V154.34H900.3ZM906.15 149.58C906.67 149.22 907.38 149.04 908.28 149.04C909.18 149.04 909.89 149.22 910.42 149.58C910.95 149.93 911.22 150.46 911.22 151.15C911.22 151.66 911.12 152.05 910.91 152.32C910.7 152.58 910.36 152.82 909.87 153.05C910.36 153.27 910.73 153.53 910.98 153.84C911.23 154.13 911.35 154.55 911.35 155.09C911.35 156.64 910.33 157.41 908.3 157.41C906.27 157.41 905.26 156.68 905.26 155.22C905.26 154.64 905.37 154.2 905.59 153.89C905.82 153.59 906.18 153.3 906.66 153.04C906.22 152.82 905.89 152.57 905.69 152.29C905.49 152 905.39 151.62 905.39 151.13C905.39 150.44 905.65 149.92 906.15 149.57V149.58ZM906.26 155.07C906.26 156.06 906.94 156.56 908.29 156.56C909.64 156.56 910.33 156.04 910.33 155C910.33 154.57 910.21 154.24 909.96 154.04C909.72 153.83 909.37 153.65 908.89 153.51H907.6C907.15 153.63 906.81 153.82 906.59 154.06C906.37 154.3 906.26 154.63 906.26 155.07ZM910.21 151.27C910.21 150.36 909.57 149.9 908.3 149.9C907.03 149.9 906.39 150.35 906.39 151.25C906.39 151.61 906.49 151.9 906.68 152.12C906.88 152.34 907.18 152.53 907.59 152.67H908.88C909.32 152.53 909.65 152.35 909.86 152.13C910.08 151.91 910.19 151.62 910.19 151.26L910.21 151.27ZM912.57 157.3V155.9H913.58V157.3H912.57ZM917.44 156.59C918.92 156.59 919.67 155.65 919.68 153.76C918.86 154.07 918.15 154.23 917.56 154.23C915.79 154.23 914.9 153.41 914.9 151.76C914.9 150.93 915.15 150.27 915.66 149.79C916.17 149.31 916.85 149.06 917.71 149.06C918.7 149.06 919.44 149.43 919.92 150.17C920.4 150.9 920.64 151.98 920.64 153.41C920.64 154.84 920.37 155.85 919.82 156.48C919.28 157.11 918.48 157.43 917.42 157.43C916.81 157.43 916.17 157.37 915.51 157.26L915.19 157.21L915.28 156.45C916.02 156.55 916.73 156.6 917.42 156.6L917.44 156.59ZM917.64 153.39C918.14 153.39 918.72 153.28 919.37 153.06L919.69 152.95C919.66 150.92 919.01 149.9 917.72 149.9C917.15 149.9 916.69 150.07 916.37 150.41C916.05 150.74 915.89 151.19 915.89 151.76C915.89 152.85 916.47 153.4 917.64 153.4V153.39ZM923.19 157.35L925.71 148.92L926.3 149.12L923.78 157.52L923.19 157.35ZM921.63 150.76C921.63 149.63 922.08 149.06 922.98 149.06C923.88 149.06 924.33 149.63 924.33 150.76C924.33 151.34 924.21 151.78 923.97 152.06C923.73 152.35 923.4 152.49 922.97 152.49C922.54 152.49 922.21 152.35 921.97 152.06C921.73 151.77 921.61 151.34 921.61 150.76H921.63ZM922.38 150.76C922.38 151.5 922.58 151.87 922.98 151.87C923.38 151.87 923.59 151.5 923.59 150.76C923.59 150.39 923.54 150.12 923.44 149.95C923.35 149.78 923.19 149.69 922.97 149.69C922.75 149.69 922.6 149.78 922.5 149.95C922.41 150.12 922.36 150.39 922.36 150.76H922.38ZM925.14 155.68C925.14 154.56 925.59 154 926.48 154C927.37 154 927.83 154.57 927.83 155.7C927.83 156.27 927.71 156.71 927.47 157C927.23 157.29 926.9 157.43 926.47 157.43C926.04 157.43 925.71 157.29 925.47 157C925.24 156.71 925.13 156.27 925.13 155.68H925.14ZM925.88 155.68C925.88 156.43 926.08 156.8 926.48 156.8C926.71 156.8 926.87 156.71 926.96 156.53C927.05 156.35 927.1 156.07 927.1 155.69C927.1 155.31 927.05 155.04 926.96 154.88C926.87 154.71 926.71 154.62 926.49 154.62C926.27 154.62 926.11 154.71 926.01 154.88C925.92 155.04 925.87 155.31 925.87 155.68H925.88Z" fill="white"/>
<path d="M240.66 132.15V131.82H242.11V132.15H240.66ZM244.71 130.14V130.47H243.17L243.08 131.5C243.33 131.37 243.57 131.3 243.82 131.3C244.49 131.3 244.82 131.61 244.82 132.23C244.82 132.59 244.73 132.86 244.54 133.05C244.35 133.24 244.09 133.33 243.76 133.33C243.49 133.33 243.2 133.29 242.87 133.23L242.71 133.2L242.75 132.91C243.12 132.98 243.42 133.02 243.67 133.02C243.92 133.02 244.11 132.96 244.24 132.83C244.37 132.7 244.43 132.52 244.43 132.29C244.43 132.06 244.37 131.89 244.25 131.8C244.13 131.7 243.97 131.65 243.76 131.65C243.64 131.65 243.52 131.67 243.4 131.7C243.28 131.73 243.18 131.76 243.11 131.8L243.01 131.85L242.76 131.8L242.85 130.16H244.69L244.71 130.14ZM245.42 133.29V132.75H245.81V133.29H245.42ZM248.48 133.29H246.46V132.98L247.38 132.01C247.54 131.84 247.66 131.72 247.73 131.63C247.8 131.54 247.87 131.44 247.93 131.32C247.99 131.2 248.02 131.08 248.02 130.97C248.02 130.77 247.96 130.62 247.85 130.54C247.74 130.46 247.57 130.42 247.33 130.42C247.12 130.42 246.89 130.45 246.64 130.5L246.52 130.52L246.49 130.21C246.79 130.12 247.1 130.08 247.43 130.08C247.76 130.08 247.99 130.15 248.16 130.29C248.33 130.42 248.41 130.64 248.41 130.93C248.41 131.15 248.36 131.35 248.26 131.51C248.16 131.68 247.99 131.88 247.75 132.11L246.91 132.96H248.49V133.28L248.48 133.29ZM249.55 133.31L250.53 130.04L250.76 130.12L249.78 133.38L249.55 133.31ZM248.94 130.75C248.94 130.31 249.11 130.09 249.46 130.09C249.81 130.09 249.99 130.31 249.99 130.75C249.99 130.98 249.94 131.15 249.85 131.26C249.76 131.37 249.63 131.43 249.46 131.43C249.29 131.43 249.17 131.37 249.07 131.26C248.98 131.15 248.93 130.98 248.93 130.75H248.94ZM249.23 130.75C249.23 131.04 249.31 131.18 249.46 131.18C249.61 131.18 249.7 131.04 249.7 130.75C249.7 130.61 249.68 130.5 249.64 130.43C249.61 130.36 249.54 130.33 249.46 130.33C249.38 130.33 249.32 130.36 249.28 130.43C249.24 130.5 249.23 130.6 249.23 130.75ZM250.3 132.66C250.3 132.22 250.47 132.01 250.82 132.01C251.17 132.01 251.35 132.23 251.35 132.67C251.35 132.89 251.3 133.06 251.21 133.18C251.12 133.29 250.99 133.35 250.82 133.35C250.65 133.35 250.53 133.29 250.43 133.18C250.34 133.07 250.3 132.89 250.3 132.67V132.66ZM250.59 132.66C250.59 132.95 250.67 133.09 250.82 133.09C250.91 133.09 250.97 133.05 251.01 132.99C251.04 132.92 251.06 132.81 251.06 132.66C251.06 132.51 251.04 132.41 251.01 132.34C250.97 132.27 250.91 132.24 250.83 132.24C250.75 132.24 250.68 132.27 250.64 132.34C250.6 132.4 250.59 132.51 250.59 132.65V132.66Z" fill="white"/>
<path d="M203 241.17V240.84H204.45V241.17H203ZM206.49 242.32V241.7H204.96V241.41L205.86 239.16H206.26L205.35 241.37H206.49V240.38H206.86V241.37H207.26V241.69H206.86V242.31H206.49V242.32ZM207.76 242.32V241.78H208.15V242.32H207.76ZM208.82 239.25C209.12 239.16 209.44 239.12 209.78 239.12C210.12 239.12 210.37 239.19 210.53 239.32C210.69 239.45 210.76 239.66 210.76 239.95C210.76 240.1 210.74 240.2 210.7 240.27C210.66 240.33 210.63 240.38 210.6 240.42C210.58 240.46 210.55 240.49 210.51 240.52C210.44 240.57 210.38 240.61 210.34 240.63L210.29 240.66C210.48 240.73 210.61 240.81 210.7 240.92C210.79 241.02 210.83 241.19 210.83 241.43C210.83 241.75 210.75 241.99 210.58 242.15C210.42 242.31 210.16 242.38 209.81 242.38C209.53 242.38 209.23 242.35 208.92 242.28L208.77 242.25L208.8 241.95C209.14 242.02 209.47 242.06 209.76 242.06C210.22 242.06 210.44 241.85 210.44 241.45C210.44 241.07 210.22 240.87 209.79 240.86H209.15V240.54H209.79C209.92 240.54 210.05 240.49 210.18 240.38C210.3 240.27 210.37 240.13 210.37 239.95C210.37 239.77 210.32 239.65 210.22 239.57C210.12 239.49 209.96 239.45 209.72 239.45C209.46 239.45 209.21 239.47 208.96 239.52L208.84 239.54L208.81 239.25H208.82ZM211.89 242.34L212.87 239.07L213.1 239.15L212.12 242.41L211.89 242.34ZM211.28 239.78C211.28 239.34 211.46 239.12 211.8 239.12C212.14 239.12 212.33 239.34 212.33 239.78C212.33 240.01 212.28 240.18 212.19 240.29C212.1 240.4 211.97 240.46 211.8 240.46C211.63 240.46 211.51 240.41 211.41 240.29C211.32 240.18 211.27 240.01 211.27 239.78H211.28ZM211.57 239.78C211.57 240.07 211.65 240.21 211.8 240.21C211.95 240.21 212.04 240.07 212.04 239.78C212.04 239.64 212.02 239.53 211.98 239.46C211.94 239.39 211.88 239.36 211.8 239.36C211.72 239.36 211.66 239.39 211.62 239.46C211.58 239.53 211.57 239.63 211.57 239.78ZM212.64 241.69C212.64 241.25 212.81 241.04 213.16 241.04C213.51 241.04 213.69 241.26 213.69 241.7C213.69 241.92 213.64 242.09 213.55 242.21C213.46 242.32 213.33 242.38 213.16 242.38C212.99 242.38 212.87 242.32 212.77 242.21C212.68 242.1 212.64 241.93 212.64 241.7V241.69ZM212.93 241.69C212.93 241.98 213.01 242.12 213.16 242.12C213.25 242.12 213.31 242.08 213.35 242.02C213.39 241.95 213.4 241.84 213.4 241.7C213.4 241.56 213.38 241.45 213.35 241.38C213.31 241.31 213.25 241.28 213.17 241.28C213.09 241.28 213.02 241.31 212.98 241.38C212.94 241.44 212.93 241.55 212.93 241.69Z" fill="white"/>
<path d="M544.07 71.0001V70.6701H545.52V71.0001H544.07ZM548.19 72.1501H546.17V71.8401L547.09 70.8701C547.25 70.7001 547.37 70.5801 547.44 70.4901C547.51 70.4001 547.58 70.3001 547.64 70.1801C547.7 70.0601 547.73 69.9401 547.73 69.8301C547.73 69.6301 547.67 69.4801 547.56 69.4001C547.45 69.3201 547.28 69.2801 547.04 69.2801C546.83 69.2801 546.6 69.3101 546.35 69.3601L546.23 69.3801L546.2 69.0701C546.5 68.9801 546.81 68.9401 547.14 68.9401C547.47 68.9401 547.7 69.0101 547.87 69.1501C548.04 69.2801 548.12 69.5001 548.12 69.7901C548.12 70.0101 548.07 70.2101 547.97 70.3701C547.87 70.5401 547.7 70.7301 547.46 70.9701L546.62 71.8301H548.2V72.1501H548.19ZM548.84 72.1501V71.6101H549.23V72.1501H548.84ZM549.9 69.0801C550.2 68.9901 550.52 68.9501 550.86 68.9501C551.2 68.9501 551.45 69.0201 551.61 69.1501C551.76 69.2801 551.84 69.4901 551.84 69.7801C551.84 69.9301 551.82 70.0301 551.78 70.1001C551.74 70.1601 551.71 70.2101 551.69 70.2501C551.67 70.2901 551.64 70.3201 551.6 70.3501C551.53 70.4001 551.47 70.4401 551.43 70.4601L551.38 70.4901C551.56 70.5601 551.7 70.6401 551.79 70.7501C551.88 70.8501 551.92 71.0201 551.92 71.2601C551.92 71.5801 551.84 71.8201 551.67 71.9801C551.51 72.1401 551.25 72.2101 550.9 72.2101C550.62 72.2101 550.32 72.1801 550.01 72.1101L549.86 72.0801L549.89 71.7801C550.23 71.8501 550.56 71.8901 550.86 71.8901C551.32 71.8901 551.54 71.6801 551.54 71.2801C551.54 70.9001 551.32 70.7001 550.89 70.6901H550.25V70.3701H550.89C551.02 70.3701 551.15 70.3201 551.28 70.2101C551.4 70.1001 551.47 69.9601 551.47 69.7801C551.47 69.6001 551.42 69.4801 551.32 69.4001C551.22 69.3201 551.06 69.2801 550.82 69.2801C550.56 69.2801 550.31 69.3001 550.06 69.3501L549.94 69.3701L549.91 69.0801H549.9ZM552.97 72.1701L553.95 68.9001L554.18 68.9801L553.2 72.2401L552.97 72.1701ZM552.36 69.6101C552.36 69.1701 552.53 68.9501 552.89 68.9501C553.25 68.9501 553.42 69.1701 553.42 69.6101C553.42 69.8401 553.37 70.0101 553.28 70.1201C553.19 70.2301 553.06 70.2901 552.89 70.2901C552.72 70.2901 552.6 70.2301 552.5 70.1201C552.41 70.0101 552.36 69.8401 552.36 69.6101ZM552.65 69.6101C552.65 69.9001 552.73 70.0401 552.88 70.0401C553.03 70.0401 553.12 69.9001 553.12 69.6101C553.12 69.4701 553.1 69.3601 553.06 69.2901C553.02 69.2201 552.96 69.1901 552.88 69.1901C552.8 69.1901 552.74 69.2201 552.7 69.2901C552.67 69.3601 552.65 69.4601 552.65 69.6101ZM553.72 71.5201C553.72 71.0801 553.89 70.8701 554.24 70.8701C554.59 70.8701 554.77 71.0901 554.77 71.5301C554.77 71.7501 554.72 71.9201 554.63 72.0401C554.54 72.1501 554.41 72.2101 554.24 72.2101C554.07 72.2101 553.95 72.1501 553.85 72.0401C553.76 71.9301 553.72 71.7501 553.72 71.5301V71.5201ZM554.01 71.5201C554.01 71.8101 554.09 71.9601 554.24 71.9601C554.33 71.9601 554.39 71.9201 554.43 71.8501C554.47 71.7801 554.48 71.6701 554.48 71.5201C554.48 71.3701 554.46 71.2701 554.43 71.2001C554.4 71.1301 554.33 71.1001 554.25 71.1001C554.17 71.1001 554.1 71.1301 554.06 71.2001C554.02 71.2601 554.01 71.3701 554.01 71.5101V71.5201Z" fill="white"/>
<g opacity="0.5">
<path d="M1359.72 114.93V114.1H1362.01V111.73H1362.86V114.1H1365.18V114.93H1362.86V117.32H1362.01V114.93H1359.72ZM1370.57 109.55V117.56H1369.63V110.59L1367.57 111.95L1367.14 111.25L1369.69 109.55H1370.57ZM1378.6 117.56H1373.48V116.77L1375.82 114.31C1376.22 113.89 1376.52 113.57 1376.71 113.35C1376.89 113.13 1377.06 112.87 1377.2 112.57C1377.36 112.27 1377.43 111.97 1377.43 111.67C1377.43 111.15 1377.29 110.79 1377.01 110.58C1376.73 110.37 1376.28 110.26 1375.69 110.26C1375.16 110.26 1374.57 110.33 1373.93 110.47L1373.61 110.53L1373.54 109.75C1374.31 109.53 1375.1 109.42 1375.92 109.42C1376.74 109.42 1377.35 109.59 1377.76 109.94C1378.18 110.28 1378.39 110.82 1378.39 111.57C1378.39 112.14 1378.27 112.63 1378.02 113.05C1377.77 113.47 1377.33 113.98 1376.72 114.57L1374.58 116.74H1378.6V117.55V117.56ZM1381.31 117.61L1383.8 109.29L1384.38 109.48L1381.9 117.77L1381.31 117.6V117.61ZM1379.77 111.1C1379.77 109.98 1380.22 109.42 1381.11 109.42C1382 109.42 1382.44 109.98 1382.44 111.1C1382.44 111.67 1382.32 112.1 1382.09 112.39C1381.86 112.67 1381.53 112.82 1381.11 112.82C1380.69 112.82 1380.36 112.68 1380.12 112.39C1379.89 112.11 1379.77 111.68 1379.77 111.1ZM1380.51 111.1C1380.51 111.83 1380.71 112.19 1381.11 112.19C1381.51 112.19 1381.71 111.83 1381.71 111.1C1381.71 110.74 1381.67 110.47 1381.57 110.3C1381.48 110.13 1381.33 110.04 1381.11 110.04C1380.89 110.04 1380.74 110.12 1380.65 110.3C1380.56 110.47 1380.51 110.74 1380.51 111.1ZM1383.23 115.96C1383.23 114.85 1383.67 114.3 1384.55 114.3C1385.43 114.3 1385.89 114.86 1385.89 115.98C1385.89 116.55 1385.77 116.98 1385.54 117.27C1385.3 117.55 1384.98 117.69 1384.55 117.69C1384.12 117.69 1383.81 117.55 1383.57 117.27C1383.34 116.98 1383.23 116.54 1383.23 115.97V115.96ZM1383.96 115.96C1383.96 116.7 1384.16 117.06 1384.55 117.06C1384.78 117.06 1384.94 116.97 1385.03 116.79C1385.12 116.61 1385.16 116.34 1385.16 115.97C1385.16 115.6 1385.12 115.33 1385.03 115.17C1384.94 115 1384.79 114.92 1384.57 114.92C1384.35 114.92 1384.19 115 1384.09 115.17C1384 115.33 1383.96 115.6 1383.96 115.96Z" fill="#75B798"/>
<path d="M714.39 180.47V179.69H716.55V177.46H717.35V179.69H719.53V180.47H717.35V182.72H716.55V180.47H714.39ZM721.36 175.78C721.84 175.44 722.5 175.28 723.34 175.28C724.18 175.28 724.84 175.45 725.33 175.78C725.83 176.11 726.07 176.6 726.07 177.24C726.07 177.71 725.98 178.07 725.79 178.33C725.6 178.57 725.27 178.8 724.82 179C725.28 179.21 725.62 179.45 725.85 179.73C726.08 180 726.19 180.39 726.19 180.9C726.19 182.34 725.24 183.06 723.36 183.06C721.48 183.06 720.54 182.38 720.54 181.03C720.54 180.49 720.64 180.08 720.85 179.8C721.06 179.52 721.39 179.26 721.84 179.01C721.43 178.8 721.13 178.57 720.94 178.31C720.76 178.04 720.67 177.69 720.67 177.24C720.67 176.6 720.91 176.12 721.38 175.79L721.36 175.78ZM721.46 180.88C721.46 181.8 722.09 182.26 723.35 182.26C724.61 182.26 725.25 181.78 725.25 180.81C725.25 180.41 725.14 180.11 724.91 179.92C724.69 179.72 724.36 179.56 723.92 179.43H722.72C722.3 179.55 721.99 179.72 721.78 179.94C721.57 180.16 721.47 180.47 721.47 180.88H721.46ZM725.13 177.35C725.13 176.5 724.54 176.08 723.36 176.08C722.18 176.08 721.59 176.5 721.59 177.34C721.59 177.68 721.68 177.95 721.86 178.15C722.04 178.35 722.33 178.53 722.71 178.66H723.91C724.32 178.53 724.63 178.36 724.82 178.16C725.03 177.95 725.13 177.68 725.13 177.35ZM727.32 182.95V181.65H728.26V182.95H727.32ZM731.84 182.29C733.22 182.29 733.91 181.41 733.92 179.66C733.16 179.95 732.5 180.09 731.95 180.09C730.3 180.09 729.48 179.32 729.48 177.79C729.48 177.02 729.72 176.41 730.19 175.96C730.66 175.51 731.3 175.29 732.1 175.29C733.02 175.29 733.71 175.63 734.16 176.32C734.61 177 734.84 178 734.84 179.33C734.84 180.66 734.58 181.6 734.07 182.19C733.57 182.78 732.82 183.07 731.84 183.07C731.27 183.07 730.68 183.02 730.07 182.91L729.77 182.86L729.85 182.15C730.54 182.24 731.2 182.29 731.84 182.29ZM732.02 179.32C732.48 179.32 733.02 179.22 733.63 179.01L733.93 178.91C733.91 177.02 733.3 176.08 732.1 176.08C731.57 176.08 731.15 176.24 730.84 176.55C730.54 176.85 730.39 177.27 730.39 177.81C730.39 178.82 730.93 179.33 732.01 179.33L732.02 179.32ZM737.18 183L739.52 175.17L740.07 175.35L737.73 183.16L737.18 183ZM735.73 176.87C735.73 175.82 736.15 175.29 736.99 175.29C737.83 175.29 738.25 175.81 738.25 176.87C738.25 177.41 738.14 177.81 737.92 178.08C737.7 178.35 737.39 178.48 736.99 178.48C736.59 178.48 736.28 178.35 736.06 178.08C735.84 177.81 735.73 177.41 735.73 176.87ZM736.43 176.87C736.43 177.56 736.62 177.9 736.99 177.9C737.36 177.9 737.56 177.56 737.56 176.87C737.56 176.53 737.51 176.28 737.42 176.12C737.34 175.96 737.19 175.88 736.99 175.88C736.79 175.88 736.65 175.96 736.56 176.12C736.48 176.28 736.43 176.53 736.43 176.87ZM738.99 181.44C738.99 180.4 739.41 179.87 740.24 179.87C741.07 179.87 741.5 180.4 741.5 181.45C741.5 181.98 741.39 182.39 741.17 182.66C740.95 182.93 740.64 183.06 740.24 183.06C739.84 183.06 739.53 182.93 739.31 182.66C739.1 182.39 738.99 181.98 738.99 181.44ZM739.68 181.44C739.68 182.13 739.87 182.48 740.24 182.48C740.45 182.48 740.6 182.4 740.69 182.23C740.77 182.06 740.82 181.8 740.82 181.45C740.82 181.1 740.78 180.85 740.69 180.7C740.61 180.54 740.46 180.46 740.26 180.46C740.06 180.46 739.91 180.54 739.81 180.7C739.73 180.85 739.68 181.1 739.68 181.44Z" fill="#75B798"/>
<path d="M1100.16 130.78V129.95H1102.46V127.58H1103.31V129.95H1105.63V130.78H1103.31V133.17H1102.46V130.78H1100.16ZM1107.23 126.25V125.4H1112.2V126.63L1109.12 133.54L1108.23 133.26L1111.26 126.57V126.25H1107.23ZM1113.9 133.41V132.03H1114.89V133.41H1113.9ZM1120.43 125.4V133.41H1119.49V126.44L1117.43 127.8L1117 127.1L1119.55 125.4H1120.43ZM1124.38 133.46L1126.87 125.14L1127.45 125.33L1124.96 133.62L1124.38 133.45V133.46ZM1122.84 126.95C1122.84 125.83 1123.28 125.27 1124.17 125.27C1125.06 125.27 1125.51 125.83 1125.51 126.95C1125.51 127.52 1125.39 127.95 1125.16 128.24C1124.92 128.52 1124.59 128.67 1124.17 128.67C1123.75 128.67 1123.42 128.53 1123.19 128.24C1122.95 127.96 1122.84 127.53 1122.84 126.95ZM1123.58 126.95C1123.58 127.68 1123.78 128.04 1124.17 128.04C1124.58 128.04 1124.78 127.68 1124.78 126.95C1124.78 126.59 1124.73 126.32 1124.63 126.15C1124.54 125.98 1124.39 125.9 1124.17 125.9C1123.95 125.9 1123.81 125.98 1123.71 126.15C1123.62 126.32 1123.58 126.59 1123.58 126.95ZM1126.3 131.81C1126.3 130.7 1126.74 130.15 1127.62 130.15C1128.5 130.15 1128.96 130.71 1128.96 131.83C1128.96 132.4 1128.84 132.83 1128.6 133.12C1128.37 133.4 1128.04 133.54 1127.62 133.54C1127.2 133.54 1126.87 133.4 1126.64 133.12C1126.41 132.83 1126.3 132.39 1126.3 131.82V131.81ZM1127.02 131.81C1127.02 132.55 1127.22 132.91 1127.62 132.91C1127.85 132.91 1128 132.82 1128.09 132.64C1128.18 132.46 1128.23 132.19 1128.23 131.82C1128.23 131.45 1128.18 131.18 1128.09 131.02C1128 130.85 1127.85 130.77 1127.63 130.77C1127.41 130.77 1127.26 130.85 1127.16 131.02C1127.07 131.18 1127.02 131.45 1127.02 131.81Z" fill="#75B798"/>
<path d="M437.56 125.29V124.51H439.72V122.28H440.52V124.51H442.7V125.29H440.52V127.54H439.72V125.29H437.56ZM448.78 120.23V121.03H445.11L444.9 123.49C445.49 123.18 446.08 123.02 446.67 123.02C448.27 123.02 449.07 123.76 449.07 125.25C449.07 126.1 448.85 126.75 448.41 127.2C447.97 127.65 447.35 127.87 446.55 127.87C445.91 127.87 445.2 127.79 444.42 127.62L444.04 127.54L444.14 126.84C445.02 127.01 445.75 127.09 446.35 127.09C446.95 127.09 447.4 126.94 447.71 126.63C448.01 126.32 448.17 125.88 448.17 125.33C448.17 124.78 448.03 124.38 447.75 124.15C447.48 123.91 447.08 123.8 446.57 123.8C446.3 123.8 446.01 123.84 445.7 123.91C445.4 123.99 445.17 124.06 445.01 124.14L444.77 124.25L444.16 124.14L444.37 120.22H448.77L448.78 120.23ZM450.49 127.77V126.47H451.43V127.77H450.49ZM457.8 127.77H452.98V127.03L455.19 124.71C455.57 124.31 455.85 124.01 456.02 123.81C456.2 123.6 456.35 123.36 456.49 123.08C456.64 122.8 456.71 122.52 456.71 122.23C456.71 121.74 456.58 121.4 456.31 121.2C456.04 121 455.63 120.9 455.06 120.9C454.57 120.9 454.01 120.96 453.4 121.09L453.1 121.15L453.03 120.42C453.75 120.21 454.5 120.11 455.27 120.11C456.04 120.11 456.62 120.27 457.01 120.6C457.41 120.92 457.6 121.43 457.6 122.13C457.6 122.66 457.48 123.13 457.25 123.52C457.01 123.92 456.61 124.39 456.03 124.95L454.02 127H457.8V127.77ZM460.35 127.82L462.69 119.99L463.24 120.17L460.9 127.98L460.35 127.82ZM458.9 121.69C458.9 120.64 459.32 120.11 460.16 120.11C461 120.11 461.42 120.64 461.42 121.69C461.42 122.23 461.31 122.63 461.09 122.9C460.87 123.17 460.56 123.3 460.16 123.3C459.76 123.3 459.46 123.17 459.23 122.9C459.01 122.63 458.9 122.23 458.9 121.69ZM459.6 121.69C459.6 122.38 459.79 122.72 460.16 122.72C460.53 122.72 460.73 122.38 460.73 121.69C460.73 121.35 460.68 121.1 460.59 120.94C460.51 120.78 460.36 120.7 460.16 120.7C459.96 120.7 459.82 120.78 459.73 120.94C459.65 121.1 459.61 121.35 459.61 121.69H459.6ZM462.16 126.26C462.16 125.22 462.58 124.69 463.41 124.69C464.24 124.69 464.67 125.22 464.67 126.27C464.67 126.8 464.56 127.21 464.34 127.48C464.12 127.75 463.81 127.88 463.41 127.88C463.01 127.88 462.71 127.75 462.48 127.48C462.27 127.21 462.16 126.8 462.16 126.26ZM462.85 126.26C462.85 126.95 463.04 127.3 463.41 127.3C463.62 127.3 463.77 127.22 463.86 127.05C463.94 126.88 463.98 126.62 463.98 126.27C463.98 125.92 463.94 125.67 463.86 125.51C463.78 125.35 463.63 125.27 463.43 125.27C463.23 125.27 463.08 125.35 462.98 125.51C462.9 125.66 462.86 125.91 462.86 126.25L462.85 126.26Z" fill="#75B798"/>
</g>
<g opacity="0.5">
<path d="M1204.04 57.9701V57.1201H1207.72V57.9701H1204.04ZM1209.42 53.0801C1210.18 52.8501 1210.99 52.7401 1211.86 52.7401C1212.73 52.7401 1213.36 52.9101 1213.75 53.2401C1214.14 53.5701 1214.33 54.1001 1214.33 54.8301C1214.33 55.2001 1214.28 55.4701 1214.18 55.6401C1214.08 55.8001 1214 55.9301 1213.93 56.0201C1213.88 56.1101 1213.8 56.1901 1213.7 56.2701C1213.52 56.4101 1213.38 56.5001 1213.28 56.5601L1213.14 56.6401C1213.61 56.8101 1213.96 57.0301 1214.19 57.3001C1214.41 57.5601 1214.53 57.9901 1214.53 58.5901C1214.53 59.4101 1214.32 60.0101 1213.9 60.4101C1213.48 60.8101 1212.83 61.0001 1211.93 61.0001C1211.22 61.0001 1210.46 60.9201 1209.67 60.7601L1209.3 60.6801L1209.38 59.9201C1210.25 60.1001 1211.07 60.1901 1211.83 60.1901C1212.99 60.1901 1213.57 59.6601 1213.57 58.6401C1213.57 57.6801 1213.02 57.1801 1211.92 57.1301H1210.3V56.3301H1211.92C1212.26 56.3301 1212.58 56.2001 1212.9 55.9301C1213.22 55.6501 1213.37 55.2901 1213.37 54.8501C1213.37 54.4101 1213.25 54.0901 1213 53.8901C1212.75 53.6901 1212.33 53.5901 1211.74 53.5901C1211.09 53.5901 1210.45 53.6501 1209.82 53.7701L1209.5 53.8301L1209.42 53.0901V53.0801ZM1216.15 60.8901V59.5101H1217.14V60.8901H1216.15ZM1220.95 60.1901C1222.42 60.1901 1223.16 59.2601 1223.16 57.4001C1222.35 57.7101 1221.66 57.8601 1221.08 57.8601C1219.33 57.8601 1218.45 57.0501 1218.45 55.4201C1218.45 54.6001 1218.7 53.9601 1219.21 53.4801C1219.71 53.0001 1220.38 52.7601 1221.23 52.7601C1222.21 52.7601 1222.94 53.1201 1223.42 53.8501C1223.9 54.5701 1224.13 55.6301 1224.13 57.0401C1224.13 58.4501 1223.86 59.4501 1223.32 60.0701C1222.79 60.6901 1222 61.0001 1220.95 61.0001C1220.35 61.0001 1219.72 60.9401 1219.07 60.8301L1218.76 60.7801L1218.84 60.0301C1219.57 60.1301 1220.27 60.1801 1220.95 60.1801V60.1901ZM1221.15 57.0301C1221.64 57.0301 1222.21 56.9201 1222.86 56.7001L1223.18 56.5901C1223.15 54.5801 1222.5 53.5801 1221.23 53.5801C1220.67 53.5801 1220.22 53.7501 1219.9 54.0801C1219.58 54.4001 1219.42 54.8501 1219.42 55.4201C1219.42 56.5001 1220 57.0301 1221.15 57.0301ZM1226.63 60.9401L1229.12 52.6201L1229.7 52.8101L1227.21 61.1001L1226.63 60.9301V60.9401ZM1225.09 54.4301C1225.09 53.3101 1225.53 52.7501 1226.42 52.7501C1227.31 52.7501 1227.76 53.3101 1227.76 54.4301C1227.76 55.0001 1227.64 55.4301 1227.41 55.7201C1227.17 56.0001 1226.84 56.1401 1226.42 56.1401C1226 56.1401 1225.68 56.0001 1225.44 55.7201C1225.21 55.4401 1225.09 55.0101 1225.09 54.4301ZM1225.83 54.4301C1225.83 55.1601 1226.03 55.5201 1226.42 55.5201C1226.83 55.5201 1227.03 55.1601 1227.03 54.4301C1227.03 54.0701 1226.98 53.8001 1226.89 53.6301C1226.8 53.4601 1226.64 53.3801 1226.42 53.3801C1226.2 53.3801 1226.06 53.4601 1225.96 53.6301C1225.87 53.8001 1225.83 54.0701 1225.83 54.4301ZM1228.55 59.2901C1228.55 58.1801 1228.99 57.6301 1229.87 57.6301C1230.75 57.6301 1231.21 58.1901 1231.21 59.3101C1231.21 59.8801 1231.09 60.3101 1230.86 60.6001C1230.62 60.8801 1230.29 61.0201 1229.87 61.0201C1229.45 61.0201 1229.12 60.8801 1228.89 60.6001C1228.66 60.3101 1228.55 59.8801 1228.55 59.3001V59.2901ZM1229.28 59.2901C1229.28 60.0301 1229.48 60.3901 1229.87 60.3901C1230.1 60.3901 1230.26 60.3001 1230.35 60.1201C1230.43 59.9401 1230.48 59.6701 1230.48 59.2901C1230.48 58.9101 1230.43 58.6501 1230.35 58.4901C1230.26 58.3201 1230.1 58.2401 1229.88 58.2401C1229.66 58.2401 1229.51 58.3201 1229.41 58.4901C1229.32 58.6501 1229.28 58.9101 1229.28 59.2801V59.2901Z" fill="white"/>
<path d="M1108.02 267.24V266.9H1109.47V267.24H1108.02ZM1111.65 265.23V268.38H1111.28V265.64L1110.47 266.18L1110.3 265.9L1111.3 265.23H1111.65ZM1114.32 265.23V268.38H1113.95V265.64L1113.14 266.18L1112.97 265.9L1113.98 265.23H1114.32ZM1115.88 268.4L1116.86 265.13L1117.09 265.21L1116.11 268.47L1115.88 268.4ZM1115.27 265.84C1115.27 265.4 1115.45 265.18 1115.8 265.18C1116.15 265.18 1116.32 265.4 1116.32 265.84C1116.32 266.07 1116.28 266.24 1116.18 266.35C1116.09 266.46 1115.96 266.52 1115.8 266.52C1115.63 266.52 1115.5 266.46 1115.41 266.35C1115.32 266.24 1115.27 266.07 1115.27 265.84ZM1115.56 265.84C1115.56 266.13 1115.64 266.27 1115.8 266.27C1115.96 266.27 1116.04 266.13 1116.04 265.84C1116.04 265.7 1116.02 265.59 1115.98 265.53C1115.94 265.46 1115.88 265.43 1115.8 265.43C1115.71 265.43 1115.65 265.46 1115.62 265.53C1115.58 265.6 1115.56 265.7 1115.56 265.84ZM1116.63 267.75C1116.63 267.31 1116.81 267.1 1117.16 267.1C1117.51 267.1 1117.68 267.32 1117.68 267.76C1117.68 267.98 1117.63 268.15 1117.54 268.27C1117.45 268.38 1117.32 268.44 1117.16 268.44C1116.99 268.44 1116.86 268.38 1116.77 268.27C1116.68 268.16 1116.63 267.98 1116.63 267.76V267.75ZM1116.92 267.75C1116.92 268.04 1117 268.18 1117.16 268.18C1117.24 268.18 1117.31 268.14 1117.34 268.07C1117.38 268 1117.39 267.89 1117.39 267.75C1117.39 267.61 1117.38 267.5 1117.34 267.43C1117.31 267.36 1117.25 267.33 1117.16 267.33C1117.07 267.33 1117.01 267.36 1116.97 267.43C1116.94 267.49 1116.92 267.6 1116.92 267.74V267.75Z" fill="white"/>
<path d="M563.34 229.2V228.34H567.07V229.2H563.34ZM569.19 224.44C569.71 224.08 570.42 223.9 571.32 223.9C572.22 223.9 572.94 224.08 573.46 224.44C573.99 224.79 574.26 225.32 574.26 226.01C574.26 226.52 574.16 226.91 573.95 227.18C573.74 227.44 573.4 227.68 572.91 227.91C573.4 228.13 573.77 228.39 574.02 228.7C574.27 229 574.39 229.41 574.39 229.96C574.39 231.51 573.37 232.28 571.34 232.28C569.31 232.28 568.3 231.55 568.3 230.09C568.3 229.51 568.41 229.06 568.63 228.76C568.86 228.46 569.22 228.17 569.7 227.91C569.26 227.69 568.93 227.44 568.73 227.16C568.53 226.87 568.44 226.49 568.44 226C568.44 225.31 568.69 224.79 569.2 224.44H569.19ZM569.3 229.93C569.3 230.92 569.98 231.42 571.33 231.42C572.68 231.42 573.37 230.9 573.37 229.86C573.37 229.43 573.25 229.1 573 228.9C572.76 228.69 572.41 228.51 571.93 228.37H570.64C570.19 228.49 569.85 228.68 569.63 228.92C569.41 229.16 569.3 229.49 569.3 229.93ZM573.25 226.13C573.25 225.22 572.61 224.76 571.34 224.76C570.07 224.76 569.43 225.21 569.43 226.11C569.43 226.47 569.53 226.76 569.72 226.98C569.92 227.2 570.22 227.39 570.63 227.53H571.92C572.36 227.39 572.69 227.21 572.9 226.99C573.12 226.77 573.23 226.48 573.23 226.12L573.25 226.13ZM575.61 232.16V230.76H576.62V232.16H575.61ZM580.48 231.45C581.96 231.45 582.71 230.51 582.72 228.62C581.9 228.93 581.2 229.09 580.6 229.09C578.83 229.09 577.94 228.27 577.94 226.62C577.94 225.79 578.2 225.14 578.7 224.65C579.21 224.17 579.89 223.93 580.75 223.93C581.74 223.93 582.48 224.3 582.96 225.04C583.44 225.77 583.69 226.85 583.69 228.28C583.69 229.71 583.41 230.72 582.87 231.35C582.33 231.98 581.53 232.3 580.47 232.3C579.86 232.3 579.22 232.24 578.56 232.13L578.24 232.08L578.33 231.32C579.07 231.42 579.78 231.47 580.47 231.47L580.48 231.45ZM580.68 228.25C581.18 228.25 581.76 228.14 582.41 227.92L582.73 227.81C582.71 225.78 582.05 224.76 580.76 224.76C580.19 224.76 579.73 224.93 579.41 225.26C579.09 225.59 578.93 226.04 578.93 226.61C578.93 227.7 579.51 228.25 580.68 228.25ZM586.23 232.21L588.75 223.78L589.34 223.98L586.82 232.38L586.23 232.21ZM584.67 225.62C584.67 224.49 585.12 223.92 586.02 223.92C586.92 223.92 587.37 224.49 587.37 225.62C587.37 226.2 587.25 226.64 587.01 226.92C586.77 227.21 586.44 227.35 586.01 227.35C585.58 227.35 585.25 227.21 585.01 226.92C584.77 226.63 584.65 226.2 584.65 225.62H584.67ZM585.42 225.62C585.42 226.36 585.62 226.73 586.02 226.73C586.42 226.73 586.64 226.36 586.64 225.62C586.64 225.25 586.59 224.98 586.49 224.81C586.4 224.64 586.24 224.55 586.02 224.55C585.8 224.55 585.65 224.64 585.55 224.81C585.46 224.98 585.41 225.25 585.41 225.62H585.42ZM588.18 230.54C588.18 229.42 588.63 228.86 589.52 228.86C590.41 228.86 590.87 229.43 590.87 230.56C590.87 231.13 590.75 231.57 590.51 231.86C590.27 232.15 589.94 232.29 589.51 232.29C589.08 232.29 588.75 232.15 588.51 231.86C588.28 231.57 588.17 231.13 588.17 230.54H588.18ZM588.92 230.54C588.92 231.29 589.12 231.66 589.52 231.66C589.75 231.66 589.91 231.57 590 231.39C590.09 231.21 590.14 230.93 590.14 230.55C590.14 230.17 590.1 229.9 590 229.74C589.91 229.57 589.75 229.48 589.53 229.48C589.31 229.48 589.15 229.57 589.05 229.74C588.96 229.9 588.92 230.17 588.92 230.54Z" fill="white"/>
<path d="M35.58 217.27V216.39H39.36V217.27H35.58ZM41.17 212.9V212.03H46.29V213.29L43.12 220.4L42.21 220.11L45.32 213.23V212.91H41.17V212.9ZM48.03 220.27V218.85H49.05V220.27H48.03ZM54.75 212.03V220.27H53.79V213.1L51.67 214.5L51.23 213.77L53.85 212.02H54.75V212.03ZM58.82 220.32L61.38 211.76L61.98 211.96L59.42 220.49L58.82 220.31V220.32ZM57.23 213.63C57.23 212.48 57.69 211.91 58.6 211.91C59.51 211.91 59.97 212.48 59.97 213.63C59.97 214.22 59.85 214.66 59.61 214.95C59.37 215.24 59.03 215.39 58.6 215.39C58.17 215.39 57.83 215.24 57.59 214.95C57.35 214.66 57.23 214.22 57.23 213.63ZM57.99 213.63C57.99 214.38 58.19 214.75 58.6 214.75C59.01 214.75 59.22 214.37 59.22 213.63C59.22 213.26 59.17 212.98 59.07 212.81C58.98 212.63 58.82 212.55 58.6 212.55C58.38 212.55 58.23 212.64 58.13 212.81C58.04 212.99 57.99 213.26 57.99 213.63ZM60.79 218.63C60.79 217.49 61.24 216.92 62.15 216.92C63.06 216.92 63.52 217.49 63.52 218.64C63.52 219.22 63.4 219.66 63.16 219.96C62.92 220.25 62.58 220.4 62.15 220.4C61.72 220.4 61.38 220.25 61.14 219.96C60.91 219.66 60.79 219.22 60.79 218.62V218.63ZM61.54 218.63C61.54 219.39 61.74 219.77 62.15 219.77C62.38 219.77 62.55 219.68 62.64 219.5C62.73 219.32 62.78 219.03 62.78 218.65C62.78 218.27 62.73 217.99 62.64 217.83C62.55 217.65 62.39 217.57 62.17 217.57C61.95 217.57 61.78 217.66 61.68 217.83C61.59 218 61.54 218.27 61.54 218.64V218.63Z" fill="white"/>
</g>
</g>
<path d="M0.73999 273.37C88.4 273.37 132.49 343.02 240.66 311.76C343.1 282.14 361.62 112.74 480.58 97.31C584.65 83.8 601.27 160.94 720.5 147.77C836.43 134.97 840.46 -52.8 960.42 -52.8C1080.38 -52.8 1081.8 94.86 1200.34 113.22C1305.27 129.48 1320.3 66.2 1440.26 66.2" stroke="url(#paint0_linear_3297_58762)" stroke-width="0.75" stroke-miterlimit="10"/>
<path d="M1440.26 33.3701C1320.3 33.3701 1321.74 142.29 1200.34 147.57C1080.5 152.77 1072.38 235.86 960.42 222.67C841.28 208.62 836.39 27.8601 720.5 22.8101C600.66 17.6101 600.54 157.55 480.58 157.55C360.62 157.55 360.62 262.73 240.66 262.73C120.7 262.73 120.72 157.55 0.73999 157.55" stroke="url(#paint1_linear_3297_58762)" stroke-width="0.75" stroke-miterlimit="10"/>
<path d="M493.77 96.4C493.77 99.09 491.58 101.28 488.89 101.28C486.2 101.28 484.01 99.09 484.01 96.4C484.01 93.71 486.2 91.52 488.89 91.52C491.58 91.52 493.77 93.71 493.77 96.4Z" fill="#031633" stroke="url(#paint2_linear_3297_58762)" stroke-width="0.75" stroke-miterlimit="10"/>
<path d="M1256.94 137.26C1256.94 134.57 1254.75 132.38 1252.07 132.38C1249.39 132.38 1247.19 134.57 1247.19 137.26C1247.19 139.95 1249.38 142.14 1252.07 142.14C1254.76 142.14 1256.94 139.95 1256.94 137.26Z" fill="#031633" stroke="url(#paint3_linear_3297_58762)" stroke-width="0.75" stroke-miterlimit="10"/>
<path d="M336.24 234.65C336.24 231.96 334.05 229.77 331.36 229.77C328.67 229.77 326.48 231.96 326.48 234.65C326.48 237.34 328.67 239.53 331.36 239.53C334.05 239.53 336.24 237.34 336.24 234.65Z" fill="#031633" stroke="url(#paint4_linear_3297_58762)" stroke-width="0.75" stroke-miterlimit="10"/>
</g>
</g>
</g>
</g>
<defs>
<linearGradient id="paint0_linear_3297_58762" x1="126.19" y1="-56.5" x2="1314.81" y2="396.06" gradientUnits="userSpaceOnUse">
<stop stop-color="#004DF4"/>
<stop offset="1" stop-color="#26DDFF"/>
</linearGradient>
<linearGradient id="paint1_linear_3297_58762" x1="657.99" y1="-78.7099" x2="794.82" y2="302.53" gradientUnits="userSpaceOnUse">
<stop stop-color="#237D14"/>
<stop offset="0.24" stop-color="#3F921F"/>
<stop offset="0.77" stop-color="#89C73B"/>
<stop offset="1" stop-color="#ABE048"/>
</linearGradient>
<linearGradient id="paint2_linear_3297_58762" x1="483.29" y1="96.4" x2="494.48" y2="96.4" gradientUnits="userSpaceOnUse">
<stop stop-color="#004DF4"/>
<stop offset="1" stop-color="#26DDFF"/>
</linearGradient>
<linearGradient id="paint3_linear_3297_58762" x1="1246.48" y1="137.27" x2="1257.67" y2="137.27" gradientUnits="userSpaceOnUse">
<stop stop-color="#146C43"/>
<stop offset="0.24" stop-color="#479F76"/>
<stop offset="0.77" stop-color="#75B798"/>
<stop offset="1" stop-color="#D1E7DD"/>
</linearGradient>
<linearGradient id="paint4_linear_3297_58762" x1="325.78" y1="234.65" x2="336.97" y2="234.65" gradientUnits="userSpaceOnUse">
<stop stop-color="#146C43"/>
<stop offset="0.24" stop-color="#479F76"/>
<stop offset="0.77" stop-color="#75B798"/>
<stop offset="1" stop-color="#D1E7DD"/>
</linearGradient>
<clipPath id="clip0_3297_58762">
<rect width="1440" height="270" fill="white"/>
</clipPath>
</defs>
</svg>
