<svg width="16" height="16" viewBox="0 0 16 16" fill="none" xmlns="http://www.w3.org/2000/svg">
<path d="M14.4571 10.7215C14.0115 11.7754 13.3145 12.7041 12.427 13.4264C11.5395 14.1487 10.4886 14.6426 9.36612 14.8649C8.24367 15.0872 7.08384 15.0312 5.98804 14.7017C4.89224 14.3722 3.89384 13.7793 3.08012 12.9748C2.2664 12.1704 1.66214 11.1788 1.32016 10.0868C0.978185 8.99487 0.908908 7.83576 1.11839 6.71083C1.32787 5.58591 1.80972 4.52943 2.52183 3.63376C3.23394 2.73808 4.15461 2.03048 5.20336 1.57282M14.4773 5.31578C14.7578 5.99281 14.9298 6.70854 14.9881 7.43671C15.0026 7.61661 15.0098 7.70655 14.9741 7.78757C14.9442 7.85525 14.8851 7.9193 14.82 7.95445C14.7421 7.99653 14.6448 7.99653 14.4501 7.99653H8.56583C8.36967 7.99653 8.27159 7.99653 8.19666 7.95836C8.13076 7.92478 8.07717 7.8712 8.04359 7.80529C8.00542 7.73037 8.00542 7.63229 8.00542 7.43612V1.55181C8.00542 1.35716 8.00542 1.25983 8.0475 1.18193C8.08265 1.11685 8.1467 1.05773 8.21438 1.02789C8.2954 0.99217 8.38535 0.999381 8.56524 1.0138C9.29341 1.07218 10.0091 1.2442 10.6862 1.52463C11.5361 1.87667 12.3083 2.39267 12.9588 3.04316C13.6093 3.69364 14.1253 4.46588 14.4773 5.31578Z" stroke="#008582" stroke-linecap="round" stroke-linejoin="round"/>
</svg>
